G04 #@! TF.GenerationSoftware,KiCad,Pcbnew,(6.0.1-0)*
G04 #@! TF.CreationDate,2022-03-09T23:30:53+00:00*
G04 #@! TF.ProjectId,sharpkey,73686172-706b-4657-992e-6b696361645f,1.3*
G04 #@! TF.SameCoordinates,Original*
G04 #@! TF.FileFunction,Legend,Top*
G04 #@! TF.FilePolarity,Positive*
%FSLAX46Y46*%
G04 Gerber Fmt 4.6, Leading zero omitted, Abs format (unit mm)*
G04 Created by KiCad (PCBNEW (6.0.1-0)) date 2022-03-09 23:30:53*
%MOMM*%
%LPD*%
G01*
G04 APERTURE LIST*
%ADD10C,0.100000*%
%ADD11C,0.150000*%
%ADD12C,0.120000*%
%ADD13C,0.010000*%
%ADD14C,0.381000*%
%ADD15C,1.500000*%
%ADD16R,2.500000X3.000000*%
%ADD17R,3.000000X2.500000*%
G04 APERTURE END LIST*
D10*
X56336053Y-104731285D02*
X56282482Y-104702714D01*
X56168196Y-104702714D01*
X56107482Y-104731285D01*
X56043196Y-104788428D01*
X56007482Y-104845571D01*
X55993196Y-104959857D01*
X56014625Y-105017000D01*
X56064625Y-105074142D01*
X56118196Y-105102714D01*
X56232482Y-105102714D01*
X56293196Y-105074142D01*
X56250339Y-104502714D02*
X56103910Y-104531285D01*
X55950339Y-104617000D01*
X55846767Y-104759857D01*
X55800339Y-104902714D01*
X55811053Y-105045571D01*
X55878910Y-105188428D01*
X56011053Y-105274142D01*
X56150339Y-105302714D01*
X56296767Y-105274142D01*
X56450339Y-105188428D01*
X56553910Y-105045571D01*
X56600339Y-104902714D01*
X56589625Y-104759857D01*
X56521767Y-104617000D01*
X56389625Y-104531285D01*
X56250339Y-104502714D01*
X57278910Y-105188428D02*
X57353910Y-104588428D01*
X57582482Y-104588428D01*
X57636053Y-104617000D01*
X57661053Y-104645571D01*
X57682482Y-104702714D01*
X57671767Y-104788428D01*
X57636053Y-104845571D01*
X57603910Y-104874142D01*
X57543196Y-104902714D01*
X57314625Y-104902714D01*
X57886053Y-105131285D02*
X57911053Y-105159857D01*
X57878910Y-105188428D01*
X57853910Y-105159857D01*
X57886053Y-105131285D01*
X57878910Y-105188428D01*
X58164625Y-105188428D02*
X58239625Y-104588428D01*
X58382482Y-104588428D01*
X58464625Y-104617000D01*
X58514625Y-104674142D01*
X58536053Y-104731285D01*
X58550339Y-104845571D01*
X58539625Y-104931285D01*
X58496767Y-105045571D01*
X58461053Y-105102714D01*
X58396767Y-105159857D01*
X58307482Y-105188428D01*
X58164625Y-105188428D01*
X58771767Y-105131285D02*
X58796767Y-105159857D01*
X58764625Y-105188428D01*
X58739625Y-105159857D01*
X58771767Y-105131285D01*
X58764625Y-105188428D01*
X59025339Y-105159857D02*
X59107482Y-105188428D01*
X59250339Y-105188428D01*
X59311053Y-105159857D01*
X59343196Y-105131285D01*
X59378910Y-105074142D01*
X59386053Y-105017000D01*
X59364625Y-104959857D01*
X59339625Y-104931285D01*
X59286053Y-104902714D01*
X59175339Y-104874142D01*
X59121767Y-104845571D01*
X59096767Y-104817000D01*
X59075339Y-104759857D01*
X59082482Y-104702714D01*
X59118196Y-104645571D01*
X59150339Y-104617000D01*
X59211053Y-104588428D01*
X59353910Y-104588428D01*
X59436053Y-104617000D01*
X59621767Y-105188428D02*
X59671767Y-104788428D01*
X59664625Y-104845571D02*
X59696767Y-104817000D01*
X59757482Y-104788428D01*
X59843196Y-104788428D01*
X59896767Y-104817000D01*
X59918196Y-104874142D01*
X59878910Y-105188428D01*
X59918196Y-104874142D02*
X59953910Y-104817000D01*
X60014625Y-104788428D01*
X60100339Y-104788428D01*
X60153910Y-104817000D01*
X60175339Y-104874142D01*
X60136053Y-105188428D01*
X60678910Y-105188428D02*
X60718196Y-104874142D01*
X60696767Y-104817000D01*
X60643196Y-104788428D01*
X60528910Y-104788428D01*
X60468196Y-104817000D01*
X60682482Y-105159857D02*
X60621767Y-105188428D01*
X60478910Y-105188428D01*
X60425339Y-105159857D01*
X60403910Y-105102714D01*
X60411053Y-105045571D01*
X60446767Y-104988428D01*
X60507482Y-104959857D01*
X60650339Y-104959857D01*
X60711053Y-104931285D01*
X60964625Y-105188428D02*
X61014625Y-104788428D01*
X61000339Y-104902714D02*
X61036053Y-104845571D01*
X61068196Y-104817000D01*
X61128910Y-104788428D01*
X61186053Y-104788428D01*
X61300339Y-104788428D02*
X61528910Y-104788428D01*
X61411053Y-104588428D02*
X61346767Y-105102714D01*
X61368196Y-105159857D01*
X61421767Y-105188428D01*
X61478910Y-105188428D01*
X56689625Y-105611571D02*
X56721767Y-105583000D01*
X56782482Y-105554428D01*
X56925339Y-105554428D01*
X56978910Y-105583000D01*
X57003910Y-105611571D01*
X57025339Y-105668714D01*
X57018196Y-105725857D01*
X56978910Y-105811571D01*
X56593196Y-106154428D01*
X56964625Y-106154428D01*
X57411053Y-105554428D02*
X57468196Y-105554428D01*
X57521767Y-105583000D01*
X57546767Y-105611571D01*
X57568196Y-105668714D01*
X57582482Y-105783000D01*
X57564625Y-105925857D01*
X57521767Y-106040142D01*
X57486053Y-106097285D01*
X57453910Y-106125857D01*
X57393196Y-106154428D01*
X57336053Y-106154428D01*
X57282482Y-106125857D01*
X57257482Y-106097285D01*
X57236053Y-106040142D01*
X57221767Y-105925857D01*
X57239625Y-105783000D01*
X57282482Y-105668714D01*
X57318196Y-105611571D01*
X57350339Y-105583000D01*
X57411053Y-105554428D01*
X58107482Y-106154428D02*
X57764625Y-106154428D01*
X57936053Y-106154428D02*
X58011053Y-105554428D01*
X57943196Y-105640142D01*
X57878910Y-105697285D01*
X57818196Y-105725857D01*
X58493196Y-105811571D02*
X58439625Y-105783000D01*
X58414625Y-105754428D01*
X58393196Y-105697285D01*
X58396767Y-105668714D01*
X58432482Y-105611571D01*
X58464625Y-105583000D01*
X58525339Y-105554428D01*
X58639625Y-105554428D01*
X58693196Y-105583000D01*
X58718196Y-105611571D01*
X58739625Y-105668714D01*
X58736053Y-105697285D01*
X58700339Y-105754428D01*
X58668196Y-105783000D01*
X58607482Y-105811571D01*
X58493196Y-105811571D01*
X58432482Y-105840142D01*
X58400339Y-105868714D01*
X58364625Y-105925857D01*
X58350339Y-106040142D01*
X58371767Y-106097285D01*
X58396767Y-106125857D01*
X58450339Y-106154428D01*
X58564625Y-106154428D01*
X58625339Y-106125857D01*
X58657482Y-106097285D01*
X58693196Y-106040142D01*
X58707482Y-105925857D01*
X58686053Y-105868714D01*
X58661053Y-105840142D01*
X58607482Y-105811571D01*
X58964625Y-105925857D02*
X59421767Y-105925857D01*
X59718196Y-105611571D02*
X59750339Y-105583000D01*
X59811053Y-105554428D01*
X59953910Y-105554428D01*
X60007482Y-105583000D01*
X60032482Y-105611571D01*
X60053910Y-105668714D01*
X60046767Y-105725857D01*
X60007482Y-105811571D01*
X59621767Y-106154428D01*
X59993196Y-106154428D01*
X60289625Y-105611571D02*
X60321767Y-105583000D01*
X60382482Y-105554428D01*
X60525339Y-105554428D01*
X60578910Y-105583000D01*
X60603910Y-105611571D01*
X60625339Y-105668714D01*
X60618196Y-105725857D01*
X60578910Y-105811571D01*
X60193196Y-106154428D01*
X60564625Y-106154428D01*
X69993910Y-83939857D02*
X70076053Y-83968428D01*
X70218910Y-83968428D01*
X70279625Y-83939857D01*
X70311767Y-83911285D01*
X70347482Y-83854142D01*
X70354625Y-83797000D01*
X70333196Y-83739857D01*
X70308196Y-83711285D01*
X70254625Y-83682714D01*
X70143910Y-83654142D01*
X70090339Y-83625571D01*
X70065339Y-83597000D01*
X70043910Y-83539857D01*
X70051053Y-83482714D01*
X70086767Y-83425571D01*
X70118910Y-83397000D01*
X70179625Y-83368428D01*
X70322482Y-83368428D01*
X70404625Y-83397000D01*
X70590339Y-83968428D02*
X70665339Y-83368428D01*
X70847482Y-83968428D02*
X70886767Y-83654142D01*
X70865339Y-83597000D01*
X70811767Y-83568428D01*
X70726053Y-83568428D01*
X70665339Y-83597000D01*
X70633196Y-83625571D01*
X71390339Y-83968428D02*
X71429625Y-83654142D01*
X71408196Y-83597000D01*
X71354625Y-83568428D01*
X71240339Y-83568428D01*
X71179625Y-83597000D01*
X71393910Y-83939857D02*
X71333196Y-83968428D01*
X71190339Y-83968428D01*
X71136767Y-83939857D01*
X71115339Y-83882714D01*
X71122482Y-83825571D01*
X71158196Y-83768428D01*
X71218910Y-83739857D01*
X71361767Y-83739857D01*
X71422482Y-83711285D01*
X71676053Y-83968428D02*
X71726053Y-83568428D01*
X71711767Y-83682714D02*
X71747482Y-83625571D01*
X71779625Y-83597000D01*
X71840339Y-83568428D01*
X71897482Y-83568428D01*
X72097482Y-83568428D02*
X72022482Y-84168428D01*
X72093910Y-83597000D02*
X72154625Y-83568428D01*
X72268910Y-83568428D01*
X72322482Y-83597000D01*
X72347482Y-83625571D01*
X72368910Y-83682714D01*
X72347482Y-83854142D01*
X72311767Y-83911285D01*
X72279625Y-83939857D01*
X72218910Y-83968428D01*
X72104625Y-83968428D01*
X72051053Y-83939857D01*
X73047482Y-83968428D02*
X73122482Y-83368428D01*
X73268910Y-83797000D01*
X73522482Y-83368428D01*
X73447482Y-83968428D01*
X73751053Y-83368428D02*
X74151053Y-83368428D01*
X73676053Y-83968428D01*
X74076053Y-83968428D01*
X74811767Y-83339857D02*
X74201053Y-84111285D01*
X74951053Y-83368428D02*
X75276053Y-83968428D01*
X75351053Y-83368428D02*
X74876053Y-83968428D01*
X75990339Y-83739857D02*
X76447482Y-83739857D01*
X77161767Y-83968428D02*
X77236767Y-83368428D01*
X77465339Y-83368428D01*
X77518910Y-83397000D01*
X77543910Y-83425571D01*
X77565339Y-83482714D01*
X77554625Y-83568428D01*
X77518910Y-83625571D01*
X77486767Y-83654142D01*
X77426053Y-83682714D01*
X77197482Y-83682714D01*
X77736767Y-83939857D02*
X77818910Y-83968428D01*
X77961767Y-83968428D01*
X78022482Y-83939857D01*
X78054625Y-83911285D01*
X78090339Y-83854142D01*
X78097482Y-83797000D01*
X78076053Y-83739857D01*
X78051053Y-83711285D01*
X77997482Y-83682714D01*
X77886767Y-83654142D01*
X77833196Y-83625571D01*
X77808196Y-83597000D01*
X77786767Y-83539857D01*
X77793910Y-83482714D01*
X77829625Y-83425571D01*
X77861767Y-83397000D01*
X77922482Y-83368428D01*
X78065339Y-83368428D01*
X78147482Y-83397000D01*
X78840339Y-83339857D02*
X78229625Y-84111285D01*
X79001053Y-83425571D02*
X79033196Y-83397000D01*
X79093910Y-83368428D01*
X79236767Y-83368428D01*
X79290339Y-83397000D01*
X79315339Y-83425571D01*
X79336767Y-83482714D01*
X79329625Y-83539857D01*
X79290339Y-83625571D01*
X78904625Y-83968428D01*
X79276053Y-83968428D01*
X70690339Y-84934428D02*
X70765339Y-84334428D01*
X71033196Y-84934428D02*
X70818910Y-84591571D01*
X71108196Y-84334428D02*
X70722482Y-84677285D01*
X71522482Y-84905857D02*
X71461767Y-84934428D01*
X71347482Y-84934428D01*
X71293910Y-84905857D01*
X71272482Y-84848714D01*
X71301053Y-84620142D01*
X71336767Y-84563000D01*
X71397482Y-84534428D01*
X71511767Y-84534428D01*
X71565339Y-84563000D01*
X71586767Y-84620142D01*
X71579625Y-84677285D01*
X71286767Y-84734428D01*
X71797482Y-84534428D02*
X71890339Y-84934428D01*
X72083196Y-84534428D02*
X71890339Y-84934428D01*
X71815339Y-85077285D01*
X71783196Y-85105857D01*
X71722482Y-85134428D01*
X72261767Y-84934428D02*
X72336767Y-84334428D01*
X72308196Y-84563000D02*
X72368910Y-84534428D01*
X72483196Y-84534428D01*
X72536767Y-84563000D01*
X72561767Y-84591571D01*
X72583196Y-84648714D01*
X72561767Y-84820142D01*
X72526053Y-84877285D01*
X72493910Y-84905857D01*
X72433196Y-84934428D01*
X72318910Y-84934428D01*
X72265339Y-84905857D01*
X72890339Y-84934428D02*
X72836767Y-84905857D01*
X72811767Y-84877285D01*
X72790339Y-84820142D01*
X72811767Y-84648714D01*
X72847482Y-84591571D01*
X72879625Y-84563000D01*
X72940339Y-84534428D01*
X73026053Y-84534428D01*
X73079625Y-84563000D01*
X73104625Y-84591571D01*
X73126053Y-84648714D01*
X73104625Y-84820142D01*
X73068910Y-84877285D01*
X73036767Y-84905857D01*
X72976053Y-84934428D01*
X72890339Y-84934428D01*
X73604625Y-84934428D02*
X73643910Y-84620142D01*
X73622482Y-84563000D01*
X73568910Y-84534428D01*
X73454625Y-84534428D01*
X73393910Y-84563000D01*
X73608196Y-84905857D02*
X73547482Y-84934428D01*
X73404625Y-84934428D01*
X73351053Y-84905857D01*
X73329625Y-84848714D01*
X73336767Y-84791571D01*
X73372482Y-84734428D01*
X73433196Y-84705857D01*
X73576053Y-84705857D01*
X73636767Y-84677285D01*
X73890339Y-84934428D02*
X73940339Y-84534428D01*
X73926053Y-84648714D02*
X73961767Y-84591571D01*
X73993910Y-84563000D01*
X74054625Y-84534428D01*
X74111767Y-84534428D01*
X74518910Y-84934428D02*
X74593910Y-84334428D01*
X74522482Y-84905857D02*
X74461767Y-84934428D01*
X74347482Y-84934428D01*
X74293910Y-84905857D01*
X74268910Y-84877285D01*
X74247482Y-84820142D01*
X74268910Y-84648714D01*
X74304625Y-84591571D01*
X74336767Y-84563000D01*
X74397482Y-84534428D01*
X74511767Y-84534428D01*
X74565339Y-84563000D01*
X75261767Y-84934428D02*
X75311767Y-84534428D01*
X75336767Y-84334428D02*
X75304625Y-84363000D01*
X75329625Y-84391571D01*
X75361767Y-84363000D01*
X75336767Y-84334428D01*
X75329625Y-84391571D01*
X76054625Y-84305857D02*
X75443910Y-85077285D01*
X76140339Y-84534428D02*
X76368910Y-84534428D01*
X76176053Y-84934428D02*
X76240339Y-84420142D01*
X76276053Y-84363000D01*
X76336767Y-84334428D01*
X76393910Y-84334428D01*
X76968910Y-84534428D02*
X77061767Y-84934428D01*
X77254625Y-84534428D01*
X77747482Y-84934428D02*
X77404625Y-84934428D01*
X77576053Y-84934428D02*
X77651053Y-84334428D01*
X77583196Y-84420142D01*
X77518910Y-84477285D01*
X77458196Y-84505857D01*
X78011767Y-84877285D02*
X78036767Y-84905857D01*
X78004625Y-84934428D01*
X77979625Y-84905857D01*
X78011767Y-84877285D01*
X78004625Y-84934428D01*
X78308196Y-84334428D02*
X78679625Y-84334428D01*
X78451053Y-84563000D01*
X78536767Y-84563000D01*
X78590339Y-84591571D01*
X78615339Y-84620142D01*
X78636767Y-84677285D01*
X78618910Y-84820142D01*
X78583196Y-84877285D01*
X78551053Y-84905857D01*
X78490339Y-84934428D01*
X78318910Y-84934428D01*
X78265339Y-84905857D01*
X78240339Y-84877285D01*
X87366053Y-81321428D02*
X87441053Y-80721428D01*
X87623196Y-81321428D02*
X87662482Y-81007142D01*
X87641053Y-80950000D01*
X87587482Y-80921428D01*
X87501767Y-80921428D01*
X87441053Y-80950000D01*
X87408910Y-80978571D01*
X87873196Y-80921428D02*
X88101767Y-80921428D01*
X87983910Y-80721428D02*
X87919625Y-81235714D01*
X87941053Y-81292857D01*
X87994625Y-81321428D01*
X88051767Y-81321428D01*
X88216053Y-80921428D02*
X88444625Y-80921428D01*
X88326767Y-80721428D02*
X88262482Y-81235714D01*
X88283910Y-81292857D01*
X88337482Y-81321428D01*
X88394625Y-81321428D01*
X88644625Y-80921428D02*
X88569625Y-81521428D01*
X88641053Y-80950000D02*
X88701767Y-80921428D01*
X88816053Y-80921428D01*
X88869625Y-80950000D01*
X88894625Y-80978571D01*
X88916053Y-81035714D01*
X88894625Y-81207142D01*
X88858910Y-81264285D01*
X88826767Y-81292857D01*
X88766053Y-81321428D01*
X88651767Y-81321428D01*
X88598196Y-81292857D01*
X89112482Y-81292857D02*
X89166053Y-81321428D01*
X89280339Y-81321428D01*
X89341053Y-81292857D01*
X89376767Y-81235714D01*
X89380339Y-81207142D01*
X89358910Y-81150000D01*
X89305339Y-81121428D01*
X89219625Y-81121428D01*
X89166053Y-81092857D01*
X89144625Y-81035714D01*
X89148196Y-81007142D01*
X89183910Y-80950000D01*
X89244625Y-80921428D01*
X89330339Y-80921428D01*
X89383910Y-80950000D01*
X89630339Y-81264285D02*
X89655339Y-81292857D01*
X89623196Y-81321428D01*
X89598196Y-81292857D01*
X89630339Y-81264285D01*
X89623196Y-81321428D01*
X89669625Y-80950000D02*
X89694625Y-80978571D01*
X89662482Y-81007142D01*
X89637482Y-80978571D01*
X89669625Y-80950000D01*
X89662482Y-81007142D01*
X90416053Y-80692857D02*
X89805339Y-81464285D01*
X91044625Y-80692857D02*
X90433910Y-81464285D01*
X91398196Y-81292857D02*
X91337482Y-81321428D01*
X91223196Y-81321428D01*
X91169625Y-81292857D01*
X91148196Y-81235714D01*
X91176767Y-81007142D01*
X91212482Y-80950000D01*
X91273196Y-80921428D01*
X91387482Y-80921428D01*
X91441053Y-80950000D01*
X91462482Y-81007142D01*
X91455339Y-81064285D01*
X91162482Y-81121428D01*
X91937482Y-81321428D02*
X91976767Y-81007142D01*
X91955339Y-80950000D01*
X91901767Y-80921428D01*
X91787482Y-80921428D01*
X91726767Y-80950000D01*
X91941053Y-81292857D02*
X91880339Y-81321428D01*
X91737482Y-81321428D01*
X91683910Y-81292857D01*
X91662482Y-81235714D01*
X91669625Y-81178571D01*
X91705339Y-81121428D01*
X91766053Y-81092857D01*
X91908910Y-81092857D01*
X91969625Y-81064285D01*
X92216053Y-80921428D02*
X92280339Y-81321428D01*
X92430339Y-81035714D01*
X92508910Y-81321428D01*
X92673196Y-80921428D01*
X92858910Y-81264285D02*
X92883910Y-81292857D01*
X92851767Y-81321428D01*
X92826767Y-81292857D01*
X92858910Y-81264285D01*
X92851767Y-81321428D01*
X93394625Y-81321428D02*
X93433910Y-81007142D01*
X93412482Y-80950000D01*
X93358910Y-80921428D01*
X93244625Y-80921428D01*
X93183910Y-80950000D01*
X93398196Y-81292857D02*
X93337482Y-81321428D01*
X93194625Y-81321428D01*
X93141053Y-81292857D01*
X93119625Y-81235714D01*
X93126767Y-81178571D01*
X93162482Y-81121428D01*
X93223196Y-81092857D01*
X93366053Y-81092857D01*
X93426767Y-81064285D01*
X93730339Y-80921428D02*
X93655339Y-81521428D01*
X93726767Y-80950000D02*
X93787482Y-80921428D01*
X93901767Y-80921428D01*
X93955339Y-80950000D01*
X93980339Y-80978571D01*
X94001767Y-81035714D01*
X93980339Y-81207142D01*
X93944625Y-81264285D01*
X93912482Y-81292857D01*
X93851767Y-81321428D01*
X93737482Y-81321428D01*
X93683910Y-81292857D01*
X94273196Y-80921428D02*
X94198196Y-81521428D01*
X94269625Y-80950000D02*
X94330339Y-80921428D01*
X94444625Y-80921428D01*
X94498196Y-80950000D01*
X94523196Y-80978571D01*
X94544625Y-81035714D01*
X94523196Y-81207142D01*
X94487482Y-81264285D01*
X94455339Y-81292857D01*
X94394625Y-81321428D01*
X94280339Y-81321428D01*
X94226767Y-81292857D01*
D11*
X43787619Y-97869047D02*
X43740000Y-97821428D01*
X43692380Y-97726190D01*
X43692380Y-97488095D01*
X43740000Y-97392857D01*
X43787619Y-97345238D01*
X43882857Y-97297619D01*
X43978095Y-97297619D01*
X44120952Y-97345238D01*
X44692380Y-97916666D01*
X44692380Y-97297619D01*
X43692380Y-96440476D02*
X43692380Y-96630952D01*
X43740000Y-96726190D01*
X43787619Y-96773809D01*
X43930476Y-96869047D01*
X44120952Y-96916666D01*
X44501904Y-96916666D01*
X44597142Y-96869047D01*
X44644761Y-96821428D01*
X44692380Y-96726190D01*
X44692380Y-96535714D01*
X44644761Y-96440476D01*
X44597142Y-96392857D01*
X44501904Y-96345238D01*
X44263809Y-96345238D01*
X44168571Y-96392857D01*
X44120952Y-96440476D01*
X44073333Y-96535714D01*
X44073333Y-96726190D01*
X44120952Y-96821428D01*
X44168571Y-96869047D01*
X44263809Y-96916666D01*
X44597142Y-95916666D02*
X44644761Y-95869047D01*
X44692380Y-95916666D01*
X44644761Y-95964285D01*
X44597142Y-95916666D01*
X44692380Y-95916666D01*
X43692380Y-94964285D02*
X43692380Y-95440476D01*
X44168571Y-95488095D01*
X44120952Y-95440476D01*
X44073333Y-95345238D01*
X44073333Y-95107142D01*
X44120952Y-95011904D01*
X44168571Y-94964285D01*
X44263809Y-94916666D01*
X44501904Y-94916666D01*
X44597142Y-94964285D01*
X44644761Y-95011904D01*
X44692380Y-95107142D01*
X44692380Y-95345238D01*
X44644761Y-95440476D01*
X44597142Y-95488095D01*
X44025714Y-94059523D02*
X44692380Y-94059523D01*
X43644761Y-94297619D02*
X44359047Y-94535714D01*
X44359047Y-93916666D01*
X43692380Y-93345238D02*
X43692380Y-93250000D01*
X43740000Y-93154761D01*
X43787619Y-93107142D01*
X43882857Y-93059523D01*
X44073333Y-93011904D01*
X44311428Y-93011904D01*
X44501904Y-93059523D01*
X44597142Y-93107142D01*
X44644761Y-93154761D01*
X44692380Y-93250000D01*
X44692380Y-93345238D01*
X44644761Y-93440476D01*
X44597142Y-93488095D01*
X44501904Y-93535714D01*
X44311428Y-93583333D01*
X44073333Y-93583333D01*
X43882857Y-93535714D01*
X43787619Y-93488095D01*
X43740000Y-93440476D01*
X43692380Y-93345238D01*
X43692380Y-92392857D02*
X43692380Y-92297619D01*
X43740000Y-92202380D01*
X43787619Y-92154761D01*
X43882857Y-92107142D01*
X44073333Y-92059523D01*
X44311428Y-92059523D01*
X44501904Y-92107142D01*
X44597142Y-92154761D01*
X44644761Y-92202380D01*
X44692380Y-92297619D01*
X44692380Y-92392857D01*
X44644761Y-92488095D01*
X44597142Y-92535714D01*
X44501904Y-92583333D01*
X44311428Y-92630952D01*
X44073333Y-92630952D01*
X43882857Y-92583333D01*
X43787619Y-92535714D01*
X43740000Y-92488095D01*
X43692380Y-92392857D01*
X44692380Y-90869047D02*
X44025714Y-90869047D01*
X44120952Y-90869047D02*
X44073333Y-90821428D01*
X44025714Y-90726190D01*
X44025714Y-90583333D01*
X44073333Y-90488095D01*
X44168571Y-90440476D01*
X44692380Y-90440476D01*
X44168571Y-90440476D02*
X44073333Y-90392857D01*
X44025714Y-90297619D01*
X44025714Y-90154761D01*
X44073333Y-90059523D01*
X44168571Y-90011904D01*
X44692380Y-90011904D01*
X44692380Y-89535714D02*
X44025714Y-89535714D01*
X44120952Y-89535714D02*
X44073333Y-89488095D01*
X44025714Y-89392857D01*
X44025714Y-89250000D01*
X44073333Y-89154761D01*
X44168571Y-89107142D01*
X44692380Y-89107142D01*
X44168571Y-89107142D02*
X44073333Y-89059523D01*
X44025714Y-88964285D01*
X44025714Y-88821428D01*
X44073333Y-88726190D01*
X44168571Y-88678571D01*
X44692380Y-88678571D01*
D12*
X49510000Y-79980000D02*
X44803580Y-79980000D01*
X49510000Y-106520000D02*
X44803580Y-106520000D01*
X45390000Y-79980000D02*
X45390000Y-106520000D01*
X45390000Y-79980000D02*
X45390000Y-106520000D01*
X45390000Y-79980000D02*
X44803579Y-81106504D01*
X45390000Y-79980000D02*
X45976421Y-81106504D01*
X45390000Y-106520000D02*
X45976421Y-105393496D01*
X45390000Y-106520000D02*
X44803579Y-105393496D01*
D11*
X47282380Y-97297620D02*
X47282380Y-97869048D01*
X47282380Y-97583334D02*
X46282380Y-97583334D01*
X46425238Y-97678572D01*
X46520476Y-97773810D01*
X46568095Y-97869048D01*
X46710952Y-96726191D02*
X46663333Y-96821429D01*
X46615714Y-96869048D01*
X46520476Y-96916667D01*
X46472857Y-96916667D01*
X46377619Y-96869048D01*
X46330000Y-96821429D01*
X46282380Y-96726191D01*
X46282380Y-96535715D01*
X46330000Y-96440477D01*
X46377619Y-96392858D01*
X46472857Y-96345239D01*
X46520476Y-96345239D01*
X46615714Y-96392858D01*
X46663333Y-96440477D01*
X46710952Y-96535715D01*
X46710952Y-96726191D01*
X46758571Y-96821429D01*
X46806190Y-96869048D01*
X46901428Y-96916667D01*
X47091904Y-96916667D01*
X47187142Y-96869048D01*
X47234761Y-96821429D01*
X47282380Y-96726191D01*
X47282380Y-96535715D01*
X47234761Y-96440477D01*
X47187142Y-96392858D01*
X47091904Y-96345239D01*
X46901428Y-96345239D01*
X46806190Y-96392858D01*
X46758571Y-96440477D01*
X46710952Y-96535715D01*
X47187142Y-95916667D02*
X47234761Y-95869048D01*
X47282380Y-95916667D01*
X47234761Y-95964286D01*
X47187142Y-95916667D01*
X47282380Y-95916667D01*
X46282380Y-94964286D02*
X46282380Y-95440477D01*
X46758571Y-95488096D01*
X46710952Y-95440477D01*
X46663333Y-95345239D01*
X46663333Y-95107143D01*
X46710952Y-95011905D01*
X46758571Y-94964286D01*
X46853809Y-94916667D01*
X47091904Y-94916667D01*
X47187142Y-94964286D01*
X47234761Y-95011905D01*
X47282380Y-95107143D01*
X47282380Y-95345239D01*
X47234761Y-95440477D01*
X47187142Y-95488096D01*
X46282380Y-94297620D02*
X46282380Y-94202381D01*
X46330000Y-94107143D01*
X46377619Y-94059524D01*
X46472857Y-94011905D01*
X46663333Y-93964286D01*
X46901428Y-93964286D01*
X47091904Y-94011905D01*
X47187142Y-94059524D01*
X47234761Y-94107143D01*
X47282380Y-94202381D01*
X47282380Y-94297620D01*
X47234761Y-94392858D01*
X47187142Y-94440477D01*
X47091904Y-94488096D01*
X46901428Y-94535715D01*
X46663333Y-94535715D01*
X46472857Y-94488096D01*
X46377619Y-94440477D01*
X46330000Y-94392858D01*
X46282380Y-94297620D01*
X46282380Y-93345239D02*
X46282380Y-93250001D01*
X46330000Y-93154762D01*
X46377619Y-93107143D01*
X46472857Y-93059524D01*
X46663333Y-93011905D01*
X46901428Y-93011905D01*
X47091904Y-93059524D01*
X47187142Y-93107143D01*
X47234761Y-93154762D01*
X47282380Y-93250001D01*
X47282380Y-93345239D01*
X47234761Y-93440477D01*
X47187142Y-93488096D01*
X47091904Y-93535715D01*
X46901428Y-93583334D01*
X46663333Y-93583334D01*
X46472857Y-93535715D01*
X46377619Y-93488096D01*
X46330000Y-93440477D01*
X46282380Y-93345239D01*
X46282380Y-92392858D02*
X46282380Y-92297620D01*
X46330000Y-92202381D01*
X46377619Y-92154762D01*
X46472857Y-92107143D01*
X46663333Y-92059524D01*
X46901428Y-92059524D01*
X47091904Y-92107143D01*
X47187142Y-92154762D01*
X47234761Y-92202381D01*
X47282380Y-92297620D01*
X47282380Y-92392858D01*
X47234761Y-92488096D01*
X47187142Y-92535715D01*
X47091904Y-92583334D01*
X46901428Y-92630953D01*
X46663333Y-92630953D01*
X46472857Y-92583334D01*
X46377619Y-92535715D01*
X46330000Y-92488096D01*
X46282380Y-92392858D01*
X47282380Y-90869048D02*
X46615714Y-90869048D01*
X46710952Y-90869048D02*
X46663333Y-90821429D01*
X46615714Y-90726191D01*
X46615714Y-90583334D01*
X46663333Y-90488096D01*
X46758571Y-90440477D01*
X47282380Y-90440477D01*
X46758571Y-90440477D02*
X46663333Y-90392858D01*
X46615714Y-90297620D01*
X46615714Y-90154762D01*
X46663333Y-90059524D01*
X46758571Y-90011905D01*
X47282380Y-90011905D01*
X47282380Y-89535715D02*
X46615714Y-89535715D01*
X46710952Y-89535715D02*
X46663333Y-89488096D01*
X46615714Y-89392858D01*
X46615714Y-89250001D01*
X46663333Y-89154762D01*
X46758571Y-89107143D01*
X47282380Y-89107143D01*
X46758571Y-89107143D02*
X46663333Y-89059524D01*
X46615714Y-88964286D01*
X46615714Y-88821429D01*
X46663333Y-88726191D01*
X46758571Y-88678572D01*
X47282380Y-88678572D01*
D12*
X49500000Y-84000000D02*
X47393580Y-84000000D01*
X49500001Y-102500002D02*
X47393581Y-102500002D01*
X47980000Y-84000000D02*
X47980001Y-102500002D01*
X47980000Y-84000000D02*
X47980001Y-102500002D01*
X47980000Y-84000000D02*
X47393579Y-85126504D01*
X47980000Y-84000000D02*
X48566421Y-85126504D01*
X47980001Y-102500002D02*
X48566422Y-101373498D01*
X47980001Y-102500002D02*
X47393580Y-101373498D01*
D11*
X70797014Y-115108202D02*
X70797415Y-115774868D01*
X70558690Y-114727392D02*
X70321024Y-115441821D01*
X70940072Y-115441449D01*
X71368843Y-115774525D02*
X71559319Y-115774411D01*
X71654529Y-115726734D01*
X71702119Y-115679087D01*
X71797272Y-115536172D01*
X71844776Y-115345668D01*
X71844548Y-114964715D01*
X71796871Y-114869506D01*
X71749224Y-114821915D01*
X71653957Y-114774354D01*
X71463481Y-114774468D01*
X71368271Y-114822144D01*
X71320681Y-114869792D01*
X71273119Y-114965058D01*
X71273262Y-115203154D01*
X71320938Y-115298363D01*
X71368586Y-115345954D01*
X71463853Y-115393515D01*
X71654329Y-115393401D01*
X71749538Y-115345725D01*
X71797129Y-115298077D01*
X71844690Y-115202811D01*
X72273548Y-115678744D02*
X72321195Y-115726334D01*
X72273605Y-115773982D01*
X72225957Y-115726391D01*
X72273548Y-115678744D01*
X72273605Y-115773982D01*
X72797414Y-115773667D02*
X72987891Y-115773553D01*
X73083100Y-115725877D01*
X73130690Y-115678229D01*
X73225843Y-115535315D01*
X73273347Y-115344810D01*
X73273119Y-114963858D01*
X73225442Y-114868648D01*
X73177795Y-114821058D01*
X73082528Y-114773496D01*
X72892052Y-114773610D01*
X72796843Y-114821286D01*
X72749252Y-114868934D01*
X72701690Y-114964201D01*
X72701833Y-115202296D01*
X72749509Y-115297505D01*
X72797157Y-115345096D01*
X72892424Y-115392658D01*
X73082900Y-115392543D01*
X73178109Y-115344867D01*
X73225700Y-115297219D01*
X73273262Y-115201953D01*
X74130147Y-114772867D02*
X73939671Y-114772981D01*
X73844461Y-114820657D01*
X73796871Y-114868305D01*
X73701719Y-115011219D01*
X73654214Y-115201724D01*
X73654443Y-115582676D01*
X73702119Y-115677886D01*
X73749767Y-115725476D01*
X73845033Y-115773038D01*
X74035509Y-115772924D01*
X74130719Y-115725247D01*
X74178309Y-115677600D01*
X74225871Y-115582333D01*
X74225728Y-115344238D01*
X74178052Y-115249028D01*
X74130404Y-115201438D01*
X74035138Y-115153876D01*
X73844662Y-115153991D01*
X73749452Y-115201667D01*
X73701862Y-115249314D01*
X73654300Y-115344581D01*
X74844433Y-114772438D02*
X74939671Y-114772381D01*
X75034937Y-114819942D01*
X75082585Y-114867533D01*
X75130261Y-114962742D01*
X75177995Y-115153190D01*
X75178138Y-115391285D01*
X75130633Y-115581790D01*
X75083071Y-115677057D01*
X75035481Y-115724704D01*
X74940271Y-115772380D01*
X74845033Y-115772438D01*
X74749766Y-115724876D01*
X74702119Y-115677285D01*
X74654443Y-115582076D01*
X74606709Y-115391628D01*
X74606566Y-115153533D01*
X74654071Y-114963028D01*
X74701633Y-114867762D01*
X74749223Y-114820114D01*
X74844433Y-114772438D01*
X75796813Y-114771866D02*
X75892051Y-114771809D01*
X75987318Y-114819371D01*
X76034966Y-114866961D01*
X76082642Y-114962170D01*
X76130375Y-115152618D01*
X76130518Y-115390713D01*
X76083014Y-115581218D01*
X76035452Y-115676485D01*
X75987861Y-115724132D01*
X75892652Y-115771808D01*
X75797414Y-115771866D01*
X75702147Y-115724304D01*
X75654500Y-115676713D01*
X75606823Y-115581504D01*
X75559090Y-115391056D01*
X75558947Y-115152961D01*
X75606452Y-114962456D01*
X75654013Y-114867190D01*
X75701604Y-114819542D01*
X75796813Y-114771866D01*
X77321223Y-115770951D02*
X77320823Y-115104284D01*
X77320880Y-115199522D02*
X77368470Y-115151875D01*
X77463680Y-115104198D01*
X77606537Y-115104113D01*
X77701804Y-115151674D01*
X77749480Y-115246884D01*
X77749794Y-115770693D01*
X77749480Y-115246884D02*
X77797042Y-115151617D01*
X77892251Y-115103941D01*
X78035108Y-115103855D01*
X78130375Y-115151417D01*
X78178051Y-115246627D01*
X78178366Y-115770436D01*
X78654556Y-115770150D02*
X78654156Y-115103483D01*
X78654213Y-115198722D02*
X78701804Y-115151074D01*
X78797013Y-115103398D01*
X78939870Y-115103312D01*
X79035137Y-115150874D01*
X79082813Y-115246083D01*
X79083128Y-115769893D01*
X79082813Y-115246083D02*
X79130375Y-115150817D01*
X79225584Y-115103140D01*
X79368441Y-115103055D01*
X79463708Y-115150616D01*
X79511384Y-115245826D01*
X79511699Y-115769635D01*
D12*
X50010300Y-107020000D02*
X50014874Y-114636916D01*
X99970300Y-106990000D02*
X99974874Y-114606916D01*
X50014522Y-114050496D02*
X99974522Y-114020496D01*
X50014522Y-114050496D02*
X99974522Y-114020496D01*
X50014522Y-114050496D02*
X51141378Y-114636240D01*
X50014522Y-114050496D02*
X51140673Y-113463399D01*
X99974522Y-114020496D02*
X98847666Y-113434752D01*
X99974522Y-114020496D02*
X98848371Y-114607593D01*
D11*
X99636345Y-75245548D02*
X99299627Y-74908831D01*
X98929238Y-75211876D01*
X98996581Y-75211876D01*
X99097597Y-75245548D01*
X99265955Y-75413907D01*
X99299627Y-75514922D01*
X99299627Y-75582266D01*
X99265955Y-75683281D01*
X99097597Y-75851640D01*
X98996581Y-75885312D01*
X98929238Y-75885312D01*
X98828222Y-75851640D01*
X98659864Y-75683281D01*
X98626192Y-75582266D01*
X98626192Y-75514922D01*
X99333299Y-76222029D02*
X99333299Y-76289373D01*
X99265955Y-76289373D01*
X99265955Y-76222029D01*
X99333299Y-76222029D01*
X99265955Y-76289373D01*
X100612825Y-76222029D02*
X100478138Y-76087342D01*
X100377123Y-76053670D01*
X100309780Y-76053670D01*
X100141421Y-76087342D01*
X99973062Y-76188357D01*
X99703688Y-76457731D01*
X99670016Y-76558747D01*
X99670016Y-76626090D01*
X99703688Y-76727105D01*
X99838375Y-76861792D01*
X99939390Y-76895464D01*
X100006734Y-76895464D01*
X100107749Y-76861792D01*
X100276108Y-76693434D01*
X100309780Y-76592418D01*
X100309780Y-76525075D01*
X100276108Y-76424060D01*
X100141421Y-76289373D01*
X100040406Y-76255701D01*
X99973062Y-76255701D01*
X99872047Y-76289373D01*
X101319932Y-76929136D02*
X100983215Y-76592418D01*
X100612825Y-76895464D01*
X100680169Y-76895464D01*
X100781184Y-76929136D01*
X100949543Y-77097495D01*
X100983215Y-77198510D01*
X100983215Y-77265853D01*
X100949543Y-77366869D01*
X100781184Y-77535227D01*
X100680169Y-77568899D01*
X100612825Y-77568899D01*
X100511810Y-77535227D01*
X100343451Y-77366869D01*
X100309780Y-77265853D01*
X100309780Y-77198510D01*
X101959695Y-77568899D02*
X101825008Y-77434212D01*
X101723993Y-77400540D01*
X101656650Y-77400540D01*
X101488291Y-77434212D01*
X101319932Y-77535227D01*
X101050558Y-77804601D01*
X101016886Y-77905617D01*
X101016886Y-77972960D01*
X101050558Y-78073975D01*
X101185245Y-78208662D01*
X101286260Y-78242334D01*
X101353604Y-78242334D01*
X101454619Y-78208662D01*
X101622978Y-78040304D01*
X101656650Y-77939288D01*
X101656650Y-77871945D01*
X101622978Y-77770930D01*
X101488291Y-77636243D01*
X101387276Y-77602571D01*
X101319932Y-77602571D01*
X101218917Y-77636243D01*
X101656650Y-78680067D02*
X101791337Y-78814754D01*
X101892352Y-78848426D01*
X101959695Y-78848426D01*
X102128054Y-78814754D01*
X102296413Y-78713739D01*
X102565787Y-78444365D01*
X102599459Y-78343349D01*
X102599459Y-78276006D01*
X102565787Y-78174991D01*
X102431100Y-78040304D01*
X102330085Y-78006632D01*
X102262741Y-78006632D01*
X102161726Y-78040304D01*
X101993367Y-78208662D01*
X101959695Y-78309678D01*
X101959695Y-78377021D01*
X101993367Y-78478036D01*
X102128054Y-78612723D01*
X102229069Y-78646395D01*
X102296413Y-78646395D01*
X102397428Y-78612723D01*
X102835161Y-79858578D02*
X103306565Y-79387174D01*
X103239222Y-79454517D02*
X103306565Y-79454517D01*
X103407581Y-79488189D01*
X103508596Y-79589204D01*
X103542268Y-79690219D01*
X103508596Y-79791235D01*
X103138207Y-80161624D01*
X103508596Y-79791235D02*
X103609611Y-79757563D01*
X103710626Y-79791235D01*
X103811642Y-79892250D01*
X103845313Y-79993265D01*
X103811642Y-80094280D01*
X103441252Y-80464670D01*
X103777970Y-80801387D02*
X104249374Y-80329983D01*
X104182031Y-80397326D02*
X104249374Y-80397326D01*
X104350390Y-80430998D01*
X104451405Y-80532013D01*
X104485077Y-80633028D01*
X104451405Y-80734044D01*
X104081016Y-81104433D01*
X104451405Y-80734044D02*
X104552420Y-80700372D01*
X104653436Y-80734044D01*
X104754451Y-80835059D01*
X104788123Y-80936074D01*
X104754451Y-81037090D01*
X104384061Y-81407479D01*
D12*
X100000000Y-84000000D02*
X103409661Y-80590339D01*
X96000000Y-80000000D02*
X99409661Y-76590339D01*
X102995000Y-81005000D02*
X98995000Y-77005000D01*
X102995000Y-81005000D02*
X98995000Y-77005000D01*
X102995000Y-81005000D02*
X102613104Y-79793779D01*
X102995000Y-81005000D02*
X101783779Y-80623104D01*
X98995000Y-77005000D02*
X99376896Y-78216221D01*
X98995000Y-77005000D02*
X100206221Y-77386896D01*
D11*
X70697142Y-112085714D02*
X70697142Y-112752380D01*
X70459047Y-111704761D02*
X70220952Y-112419047D01*
X70840000Y-112419047D01*
X71173333Y-111847619D02*
X71220952Y-111800000D01*
X71316190Y-111752380D01*
X71554285Y-111752380D01*
X71649523Y-111800000D01*
X71697142Y-111847619D01*
X71744761Y-111942857D01*
X71744761Y-112038095D01*
X71697142Y-112180952D01*
X71125714Y-112752380D01*
X71744761Y-112752380D01*
X72173333Y-112657142D02*
X72220952Y-112704761D01*
X72173333Y-112752380D01*
X72125714Y-112704761D01*
X72173333Y-112657142D01*
X72173333Y-112752380D01*
X72840000Y-111752380D02*
X72935238Y-111752380D01*
X73030476Y-111800000D01*
X73078095Y-111847619D01*
X73125714Y-111942857D01*
X73173333Y-112133333D01*
X73173333Y-112371428D01*
X73125714Y-112561904D01*
X73078095Y-112657142D01*
X73030476Y-112704761D01*
X72935238Y-112752380D01*
X72840000Y-112752380D01*
X72744761Y-112704761D01*
X72697142Y-112657142D01*
X72649523Y-112561904D01*
X72601904Y-112371428D01*
X72601904Y-112133333D01*
X72649523Y-111942857D01*
X72697142Y-111847619D01*
X72744761Y-111800000D01*
X72840000Y-111752380D01*
X73792380Y-111752380D02*
X73887619Y-111752380D01*
X73982857Y-111800000D01*
X74030476Y-111847619D01*
X74078095Y-111942857D01*
X74125714Y-112133333D01*
X74125714Y-112371428D01*
X74078095Y-112561904D01*
X74030476Y-112657142D01*
X73982857Y-112704761D01*
X73887619Y-112752380D01*
X73792380Y-112752380D01*
X73697142Y-112704761D01*
X73649523Y-112657142D01*
X73601904Y-112561904D01*
X73554285Y-112371428D01*
X73554285Y-112133333D01*
X73601904Y-111942857D01*
X73649523Y-111847619D01*
X73697142Y-111800000D01*
X73792380Y-111752380D01*
X74744761Y-111752380D02*
X74840000Y-111752380D01*
X74935238Y-111800000D01*
X74982857Y-111847619D01*
X75030476Y-111942857D01*
X75078095Y-112133333D01*
X75078095Y-112371428D01*
X75030476Y-112561904D01*
X74982857Y-112657142D01*
X74935238Y-112704761D01*
X74840000Y-112752380D01*
X74744761Y-112752380D01*
X74649523Y-112704761D01*
X74601904Y-112657142D01*
X74554285Y-112561904D01*
X74506666Y-112371428D01*
X74506666Y-112133333D01*
X74554285Y-111942857D01*
X74601904Y-111847619D01*
X74649523Y-111800000D01*
X74744761Y-111752380D01*
X75697142Y-111752380D02*
X75792380Y-111752380D01*
X75887619Y-111800000D01*
X75935238Y-111847619D01*
X75982857Y-111942857D01*
X76030476Y-112133333D01*
X76030476Y-112371428D01*
X75982857Y-112561904D01*
X75935238Y-112657142D01*
X75887619Y-112704761D01*
X75792380Y-112752380D01*
X75697142Y-112752380D01*
X75601904Y-112704761D01*
X75554285Y-112657142D01*
X75506666Y-112561904D01*
X75459047Y-112371428D01*
X75459047Y-112133333D01*
X75506666Y-111942857D01*
X75554285Y-111847619D01*
X75601904Y-111800000D01*
X75697142Y-111752380D01*
X77220952Y-112752380D02*
X77220952Y-112085714D01*
X77220952Y-112180952D02*
X77268571Y-112133333D01*
X77363809Y-112085714D01*
X77506666Y-112085714D01*
X77601904Y-112133333D01*
X77649523Y-112228571D01*
X77649523Y-112752380D01*
X77649523Y-112228571D02*
X77697142Y-112133333D01*
X77792380Y-112085714D01*
X77935238Y-112085714D01*
X78030476Y-112133333D01*
X78078095Y-112228571D01*
X78078095Y-112752380D01*
X78554285Y-112752380D02*
X78554285Y-112085714D01*
X78554285Y-112180952D02*
X78601904Y-112133333D01*
X78697142Y-112085714D01*
X78840000Y-112085714D01*
X78935238Y-112133333D01*
X78982857Y-112228571D01*
X78982857Y-112752380D01*
X78982857Y-112228571D02*
X79030476Y-112133333D01*
X79125714Y-112085714D01*
X79268571Y-112085714D01*
X79363809Y-112133333D01*
X79411428Y-112228571D01*
X79411428Y-112752380D01*
D12*
X54000000Y-107000000D02*
X54000000Y-111426420D01*
X96000000Y-107000000D02*
X96000000Y-111426420D01*
X54000000Y-110840000D02*
X96000000Y-110840000D01*
X54000000Y-110840000D02*
X96000000Y-110840000D01*
X54000000Y-110840000D02*
X55126504Y-111426421D01*
X54000000Y-110840000D02*
X55126504Y-110253579D01*
X96000000Y-110840000D02*
X94873496Y-110253579D01*
X96000000Y-110840000D02*
X94873496Y-111426421D01*
D11*
X70919523Y-108472380D02*
X71586190Y-108472380D01*
X71157619Y-109472380D01*
X71967142Y-109377142D02*
X72014761Y-109424761D01*
X71967142Y-109472380D01*
X71919523Y-109424761D01*
X71967142Y-109377142D01*
X71967142Y-109472380D01*
X72633809Y-108472380D02*
X72729047Y-108472380D01*
X72824285Y-108520000D01*
X72871904Y-108567619D01*
X72919523Y-108662857D01*
X72967142Y-108853333D01*
X72967142Y-109091428D01*
X72919523Y-109281904D01*
X72871904Y-109377142D01*
X72824285Y-109424761D01*
X72729047Y-109472380D01*
X72633809Y-109472380D01*
X72538571Y-109424761D01*
X72490952Y-109377142D01*
X72443333Y-109281904D01*
X72395714Y-109091428D01*
X72395714Y-108853333D01*
X72443333Y-108662857D01*
X72490952Y-108567619D01*
X72538571Y-108520000D01*
X72633809Y-108472380D01*
X73586190Y-108472380D02*
X73681428Y-108472380D01*
X73776666Y-108520000D01*
X73824285Y-108567619D01*
X73871904Y-108662857D01*
X73919523Y-108853333D01*
X73919523Y-109091428D01*
X73871904Y-109281904D01*
X73824285Y-109377142D01*
X73776666Y-109424761D01*
X73681428Y-109472380D01*
X73586190Y-109472380D01*
X73490952Y-109424761D01*
X73443333Y-109377142D01*
X73395714Y-109281904D01*
X73348095Y-109091428D01*
X73348095Y-108853333D01*
X73395714Y-108662857D01*
X73443333Y-108567619D01*
X73490952Y-108520000D01*
X73586190Y-108472380D01*
X74538571Y-108472380D02*
X74633809Y-108472380D01*
X74729047Y-108520000D01*
X74776666Y-108567619D01*
X74824285Y-108662857D01*
X74871904Y-108853333D01*
X74871904Y-109091428D01*
X74824285Y-109281904D01*
X74776666Y-109377142D01*
X74729047Y-109424761D01*
X74633809Y-109472380D01*
X74538571Y-109472380D01*
X74443333Y-109424761D01*
X74395714Y-109377142D01*
X74348095Y-109281904D01*
X74300476Y-109091428D01*
X74300476Y-108853333D01*
X74348095Y-108662857D01*
X74395714Y-108567619D01*
X74443333Y-108520000D01*
X74538571Y-108472380D01*
X75490952Y-108472380D02*
X75586190Y-108472380D01*
X75681428Y-108520000D01*
X75729047Y-108567619D01*
X75776666Y-108662857D01*
X75824285Y-108853333D01*
X75824285Y-109091428D01*
X75776666Y-109281904D01*
X75729047Y-109377142D01*
X75681428Y-109424761D01*
X75586190Y-109472380D01*
X75490952Y-109472380D01*
X75395714Y-109424761D01*
X75348095Y-109377142D01*
X75300476Y-109281904D01*
X75252857Y-109091428D01*
X75252857Y-108853333D01*
X75300476Y-108662857D01*
X75348095Y-108567619D01*
X75395714Y-108520000D01*
X75490952Y-108472380D01*
X77014761Y-109472380D02*
X77014761Y-108805714D01*
X77014761Y-108900952D02*
X77062380Y-108853333D01*
X77157619Y-108805714D01*
X77300476Y-108805714D01*
X77395714Y-108853333D01*
X77443333Y-108948571D01*
X77443333Y-109472380D01*
X77443333Y-108948571D02*
X77490952Y-108853333D01*
X77586190Y-108805714D01*
X77729047Y-108805714D01*
X77824285Y-108853333D01*
X77871904Y-108948571D01*
X77871904Y-109472380D01*
X78348095Y-109472380D02*
X78348095Y-108805714D01*
X78348095Y-108900952D02*
X78395714Y-108853333D01*
X78490952Y-108805714D01*
X78633809Y-108805714D01*
X78729047Y-108853333D01*
X78776666Y-108948571D01*
X78776666Y-109472380D01*
X78776666Y-108948571D02*
X78824285Y-108853333D01*
X78919523Y-108805714D01*
X79062380Y-108805714D01*
X79157619Y-108853333D01*
X79205238Y-108948571D01*
X79205238Y-109472380D01*
D12*
X78500000Y-106500000D02*
X78500000Y-108176420D01*
X71500000Y-106500000D02*
X71500000Y-108176420D01*
X78500000Y-107590000D02*
X71500000Y-107590000D01*
X78500000Y-107590000D02*
X71500000Y-107590000D01*
X78500000Y-107590000D02*
X77373496Y-107003579D01*
X78500000Y-107590000D02*
X77373496Y-108176421D01*
X71500000Y-107590000D02*
X72626504Y-108176421D01*
X71500000Y-107590000D02*
X72626504Y-107003579D01*
D10*
X60257142Y-81121428D02*
X60257142Y-80521428D01*
X60400000Y-80521428D01*
X60485714Y-80550000D01*
X60542857Y-80607142D01*
X60571428Y-80664285D01*
X60600000Y-80778571D01*
X60600000Y-80864285D01*
X60571428Y-80978571D01*
X60542857Y-81035714D01*
X60485714Y-81092857D01*
X60400000Y-81121428D01*
X60257142Y-81121428D01*
X60800000Y-80521428D02*
X61171428Y-80521428D01*
X60971428Y-80750000D01*
X61057142Y-80750000D01*
X61114285Y-80778571D01*
X61142857Y-80807142D01*
X61171428Y-80864285D01*
X61171428Y-81007142D01*
X61142857Y-81064285D01*
X61114285Y-81092857D01*
X61057142Y-81121428D01*
X60885714Y-81121428D01*
X60828571Y-81092857D01*
X60800000Y-81064285D01*
D11*
X57316666Y-85466666D02*
X57316666Y-84766666D01*
X57583333Y-84766666D01*
X57650000Y-84800000D01*
X57683333Y-84833333D01*
X57716666Y-84900000D01*
X57716666Y-85000000D01*
X57683333Y-85066666D01*
X57650000Y-85100000D01*
X57583333Y-85133333D01*
X57316666Y-85133333D01*
X58116666Y-85466666D02*
X58050000Y-85433333D01*
X58016666Y-85400000D01*
X57983333Y-85333333D01*
X57983333Y-85133333D01*
X58016666Y-85066666D01*
X58050000Y-85033333D01*
X58116666Y-85000000D01*
X58216666Y-85000000D01*
X58283333Y-85033333D01*
X58316666Y-85066666D01*
X58350000Y-85133333D01*
X58350000Y-85333333D01*
X58316666Y-85400000D01*
X58283333Y-85433333D01*
X58216666Y-85466666D01*
X58116666Y-85466666D01*
X58583333Y-85000000D02*
X58716666Y-85466666D01*
X58850000Y-85133333D01*
X58983333Y-85466666D01*
X59116666Y-85000000D01*
X59650000Y-85433333D02*
X59583333Y-85466666D01*
X59450000Y-85466666D01*
X59383333Y-85433333D01*
X59350000Y-85366666D01*
X59350000Y-85100000D01*
X59383333Y-85033333D01*
X59450000Y-85000000D01*
X59583333Y-85000000D01*
X59650000Y-85033333D01*
X59683333Y-85100000D01*
X59683333Y-85166666D01*
X59350000Y-85233333D01*
X59983333Y-85466666D02*
X59983333Y-85000000D01*
X59983333Y-85133333D02*
X60016666Y-85066666D01*
X60050000Y-85033333D01*
X60116666Y-85000000D01*
X60183333Y-85000000D01*
D10*
X91351428Y-98571428D02*
X91351428Y-97971428D01*
X91580000Y-97971428D01*
X91637142Y-98000000D01*
X91665714Y-98028571D01*
X91694285Y-98085714D01*
X91694285Y-98171428D01*
X91665714Y-98228571D01*
X91637142Y-98257142D01*
X91580000Y-98285714D01*
X91351428Y-98285714D01*
X91922857Y-98542857D02*
X92008571Y-98571428D01*
X92151428Y-98571428D01*
X92208571Y-98542857D01*
X92237142Y-98514285D01*
X92265714Y-98457142D01*
X92265714Y-98400000D01*
X92237142Y-98342857D01*
X92208571Y-98314285D01*
X92151428Y-98285714D01*
X92037142Y-98257142D01*
X91980000Y-98228571D01*
X91951428Y-98200000D01*
X91922857Y-98142857D01*
X91922857Y-98085714D01*
X91951428Y-98028571D01*
X91980000Y-98000000D01*
X92037142Y-97971428D01*
X92180000Y-97971428D01*
X92265714Y-98000000D01*
X92951428Y-97942857D02*
X92437142Y-98714285D01*
X93122857Y-98028571D02*
X93151428Y-98000000D01*
X93208571Y-97971428D01*
X93351428Y-97971428D01*
X93408571Y-98000000D01*
X93437142Y-98028571D01*
X93465714Y-98085714D01*
X93465714Y-98142857D01*
X93437142Y-98228571D01*
X93094285Y-98571428D01*
X93465714Y-98571428D01*
X94180000Y-98571428D02*
X94180000Y-97971428D01*
X94522857Y-98571428D02*
X94265714Y-98228571D01*
X94522857Y-97971428D02*
X94180000Y-98314285D01*
X95008571Y-98542857D02*
X94951428Y-98571428D01*
X94837142Y-98571428D01*
X94780000Y-98542857D01*
X94751428Y-98485714D01*
X94751428Y-98257142D01*
X94780000Y-98200000D01*
X94837142Y-98171428D01*
X94951428Y-98171428D01*
X95008571Y-98200000D01*
X95037142Y-98257142D01*
X95037142Y-98314285D01*
X94751428Y-98371428D01*
X95237142Y-98171428D02*
X95380000Y-98571428D01*
X95522857Y-98171428D02*
X95380000Y-98571428D01*
X95322857Y-98714285D01*
X95294285Y-98742857D01*
X95237142Y-98771428D01*
X95751428Y-98571428D02*
X95751428Y-97971428D01*
X95751428Y-98200000D02*
X95808571Y-98171428D01*
X95922857Y-98171428D01*
X95980000Y-98200000D01*
X96008571Y-98228571D01*
X96037142Y-98285714D01*
X96037142Y-98457142D01*
X96008571Y-98514285D01*
X95980000Y-98542857D01*
X95922857Y-98571428D01*
X95808571Y-98571428D01*
X95751428Y-98542857D01*
X96380000Y-98571428D02*
X96322857Y-98542857D01*
X96294285Y-98514285D01*
X96265714Y-98457142D01*
X96265714Y-98285714D01*
X96294285Y-98228571D01*
X96322857Y-98200000D01*
X96380000Y-98171428D01*
X96465714Y-98171428D01*
X96522857Y-98200000D01*
X96551428Y-98228571D01*
X96580000Y-98285714D01*
X96580000Y-98457142D01*
X96551428Y-98514285D01*
X96522857Y-98542857D01*
X96465714Y-98571428D01*
X96380000Y-98571428D01*
X97094285Y-98571428D02*
X97094285Y-98257142D01*
X97065714Y-98200000D01*
X97008571Y-98171428D01*
X96894285Y-98171428D01*
X96837142Y-98200000D01*
X97094285Y-98542857D02*
X97037142Y-98571428D01*
X96894285Y-98571428D01*
X96837142Y-98542857D01*
X96808571Y-98485714D01*
X96808571Y-98428571D01*
X96837142Y-98371428D01*
X96894285Y-98342857D01*
X97037142Y-98342857D01*
X97094285Y-98314285D01*
X97380000Y-98571428D02*
X97380000Y-98171428D01*
X97380000Y-98285714D02*
X97408571Y-98228571D01*
X97437142Y-98200000D01*
X97494285Y-98171428D01*
X97551428Y-98171428D01*
X98008571Y-98571428D02*
X98008571Y-97971428D01*
X98008571Y-98542857D02*
X97951428Y-98571428D01*
X97837142Y-98571428D01*
X97780000Y-98542857D01*
X97751428Y-98514285D01*
X97722857Y-98457142D01*
X97722857Y-98285714D01*
X97751428Y-98228571D01*
X97780000Y-98200000D01*
X97837142Y-98171428D01*
X97951428Y-98171428D01*
X98008571Y-98200000D01*
D11*
X89683333Y-103576666D02*
X89683333Y-102876666D01*
X89950000Y-102876666D01*
X90016666Y-102910000D01*
X90050000Y-102943333D01*
X90083333Y-103010000D01*
X90083333Y-103110000D01*
X90050000Y-103176666D01*
X90016666Y-103210000D01*
X89950000Y-103243333D01*
X89683333Y-103243333D01*
X90750000Y-102910000D02*
X90683333Y-102876666D01*
X90583333Y-102876666D01*
X90483333Y-102910000D01*
X90416666Y-102976666D01*
X90383333Y-103043333D01*
X90350000Y-103176666D01*
X90350000Y-103276666D01*
X90383333Y-103410000D01*
X90416666Y-103476666D01*
X90483333Y-103543333D01*
X90583333Y-103576666D01*
X90650000Y-103576666D01*
X90750000Y-103543333D01*
X90783333Y-103510000D01*
X90783333Y-103276666D01*
X90650000Y-103276666D01*
X91083333Y-103576666D02*
X91083333Y-102876666D01*
X91316666Y-103376666D01*
X91550000Y-102876666D01*
X91550000Y-103576666D01*
X92383333Y-102843333D02*
X91783333Y-103743333D01*
X92750000Y-102876666D02*
X92883333Y-102876666D01*
X92950000Y-102910000D01*
X93016666Y-102976666D01*
X93050000Y-103110000D01*
X93050000Y-103343333D01*
X93016666Y-103476666D01*
X92950000Y-103543333D01*
X92883333Y-103576666D01*
X92750000Y-103576666D01*
X92683333Y-103543333D01*
X92616666Y-103476666D01*
X92583333Y-103343333D01*
X92583333Y-103110000D01*
X92616666Y-102976666D01*
X92683333Y-102910000D01*
X92750000Y-102876666D01*
X93683333Y-103576666D02*
X93350000Y-103576666D01*
X93350000Y-102876666D01*
X93916666Y-103210000D02*
X94150000Y-103210000D01*
X94250000Y-103576666D02*
X93916666Y-103576666D01*
X93916666Y-102876666D01*
X94250000Y-102876666D01*
X94550000Y-103576666D02*
X94550000Y-102876666D01*
X94716666Y-102876666D01*
X94816666Y-102910000D01*
X94883333Y-102976666D01*
X94916666Y-103043333D01*
X94950000Y-103176666D01*
X94950000Y-103276666D01*
X94916666Y-103410000D01*
X94883333Y-103476666D01*
X94816666Y-103543333D01*
X94716666Y-103576666D01*
X94550000Y-103576666D01*
D10*
X62880000Y-96071428D02*
X62680000Y-95785714D01*
X62537142Y-96071428D02*
X62537142Y-95471428D01*
X62765714Y-95471428D01*
X62822857Y-95500000D01*
X62851428Y-95528571D01*
X62880000Y-95585714D01*
X62880000Y-95671428D01*
X62851428Y-95728571D01*
X62822857Y-95757142D01*
X62765714Y-95785714D01*
X62537142Y-95785714D01*
X63080000Y-95471428D02*
X63451428Y-95471428D01*
X63251428Y-95700000D01*
X63337142Y-95700000D01*
X63394285Y-95728571D01*
X63422857Y-95757142D01*
X63451428Y-95814285D01*
X63451428Y-95957142D01*
X63422857Y-96014285D01*
X63394285Y-96042857D01*
X63337142Y-96071428D01*
X63165714Y-96071428D01*
X63108571Y-96042857D01*
X63080000Y-96014285D01*
X62830000Y-93381428D02*
X62630000Y-93095714D01*
X62487142Y-93381428D02*
X62487142Y-92781428D01*
X62715714Y-92781428D01*
X62772857Y-92810000D01*
X62801428Y-92838571D01*
X62830000Y-92895714D01*
X62830000Y-92981428D01*
X62801428Y-93038571D01*
X62772857Y-93067142D01*
X62715714Y-93095714D01*
X62487142Y-93095714D01*
X63344285Y-92781428D02*
X63230000Y-92781428D01*
X63172857Y-92810000D01*
X63144285Y-92838571D01*
X63087142Y-92924285D01*
X63058571Y-93038571D01*
X63058571Y-93267142D01*
X63087142Y-93324285D01*
X63115714Y-93352857D01*
X63172857Y-93381428D01*
X63287142Y-93381428D01*
X63344285Y-93352857D01*
X63372857Y-93324285D01*
X63401428Y-93267142D01*
X63401428Y-93124285D01*
X63372857Y-93067142D01*
X63344285Y-93038571D01*
X63287142Y-93010000D01*
X63172857Y-93010000D01*
X63115714Y-93038571D01*
X63087142Y-93067142D01*
X63058571Y-93124285D01*
X68552857Y-93161428D02*
X68552857Y-93647142D01*
X68581428Y-93704285D01*
X68610000Y-93732857D01*
X68667142Y-93761428D01*
X68781428Y-93761428D01*
X68838571Y-93732857D01*
X68867142Y-93704285D01*
X68895714Y-93647142D01*
X68895714Y-93161428D01*
X69152857Y-93218571D02*
X69181428Y-93190000D01*
X69238571Y-93161428D01*
X69381428Y-93161428D01*
X69438571Y-93190000D01*
X69467142Y-93218571D01*
X69495714Y-93275714D01*
X69495714Y-93332857D01*
X69467142Y-93418571D01*
X69124285Y-93761428D01*
X69495714Y-93761428D01*
X70898571Y-93191428D02*
X71298571Y-93191428D01*
X71041428Y-93791428D01*
X71784285Y-93391428D02*
X71784285Y-93791428D01*
X71641428Y-93162857D02*
X71498571Y-93591428D01*
X71870000Y-93591428D01*
X72384285Y-93791428D02*
X72098571Y-93791428D01*
X72098571Y-93191428D01*
X72555714Y-93762857D02*
X72641428Y-93791428D01*
X72784285Y-93791428D01*
X72841428Y-93762857D01*
X72870000Y-93734285D01*
X72898571Y-93677142D01*
X72898571Y-93620000D01*
X72870000Y-93562857D01*
X72841428Y-93534285D01*
X72784285Y-93505714D01*
X72670000Y-93477142D01*
X72612857Y-93448571D01*
X72584285Y-93420000D01*
X72555714Y-93362857D01*
X72555714Y-93305714D01*
X72584285Y-93248571D01*
X72612857Y-93220000D01*
X72670000Y-93191428D01*
X72812857Y-93191428D01*
X72898571Y-93220000D01*
X73127142Y-93248571D02*
X73155714Y-93220000D01*
X73212857Y-93191428D01*
X73355714Y-93191428D01*
X73412857Y-93220000D01*
X73441428Y-93248571D01*
X73470000Y-93305714D01*
X73470000Y-93362857D01*
X73441428Y-93448571D01*
X73098571Y-93791428D01*
X73470000Y-93791428D01*
X74012857Y-93191428D02*
X73727142Y-93191428D01*
X73698571Y-93477142D01*
X73727142Y-93448571D01*
X73784285Y-93420000D01*
X73927142Y-93420000D01*
X73984285Y-93448571D01*
X74012857Y-93477142D01*
X74041428Y-93534285D01*
X74041428Y-93677142D01*
X74012857Y-93734285D01*
X73984285Y-93762857D01*
X73927142Y-93791428D01*
X73784285Y-93791428D01*
X73727142Y-93762857D01*
X73698571Y-93734285D01*
X74241428Y-93191428D02*
X74641428Y-93191428D01*
X74384285Y-93791428D01*
X82642857Y-83451428D02*
X82642857Y-83937142D01*
X82671428Y-83994285D01*
X82700000Y-84022857D01*
X82757142Y-84051428D01*
X82871428Y-84051428D01*
X82928571Y-84022857D01*
X82957142Y-83994285D01*
X82985714Y-83937142D01*
X82985714Y-83451428D01*
X83585714Y-84051428D02*
X83242857Y-84051428D01*
X83414285Y-84051428D02*
X83414285Y-83451428D01*
X83357142Y-83537142D01*
X83300000Y-83594285D01*
X83242857Y-83622857D01*
X80040000Y-84850000D02*
X80325714Y-84850000D01*
X79982857Y-85021428D02*
X80182857Y-84421428D01*
X80382857Y-85021428D01*
X80582857Y-85021428D02*
X80582857Y-84421428D01*
X80782857Y-84850000D01*
X80982857Y-84421428D01*
X80982857Y-85021428D01*
X81240000Y-84992857D02*
X81325714Y-85021428D01*
X81468571Y-85021428D01*
X81525714Y-84992857D01*
X81554285Y-84964285D01*
X81582857Y-84907142D01*
X81582857Y-84850000D01*
X81554285Y-84792857D01*
X81525714Y-84764285D01*
X81468571Y-84735714D01*
X81354285Y-84707142D01*
X81297142Y-84678571D01*
X81268571Y-84650000D01*
X81240000Y-84592857D01*
X81240000Y-84535714D01*
X81268571Y-84478571D01*
X81297142Y-84450000D01*
X81354285Y-84421428D01*
X81497142Y-84421428D01*
X81582857Y-84450000D01*
X82154285Y-85021428D02*
X81811428Y-85021428D01*
X81982857Y-85021428D02*
X81982857Y-84421428D01*
X81925714Y-84507142D01*
X81868571Y-84564285D01*
X81811428Y-84592857D01*
X82725714Y-85021428D02*
X82382857Y-85021428D01*
X82554285Y-85021428D02*
X82554285Y-84421428D01*
X82497142Y-84507142D01*
X82440000Y-84564285D01*
X82382857Y-84592857D01*
X83297142Y-85021428D02*
X82954285Y-85021428D01*
X83125714Y-85021428D02*
X83125714Y-84421428D01*
X83068571Y-84507142D01*
X83011428Y-84564285D01*
X82954285Y-84592857D01*
X83497142Y-84421428D02*
X83897142Y-84421428D01*
X83640000Y-85021428D01*
X84125714Y-84792857D02*
X84582857Y-84792857D01*
X84811428Y-84421428D02*
X85182857Y-84421428D01*
X84982857Y-84650000D01*
X85068571Y-84650000D01*
X85125714Y-84678571D01*
X85154285Y-84707142D01*
X85182857Y-84764285D01*
X85182857Y-84907142D01*
X85154285Y-84964285D01*
X85125714Y-84992857D01*
X85068571Y-85021428D01*
X84897142Y-85021428D01*
X84840000Y-84992857D01*
X84811428Y-84964285D01*
X85440000Y-84964285D02*
X85468571Y-84992857D01*
X85440000Y-85021428D01*
X85411428Y-84992857D01*
X85440000Y-84964285D01*
X85440000Y-85021428D01*
X85668571Y-84421428D02*
X86040000Y-84421428D01*
X85840000Y-84650000D01*
X85925714Y-84650000D01*
X85982857Y-84678571D01*
X86011428Y-84707142D01*
X86040000Y-84764285D01*
X86040000Y-84907142D01*
X86011428Y-84964285D01*
X85982857Y-84992857D01*
X85925714Y-85021428D01*
X85754285Y-85021428D01*
X85697142Y-84992857D01*
X85668571Y-84964285D01*
X80960000Y-92324285D02*
X80931428Y-92352857D01*
X80845714Y-92381428D01*
X80788571Y-92381428D01*
X80702857Y-92352857D01*
X80645714Y-92295714D01*
X80617142Y-92238571D01*
X80588571Y-92124285D01*
X80588571Y-92038571D01*
X80617142Y-91924285D01*
X80645714Y-91867142D01*
X80702857Y-91810000D01*
X80788571Y-91781428D01*
X80845714Y-91781428D01*
X80931428Y-91810000D01*
X80960000Y-91838571D01*
X81188571Y-91838571D02*
X81217142Y-91810000D01*
X81274285Y-91781428D01*
X81417142Y-91781428D01*
X81474285Y-91810000D01*
X81502857Y-91838571D01*
X81531428Y-91895714D01*
X81531428Y-91952857D01*
X81502857Y-92038571D01*
X81160000Y-92381428D01*
X81531428Y-92381428D01*
X84970000Y-92334285D02*
X84941428Y-92362857D01*
X84855714Y-92391428D01*
X84798571Y-92391428D01*
X84712857Y-92362857D01*
X84655714Y-92305714D01*
X84627142Y-92248571D01*
X84598571Y-92134285D01*
X84598571Y-92048571D01*
X84627142Y-91934285D01*
X84655714Y-91877142D01*
X84712857Y-91820000D01*
X84798571Y-91791428D01*
X84855714Y-91791428D01*
X84941428Y-91820000D01*
X84970000Y-91848571D01*
X85541428Y-92391428D02*
X85198571Y-92391428D01*
X85370000Y-92391428D02*
X85370000Y-91791428D01*
X85312857Y-91877142D01*
X85255714Y-91934285D01*
X85198571Y-91962857D01*
X65390000Y-84292857D02*
X65475714Y-84321428D01*
X65618571Y-84321428D01*
X65675714Y-84292857D01*
X65704285Y-84264285D01*
X65732857Y-84207142D01*
X65732857Y-84150000D01*
X65704285Y-84092857D01*
X65675714Y-84064285D01*
X65618571Y-84035714D01*
X65504285Y-84007142D01*
X65447142Y-83978571D01*
X65418571Y-83950000D01*
X65390000Y-83892857D01*
X65390000Y-83835714D01*
X65418571Y-83778571D01*
X65447142Y-83750000D01*
X65504285Y-83721428D01*
X65647142Y-83721428D01*
X65732857Y-83750000D01*
X65932857Y-83721428D02*
X66075714Y-84321428D01*
X66190000Y-83892857D01*
X66304285Y-84321428D01*
X66447142Y-83721428D01*
X66990000Y-84321428D02*
X66647142Y-84321428D01*
X66818571Y-84321428D02*
X66818571Y-83721428D01*
X66761428Y-83807142D01*
X66704285Y-83864285D01*
X66647142Y-83892857D01*
D11*
X64416666Y-87966666D02*
X64583333Y-88666666D01*
X64716666Y-88166666D01*
X64850000Y-88666666D01*
X65016666Y-87966666D01*
X65283333Y-88666666D02*
X65283333Y-88200000D01*
X65283333Y-87966666D02*
X65250000Y-88000000D01*
X65283333Y-88033333D01*
X65316666Y-88000000D01*
X65283333Y-87966666D01*
X65283333Y-88033333D01*
X65850000Y-88300000D02*
X65616666Y-88300000D01*
X65616666Y-88666666D02*
X65616666Y-87966666D01*
X65950000Y-87966666D01*
X66216666Y-88666666D02*
X66216666Y-88200000D01*
X66216666Y-87966666D02*
X66183333Y-88000000D01*
X66216666Y-88033333D01*
X66250000Y-88000000D01*
X66216666Y-87966666D01*
X66216666Y-88033333D01*
X67083333Y-88300000D02*
X67316666Y-88300000D01*
X67416666Y-88666666D02*
X67083333Y-88666666D01*
X67083333Y-87966666D01*
X67416666Y-87966666D01*
X67716666Y-88666666D02*
X67716666Y-87966666D01*
X68116666Y-88666666D01*
X68116666Y-87966666D01*
D10*
X81540000Y-96587142D02*
X81340000Y-96587142D01*
X81340000Y-96901428D02*
X81340000Y-96301428D01*
X81625714Y-96301428D01*
X82168571Y-96901428D02*
X81825714Y-96901428D01*
X81997142Y-96901428D02*
X81997142Y-96301428D01*
X81940000Y-96387142D01*
X81882857Y-96444285D01*
X81825714Y-96472857D01*
X66150000Y-95784285D02*
X66121428Y-95812857D01*
X66035714Y-95841428D01*
X65978571Y-95841428D01*
X65892857Y-95812857D01*
X65835714Y-95755714D01*
X65807142Y-95698571D01*
X65778571Y-95584285D01*
X65778571Y-95498571D01*
X65807142Y-95384285D01*
X65835714Y-95327142D01*
X65892857Y-95270000D01*
X65978571Y-95241428D01*
X66035714Y-95241428D01*
X66121428Y-95270000D01*
X66150000Y-95298571D01*
X66350000Y-95241428D02*
X66721428Y-95241428D01*
X66521428Y-95470000D01*
X66607142Y-95470000D01*
X66664285Y-95498571D01*
X66692857Y-95527142D01*
X66721428Y-95584285D01*
X66721428Y-95727142D01*
X66692857Y-95784285D01*
X66664285Y-95812857D01*
X66607142Y-95841428D01*
X66435714Y-95841428D01*
X66378571Y-95812857D01*
X66350000Y-95784285D01*
X63267142Y-99571428D02*
X63267142Y-98971428D01*
X63410000Y-98971428D01*
X63495714Y-99000000D01*
X63552857Y-99057142D01*
X63581428Y-99114285D01*
X63610000Y-99228571D01*
X63610000Y-99314285D01*
X63581428Y-99428571D01*
X63552857Y-99485714D01*
X63495714Y-99542857D01*
X63410000Y-99571428D01*
X63267142Y-99571428D01*
X64181428Y-99571428D02*
X63838571Y-99571428D01*
X64010000Y-99571428D02*
X64010000Y-98971428D01*
X63952857Y-99057142D01*
X63895714Y-99114285D01*
X63838571Y-99142857D01*
X77867142Y-101861428D02*
X77867142Y-101261428D01*
X78010000Y-101261428D01*
X78095714Y-101290000D01*
X78152857Y-101347142D01*
X78181428Y-101404285D01*
X78210000Y-101518571D01*
X78210000Y-101604285D01*
X78181428Y-101718571D01*
X78152857Y-101775714D01*
X78095714Y-101832857D01*
X78010000Y-101861428D01*
X77867142Y-101861428D01*
X78438571Y-101318571D02*
X78467142Y-101290000D01*
X78524285Y-101261428D01*
X78667142Y-101261428D01*
X78724285Y-101290000D01*
X78752857Y-101318571D01*
X78781428Y-101375714D01*
X78781428Y-101432857D01*
X78752857Y-101518571D01*
X78410000Y-101861428D01*
X78781428Y-101861428D01*
X82690000Y-103534285D02*
X82661428Y-103562857D01*
X82575714Y-103591428D01*
X82518571Y-103591428D01*
X82432857Y-103562857D01*
X82375714Y-103505714D01*
X82347142Y-103448571D01*
X82318571Y-103334285D01*
X82318571Y-103248571D01*
X82347142Y-103134285D01*
X82375714Y-103077142D01*
X82432857Y-103020000D01*
X82518571Y-102991428D01*
X82575714Y-102991428D01*
X82661428Y-103020000D01*
X82690000Y-103048571D01*
X83204285Y-103191428D02*
X83204285Y-103591428D01*
X83061428Y-102962857D02*
X82918571Y-103391428D01*
X83290000Y-103391428D01*
X86862857Y-99088571D02*
X86805714Y-99060000D01*
X86748571Y-99002857D01*
X86662857Y-98917142D01*
X86605714Y-98888571D01*
X86548571Y-98888571D01*
X86577142Y-99031428D02*
X86520000Y-99002857D01*
X86462857Y-98945714D01*
X86434285Y-98831428D01*
X86434285Y-98631428D01*
X86462857Y-98517142D01*
X86520000Y-98460000D01*
X86577142Y-98431428D01*
X86691428Y-98431428D01*
X86748571Y-98460000D01*
X86805714Y-98517142D01*
X86834285Y-98631428D01*
X86834285Y-98831428D01*
X86805714Y-98945714D01*
X86748571Y-99002857D01*
X86691428Y-99031428D01*
X86577142Y-99031428D01*
X87405714Y-99031428D02*
X87062857Y-99031428D01*
X87234285Y-99031428D02*
X87234285Y-98431428D01*
X87177142Y-98517142D01*
X87120000Y-98574285D01*
X87062857Y-98602857D01*
X86824285Y-103461428D02*
X86624285Y-103175714D01*
X86481428Y-103461428D02*
X86481428Y-102861428D01*
X86710000Y-102861428D01*
X86767142Y-102890000D01*
X86795714Y-102918571D01*
X86824285Y-102975714D01*
X86824285Y-103061428D01*
X86795714Y-103118571D01*
X86767142Y-103147142D01*
X86710000Y-103175714D01*
X86481428Y-103175714D01*
X87395714Y-103461428D02*
X87052857Y-103461428D01*
X87224285Y-103461428D02*
X87224285Y-102861428D01*
X87167142Y-102947142D01*
X87110000Y-103004285D01*
X87052857Y-103032857D01*
X87767142Y-102861428D02*
X87824285Y-102861428D01*
X87881428Y-102890000D01*
X87910000Y-102918571D01*
X87938571Y-102975714D01*
X87967142Y-103090000D01*
X87967142Y-103232857D01*
X87938571Y-103347142D01*
X87910000Y-103404285D01*
X87881428Y-103432857D01*
X87824285Y-103461428D01*
X87767142Y-103461428D01*
X87710000Y-103432857D01*
X87681428Y-103404285D01*
X87652857Y-103347142D01*
X87624285Y-103232857D01*
X87624285Y-103090000D01*
X87652857Y-102975714D01*
X87681428Y-102918571D01*
X87710000Y-102890000D01*
X87767142Y-102861428D01*
X82464285Y-100941428D02*
X82264285Y-100655714D01*
X82121428Y-100941428D02*
X82121428Y-100341428D01*
X82350000Y-100341428D01*
X82407142Y-100370000D01*
X82435714Y-100398571D01*
X82464285Y-100455714D01*
X82464285Y-100541428D01*
X82435714Y-100598571D01*
X82407142Y-100627142D01*
X82350000Y-100655714D01*
X82121428Y-100655714D01*
X83035714Y-100941428D02*
X82692857Y-100941428D01*
X82864285Y-100941428D02*
X82864285Y-100341428D01*
X82807142Y-100427142D01*
X82750000Y-100484285D01*
X82692857Y-100512857D01*
X83578571Y-100341428D02*
X83292857Y-100341428D01*
X83264285Y-100627142D01*
X83292857Y-100598571D01*
X83350000Y-100570000D01*
X83492857Y-100570000D01*
X83550000Y-100598571D01*
X83578571Y-100627142D01*
X83607142Y-100684285D01*
X83607142Y-100827142D01*
X83578571Y-100884285D01*
X83550000Y-100912857D01*
X83492857Y-100941428D01*
X83350000Y-100941428D01*
X83292857Y-100912857D01*
X83264285Y-100884285D01*
X73214285Y-101281428D02*
X73014285Y-100995714D01*
X72871428Y-101281428D02*
X72871428Y-100681428D01*
X73100000Y-100681428D01*
X73157142Y-100710000D01*
X73185714Y-100738571D01*
X73214285Y-100795714D01*
X73214285Y-100881428D01*
X73185714Y-100938571D01*
X73157142Y-100967142D01*
X73100000Y-100995714D01*
X72871428Y-100995714D01*
X73785714Y-101281428D02*
X73442857Y-101281428D01*
X73614285Y-101281428D02*
X73614285Y-100681428D01*
X73557142Y-100767142D01*
X73500000Y-100824285D01*
X73442857Y-100852857D01*
X74300000Y-100681428D02*
X74185714Y-100681428D01*
X74128571Y-100710000D01*
X74100000Y-100738571D01*
X74042857Y-100824285D01*
X74014285Y-100938571D01*
X74014285Y-101167142D01*
X74042857Y-101224285D01*
X74071428Y-101252857D01*
X74128571Y-101281428D01*
X74242857Y-101281428D01*
X74300000Y-101252857D01*
X74328571Y-101224285D01*
X74357142Y-101167142D01*
X74357142Y-101024285D01*
X74328571Y-100967142D01*
X74300000Y-100938571D01*
X74242857Y-100910000D01*
X74128571Y-100910000D01*
X74071428Y-100938571D01*
X74042857Y-100967142D01*
X74014285Y-101024285D01*
X65164285Y-106351428D02*
X64964285Y-106065714D01*
X64821428Y-106351428D02*
X64821428Y-105751428D01*
X65050000Y-105751428D01*
X65107142Y-105780000D01*
X65135714Y-105808571D01*
X65164285Y-105865714D01*
X65164285Y-105951428D01*
X65135714Y-106008571D01*
X65107142Y-106037142D01*
X65050000Y-106065714D01*
X64821428Y-106065714D01*
X65392857Y-105808571D02*
X65421428Y-105780000D01*
X65478571Y-105751428D01*
X65621428Y-105751428D01*
X65678571Y-105780000D01*
X65707142Y-105808571D01*
X65735714Y-105865714D01*
X65735714Y-105922857D01*
X65707142Y-106008571D01*
X65364285Y-106351428D01*
X65735714Y-106351428D01*
X66307142Y-106351428D02*
X65964285Y-106351428D01*
X66135714Y-106351428D02*
X66135714Y-105751428D01*
X66078571Y-105837142D01*
X66021428Y-105894285D01*
X65964285Y-105922857D01*
X52610000Y-98511428D02*
X52610000Y-97911428D01*
X52610000Y-98197142D02*
X52952857Y-98197142D01*
X52952857Y-98511428D02*
X52952857Y-97911428D01*
X53324285Y-98511428D02*
X53267142Y-98482857D01*
X53238571Y-98454285D01*
X53210000Y-98397142D01*
X53210000Y-98225714D01*
X53238571Y-98168571D01*
X53267142Y-98140000D01*
X53324285Y-98111428D01*
X53410000Y-98111428D01*
X53467142Y-98140000D01*
X53495714Y-98168571D01*
X53524285Y-98225714D01*
X53524285Y-98397142D01*
X53495714Y-98454285D01*
X53467142Y-98482857D01*
X53410000Y-98511428D01*
X53324285Y-98511428D01*
X53752857Y-98482857D02*
X53810000Y-98511428D01*
X53924285Y-98511428D01*
X53981428Y-98482857D01*
X54010000Y-98425714D01*
X54010000Y-98397142D01*
X53981428Y-98340000D01*
X53924285Y-98311428D01*
X53838571Y-98311428D01*
X53781428Y-98282857D01*
X53752857Y-98225714D01*
X53752857Y-98197142D01*
X53781428Y-98140000D01*
X53838571Y-98111428D01*
X53924285Y-98111428D01*
X53981428Y-98140000D01*
X54181428Y-98111428D02*
X54410000Y-98111428D01*
X54267142Y-97911428D02*
X54267142Y-98425714D01*
X54295714Y-98482857D01*
X54352857Y-98511428D01*
X54410000Y-98511428D01*
X55067142Y-98511428D02*
X55067142Y-97911428D01*
X55781428Y-97882857D02*
X55267142Y-98654285D01*
X56181428Y-98197142D02*
X55981428Y-98197142D01*
X55981428Y-98511428D02*
X55981428Y-97911428D01*
X56267142Y-97911428D01*
X68784285Y-106361428D02*
X68584285Y-106075714D01*
X68441428Y-106361428D02*
X68441428Y-105761428D01*
X68670000Y-105761428D01*
X68727142Y-105790000D01*
X68755714Y-105818571D01*
X68784285Y-105875714D01*
X68784285Y-105961428D01*
X68755714Y-106018571D01*
X68727142Y-106047142D01*
X68670000Y-106075714D01*
X68441428Y-106075714D01*
X69012857Y-105818571D02*
X69041428Y-105790000D01*
X69098571Y-105761428D01*
X69241428Y-105761428D01*
X69298571Y-105790000D01*
X69327142Y-105818571D01*
X69355714Y-105875714D01*
X69355714Y-105932857D01*
X69327142Y-106018571D01*
X68984285Y-106361428D01*
X69355714Y-106361428D01*
X69727142Y-105761428D02*
X69784285Y-105761428D01*
X69841428Y-105790000D01*
X69870000Y-105818571D01*
X69898571Y-105875714D01*
X69927142Y-105990000D01*
X69927142Y-106132857D01*
X69898571Y-106247142D01*
X69870000Y-106304285D01*
X69841428Y-106332857D01*
X69784285Y-106361428D01*
X69727142Y-106361428D01*
X69670000Y-106332857D01*
X69641428Y-106304285D01*
X69612857Y-106247142D01*
X69584285Y-106132857D01*
X69584285Y-105990000D01*
X69612857Y-105875714D01*
X69641428Y-105818571D01*
X69670000Y-105790000D01*
X69727142Y-105761428D01*
D13*
X74154232Y-85999916D02*
X74137878Y-86133188D01*
X74137878Y-86133188D02*
X74131503Y-86143790D01*
X74131503Y-86143790D02*
X74081774Y-86323457D01*
X74081774Y-86323457D02*
X74084935Y-86405167D01*
X74084935Y-86405167D02*
X74061229Y-86526445D01*
X74061229Y-86526445D02*
X73950270Y-86530469D01*
X73950270Y-86530469D02*
X73781925Y-86422287D01*
X73781925Y-86422287D02*
X73696500Y-86339514D01*
X73696500Y-86339514D02*
X73543024Y-86146609D01*
X73543024Y-86146609D02*
X73532188Y-86027908D01*
X73532188Y-86027908D02*
X73669190Y-85958708D01*
X73669190Y-85958708D02*
X73781167Y-85937024D01*
X73781167Y-85937024D02*
X74029212Y-85930919D01*
X74029212Y-85930919D02*
X74154232Y-85999916D01*
X74154232Y-85999916D02*
X74154232Y-85999916D01*
G36*
X74154232Y-85999916D02*
G01*
X74137878Y-86133188D01*
X74131503Y-86143790D01*
X74081774Y-86323457D01*
X74084935Y-86405167D01*
X74061229Y-86526445D01*
X73950270Y-86530469D01*
X73781925Y-86422287D01*
X73696500Y-86339514D01*
X73543024Y-86146609D01*
X73532188Y-86027908D01*
X73669190Y-85958708D01*
X73781167Y-85937024D01*
X74029212Y-85930919D01*
X74154232Y-85999916D01*
G37*
X74154232Y-85999916D02*
X74137878Y-86133188D01*
X74131503Y-86143790D01*
X74081774Y-86323457D01*
X74084935Y-86405167D01*
X74061229Y-86526445D01*
X73950270Y-86530469D01*
X73781925Y-86422287D01*
X73696500Y-86339514D01*
X73543024Y-86146609D01*
X73532188Y-86027908D01*
X73669190Y-85958708D01*
X73781167Y-85937024D01*
X74029212Y-85930919D01*
X74154232Y-85999916D01*
X72293289Y-85702326D02*
X72370943Y-85890780D01*
X72370943Y-85890780D02*
X72366138Y-86025354D01*
X72366138Y-86025354D02*
X72360284Y-86163532D01*
X72360284Y-86163532D02*
X72392198Y-86394102D01*
X72392198Y-86394102D02*
X72449603Y-86666503D01*
X72449603Y-86666503D02*
X72520224Y-86930174D01*
X72520224Y-86930174D02*
X72591784Y-87134552D01*
X72591784Y-87134552D02*
X72652008Y-87229078D01*
X72652008Y-87229078D02*
X72658777Y-87230667D01*
X72658777Y-87230667D02*
X72787274Y-87160289D01*
X72787274Y-87160289D02*
X72908671Y-86997325D01*
X72908671Y-86997325D02*
X72963805Y-86849667D01*
X72963805Y-86849667D02*
X73336667Y-86849667D01*
X73336667Y-86849667D02*
X73379000Y-86892000D01*
X73379000Y-86892000D02*
X73421334Y-86849667D01*
X73421334Y-86849667D02*
X73379000Y-86807334D01*
X73379000Y-86807334D02*
X73336667Y-86849667D01*
X73336667Y-86849667D02*
X72963805Y-86849667D01*
X72963805Y-86849667D02*
X72977114Y-86814025D01*
X72977114Y-86814025D02*
X72975719Y-86731273D01*
X72975719Y-86731273D02*
X72985617Y-86638000D01*
X72985617Y-86638000D02*
X73167334Y-86638000D01*
X73167334Y-86638000D02*
X73196220Y-86720466D01*
X73196220Y-86720466D02*
X73204670Y-86722667D01*
X73204670Y-86722667D02*
X73276956Y-86663338D01*
X73276956Y-86663338D02*
X73294334Y-86638000D01*
X73294334Y-86638000D02*
X73289138Y-86577603D01*
X73289138Y-86577603D02*
X73519648Y-86577603D01*
X73519648Y-86577603D02*
X73540249Y-86624918D01*
X73540249Y-86624918D02*
X73625499Y-86715812D01*
X73625499Y-86715812D02*
X73674509Y-86697166D01*
X73674509Y-86697166D02*
X73675334Y-86685330D01*
X73675334Y-86685330D02*
X73615197Y-86613718D01*
X73615197Y-86613718D02*
X73577585Y-86587582D01*
X73577585Y-86587582D02*
X73519648Y-86577603D01*
X73519648Y-86577603D02*
X73289138Y-86577603D01*
X73289138Y-86577603D02*
X73287621Y-86559981D01*
X73287621Y-86559981D02*
X73256997Y-86553334D01*
X73256997Y-86553334D02*
X73170779Y-86614794D01*
X73170779Y-86614794D02*
X73167334Y-86638000D01*
X73167334Y-86638000D02*
X72985617Y-86638000D01*
X72985617Y-86638000D02*
X72995644Y-86543520D01*
X72995644Y-86543520D02*
X73114365Y-86371847D01*
X73114365Y-86371847D02*
X73281038Y-86271099D01*
X73281038Y-86271099D02*
X73400773Y-86272759D01*
X73400773Y-86272759D02*
X73660170Y-86418162D01*
X73660170Y-86418162D02*
X73775822Y-86604449D01*
X73775822Y-86604449D02*
X73738936Y-86805944D01*
X73738936Y-86805944D02*
X73627308Y-86934334D01*
X73627308Y-86934334D02*
X73557352Y-87063931D01*
X73557352Y-87063931D02*
X73495777Y-87295103D01*
X73495777Y-87295103D02*
X73475426Y-87421808D01*
X73475426Y-87421808D02*
X73410256Y-87722464D01*
X73410256Y-87722464D02*
X73305971Y-87990829D01*
X73305971Y-87990829D02*
X73184853Y-88180788D01*
X73184853Y-88180788D02*
X73076867Y-88246667D01*
X73076867Y-88246667D02*
X73065880Y-88309525D01*
X73065880Y-88309525D02*
X73131139Y-88463944D01*
X73131139Y-88463944D02*
X73148515Y-88495201D01*
X73148515Y-88495201D02*
X73216206Y-88666176D01*
X73216206Y-88666176D02*
X73223212Y-88798144D01*
X73223212Y-88798144D02*
X73180360Y-88850964D01*
X73180360Y-88850964D02*
X73098475Y-88784498D01*
X73098475Y-88784498D02*
X73078729Y-88753962D01*
X73078729Y-88753962D02*
X72940158Y-88532796D01*
X72940158Y-88532796D02*
X72853474Y-88433710D01*
X72853474Y-88433710D02*
X72787936Y-88430982D01*
X72787936Y-88430982D02*
X72740149Y-88470652D01*
X72740149Y-88470652D02*
X72690922Y-88575320D01*
X72690922Y-88575320D02*
X72736623Y-88623107D01*
X72736623Y-88623107D02*
X72807233Y-88730489D01*
X72807233Y-88730489D02*
X72826440Y-88880789D01*
X72826440Y-88880789D02*
X72790627Y-88992584D01*
X72790627Y-88992584D02*
X72753738Y-89008667D01*
X72753738Y-89008667D02*
X72658533Y-88944953D01*
X72658533Y-88944953D02*
X72540119Y-88797000D01*
X72540119Y-88797000D02*
X72407606Y-88652472D01*
X72407606Y-88652472D02*
X72275847Y-88585741D01*
X72275847Y-88585741D02*
X72188157Y-88604755D01*
X72188157Y-88604755D02*
X72187855Y-88717462D01*
X72187855Y-88717462D02*
X72194014Y-88733500D01*
X72194014Y-88733500D02*
X72262722Y-88987595D01*
X72262722Y-88987595D02*
X72218712Y-89131367D01*
X72218712Y-89131367D02*
X72184094Y-89150912D01*
X72184094Y-89150912D02*
X72090937Y-89105438D01*
X72090937Y-89105438D02*
X71992773Y-88949604D01*
X71992773Y-88949604D02*
X71986879Y-88935778D01*
X71986879Y-88935778D02*
X71878526Y-88770919D01*
X71878526Y-88770919D02*
X71737242Y-88661874D01*
X71737242Y-88661874D02*
X71604726Y-88622116D01*
X71604726Y-88622116D02*
X71522679Y-88665117D01*
X71522679Y-88665117D02*
X71526915Y-88787172D01*
X71526915Y-88787172D02*
X71586756Y-89050363D01*
X71586756Y-89050363D02*
X71553075Y-89195537D01*
X71553075Y-89195537D02*
X71464294Y-89242257D01*
X71464294Y-89242257D02*
X71363492Y-89213155D01*
X71363492Y-89213155D02*
X71297190Y-89055719D01*
X71297190Y-89055719D02*
X71273734Y-88933882D01*
X71273734Y-88933882D02*
X71214745Y-88702339D01*
X71214745Y-88702339D02*
X71115953Y-88594145D01*
X71115953Y-88594145D02*
X71029440Y-88570048D01*
X71029440Y-88570048D02*
X70906311Y-88524967D01*
X70906311Y-88524967D02*
X70842237Y-88403995D01*
X70842237Y-88403995D02*
X70812263Y-88168791D01*
X70812263Y-88168791D02*
X70806979Y-87885785D01*
X70806979Y-87885785D02*
X70826703Y-87641036D01*
X70826703Y-87641036D02*
X70836769Y-87590414D01*
X70836769Y-87590414D02*
X70867557Y-87512889D01*
X70867557Y-87512889D02*
X72179556Y-87512889D01*
X72179556Y-87512889D02*
X72191178Y-87563223D01*
X72191178Y-87563223D02*
X72236000Y-87569334D01*
X72236000Y-87569334D02*
X72305690Y-87538355D01*
X72305690Y-87538355D02*
X72292445Y-87512889D01*
X72292445Y-87512889D02*
X72191965Y-87502756D01*
X72191965Y-87502756D02*
X72179556Y-87512889D01*
X72179556Y-87512889D02*
X70867557Y-87512889D01*
X70867557Y-87512889D02*
X70888596Y-87459914D01*
X70888596Y-87459914D02*
X70990245Y-87416846D01*
X70990245Y-87416846D02*
X71197816Y-87438596D01*
X71197816Y-87438596D02*
X71208831Y-87440446D01*
X71208831Y-87440446D02*
X71480754Y-87453143D01*
X71480754Y-87453143D02*
X71529947Y-87428222D01*
X71529947Y-87428222D02*
X72433556Y-87428222D01*
X72433556Y-87428222D02*
X72445178Y-87478557D01*
X72445178Y-87478557D02*
X72490000Y-87484667D01*
X72490000Y-87484667D02*
X72559690Y-87453689D01*
X72559690Y-87453689D02*
X72546445Y-87428222D01*
X72546445Y-87428222D02*
X72445965Y-87418089D01*
X72445965Y-87418089D02*
X72433556Y-87428222D01*
X72433556Y-87428222D02*
X71529947Y-87428222D01*
X71529947Y-87428222D02*
X71595749Y-87394887D01*
X71595749Y-87394887D02*
X72805397Y-87394887D01*
X72805397Y-87394887D02*
X72913832Y-87362951D01*
X72913832Y-87362951D02*
X73094454Y-87237955D01*
X73094454Y-87237955D02*
X73214868Y-87106305D01*
X73214868Y-87106305D02*
X73230159Y-87011671D01*
X73230159Y-87011671D02*
X73228268Y-87009611D01*
X73228268Y-87009611D02*
X73133174Y-87020209D01*
X73133174Y-87020209D02*
X72979029Y-87128962D01*
X72979029Y-87128962D02*
X72933859Y-87171657D01*
X72933859Y-87171657D02*
X72805472Y-87328398D01*
X72805472Y-87328398D02*
X72805397Y-87394887D01*
X72805397Y-87394887D02*
X71595749Y-87394887D01*
X71595749Y-87394887D02*
X71617588Y-87383824D01*
X71617588Y-87383824D02*
X71702339Y-87230667D01*
X71702339Y-87230667D02*
X72066667Y-87230667D01*
X72066667Y-87230667D02*
X72131096Y-87312873D01*
X72131096Y-87312873D02*
X72151334Y-87315334D01*
X72151334Y-87315334D02*
X72233540Y-87250904D01*
X72233540Y-87250904D02*
X72236000Y-87230667D01*
X72236000Y-87230667D02*
X72171571Y-87148460D01*
X72171571Y-87148460D02*
X72151334Y-87146000D01*
X72151334Y-87146000D02*
X72069127Y-87210429D01*
X72069127Y-87210429D02*
X72066667Y-87230667D01*
X72066667Y-87230667D02*
X71702339Y-87230667D01*
X71702339Y-87230667D02*
X71713081Y-87211255D01*
X71713081Y-87211255D02*
X71738781Y-87146000D01*
X71738781Y-87146000D02*
X71897334Y-87146000D01*
X71897334Y-87146000D02*
X71928312Y-87215690D01*
X71928312Y-87215690D02*
X71953778Y-87202445D01*
X71953778Y-87202445D02*
X71963911Y-87101965D01*
X71963911Y-87101965D02*
X71953778Y-87089556D01*
X71953778Y-87089556D02*
X71903444Y-87101178D01*
X71903444Y-87101178D02*
X71897334Y-87146000D01*
X71897334Y-87146000D02*
X71738781Y-87146000D01*
X71738781Y-87146000D02*
X71788800Y-87019000D01*
X71788800Y-87019000D02*
X72151334Y-87019000D01*
X72151334Y-87019000D02*
X72193667Y-87061334D01*
X72193667Y-87061334D02*
X72236000Y-87019000D01*
X72236000Y-87019000D02*
X72193667Y-86976667D01*
X72193667Y-86976667D02*
X72151334Y-87019000D01*
X72151334Y-87019000D02*
X71788800Y-87019000D01*
X71788800Y-87019000D02*
X71818106Y-86944592D01*
X71818106Y-86944592D02*
X71821392Y-86934334D01*
X71821392Y-86934334D02*
X72320667Y-86934334D01*
X72320667Y-86934334D02*
X72363000Y-86976667D01*
X72363000Y-86976667D02*
X72405334Y-86934334D01*
X72405334Y-86934334D02*
X72363000Y-86892000D01*
X72363000Y-86892000D02*
X72320667Y-86934334D01*
X72320667Y-86934334D02*
X71821392Y-86934334D01*
X71821392Y-86934334D02*
X71862084Y-86807334D01*
X71862084Y-86807334D02*
X72151334Y-86807334D01*
X72151334Y-86807334D02*
X72182312Y-86877024D01*
X72182312Y-86877024D02*
X72207778Y-86863778D01*
X72207778Y-86863778D02*
X72217911Y-86763298D01*
X72217911Y-86763298D02*
X72207778Y-86750889D01*
X72207778Y-86750889D02*
X72157444Y-86762511D01*
X72157444Y-86762511D02*
X72151334Y-86807334D01*
X72151334Y-86807334D02*
X71862084Y-86807334D01*
X71862084Y-86807334D02*
X71916361Y-86637938D01*
X71916361Y-86637938D02*
X71991546Y-86345400D01*
X71991546Y-86345400D02*
X72027357Y-86121080D01*
X72027357Y-86121080D02*
X72022563Y-86039756D01*
X72022563Y-86039756D02*
X72021122Y-85843074D01*
X72021122Y-85843074D02*
X72069380Y-85701597D01*
X72069380Y-85701597D02*
X72166141Y-85520798D01*
X72166141Y-85520798D02*
X72293289Y-85702326D01*
X72293289Y-85702326D02*
X72293289Y-85702326D01*
G36*
X70990245Y-87416846D02*
G01*
X71197816Y-87438596D01*
X71208831Y-87440446D01*
X71480754Y-87453143D01*
X71529947Y-87428222D01*
X72433556Y-87428222D01*
X72445178Y-87478557D01*
X72490000Y-87484667D01*
X72559690Y-87453689D01*
X72546445Y-87428222D01*
X72445965Y-87418089D01*
X72433556Y-87428222D01*
X71529947Y-87428222D01*
X71595749Y-87394887D01*
X72805397Y-87394887D01*
X72913832Y-87362951D01*
X73094454Y-87237955D01*
X73214868Y-87106305D01*
X73230159Y-87011671D01*
X73228268Y-87009611D01*
X73133174Y-87020209D01*
X72979029Y-87128962D01*
X72933859Y-87171657D01*
X72805472Y-87328398D01*
X72805397Y-87394887D01*
X71595749Y-87394887D01*
X71617588Y-87383824D01*
X71702339Y-87230667D01*
X72066667Y-87230667D01*
X72131096Y-87312873D01*
X72151334Y-87315334D01*
X72233540Y-87250904D01*
X72236000Y-87230667D01*
X72171571Y-87148460D01*
X72151334Y-87146000D01*
X72069127Y-87210429D01*
X72066667Y-87230667D01*
X71702339Y-87230667D01*
X71713081Y-87211255D01*
X71738781Y-87146000D01*
X71897334Y-87146000D01*
X71928312Y-87215690D01*
X71953778Y-87202445D01*
X71963911Y-87101965D01*
X71953778Y-87089556D01*
X71903444Y-87101178D01*
X71897334Y-87146000D01*
X71738781Y-87146000D01*
X71788800Y-87019000D01*
X72151334Y-87019000D01*
X72193667Y-87061334D01*
X72236000Y-87019000D01*
X72193667Y-86976667D01*
X72151334Y-87019000D01*
X71788800Y-87019000D01*
X71818106Y-86944592D01*
X71821392Y-86934334D01*
X72320667Y-86934334D01*
X72363000Y-86976667D01*
X72405334Y-86934334D01*
X72363000Y-86892000D01*
X72320667Y-86934334D01*
X71821392Y-86934334D01*
X71862084Y-86807334D01*
X72151334Y-86807334D01*
X72182312Y-86877024D01*
X72207778Y-86863778D01*
X72217911Y-86763298D01*
X72207778Y-86750889D01*
X72157444Y-86762511D01*
X72151334Y-86807334D01*
X71862084Y-86807334D01*
X71916361Y-86637938D01*
X71991546Y-86345400D01*
X72027357Y-86121080D01*
X72022563Y-86039756D01*
X72021122Y-85843074D01*
X72069380Y-85701597D01*
X72166141Y-85520798D01*
X72293289Y-85702326D01*
X72370943Y-85890780D01*
X72366138Y-86025354D01*
X72360284Y-86163532D01*
X72392198Y-86394102D01*
X72449603Y-86666503D01*
X72520224Y-86930174D01*
X72591784Y-87134552D01*
X72652008Y-87229078D01*
X72658777Y-87230667D01*
X72787274Y-87160289D01*
X72908671Y-86997325D01*
X72963805Y-86849667D01*
X73336667Y-86849667D01*
X73379000Y-86892000D01*
X73421334Y-86849667D01*
X73379000Y-86807334D01*
X73336667Y-86849667D01*
X72963805Y-86849667D01*
X72977114Y-86814025D01*
X72975719Y-86731273D01*
X72985617Y-86638000D01*
X73167334Y-86638000D01*
X73196220Y-86720466D01*
X73204670Y-86722667D01*
X73276956Y-86663338D01*
X73294334Y-86638000D01*
X73289138Y-86577603D01*
X73519648Y-86577603D01*
X73540249Y-86624918D01*
X73625499Y-86715812D01*
X73674509Y-86697166D01*
X73675334Y-86685330D01*
X73615197Y-86613718D01*
X73577585Y-86587582D01*
X73519648Y-86577603D01*
X73289138Y-86577603D01*
X73287621Y-86559981D01*
X73256997Y-86553334D01*
X73170779Y-86614794D01*
X73167334Y-86638000D01*
X72985617Y-86638000D01*
X72995644Y-86543520D01*
X73114365Y-86371847D01*
X73281038Y-86271099D01*
X73400773Y-86272759D01*
X73660170Y-86418162D01*
X73775822Y-86604449D01*
X73738936Y-86805944D01*
X73627308Y-86934334D01*
X73557352Y-87063931D01*
X73495777Y-87295103D01*
X73475426Y-87421808D01*
X73410256Y-87722464D01*
X73305971Y-87990829D01*
X73184853Y-88180788D01*
X73076867Y-88246667D01*
X73065880Y-88309525D01*
X73131139Y-88463944D01*
X73148515Y-88495201D01*
X73216206Y-88666176D01*
X73223212Y-88798144D01*
X73180360Y-88850964D01*
X73098475Y-88784498D01*
X73078729Y-88753962D01*
X72940158Y-88532796D01*
X72853474Y-88433710D01*
X72787936Y-88430982D01*
X72740149Y-88470652D01*
X72690922Y-88575320D01*
X72736623Y-88623107D01*
X72807233Y-88730489D01*
X72826440Y-88880789D01*
X72790627Y-88992584D01*
X72753738Y-89008667D01*
X72658533Y-88944953D01*
X72540119Y-88797000D01*
X72407606Y-88652472D01*
X72275847Y-88585741D01*
X72188157Y-88604755D01*
X72187855Y-88717462D01*
X72194014Y-88733500D01*
X72262722Y-88987595D01*
X72218712Y-89131367D01*
X72184094Y-89150912D01*
X72090937Y-89105438D01*
X71992773Y-88949604D01*
X71986879Y-88935778D01*
X71878526Y-88770919D01*
X71737242Y-88661874D01*
X71604726Y-88622116D01*
X71522679Y-88665117D01*
X71526915Y-88787172D01*
X71586756Y-89050363D01*
X71553075Y-89195537D01*
X71464294Y-89242257D01*
X71363492Y-89213155D01*
X71297190Y-89055719D01*
X71273734Y-88933882D01*
X71214745Y-88702339D01*
X71115953Y-88594145D01*
X71029440Y-88570048D01*
X70906311Y-88524967D01*
X70842237Y-88403995D01*
X70812263Y-88168791D01*
X70806979Y-87885785D01*
X70826703Y-87641036D01*
X70836769Y-87590414D01*
X70867557Y-87512889D01*
X72179556Y-87512889D01*
X72191178Y-87563223D01*
X72236000Y-87569334D01*
X72305690Y-87538355D01*
X72292445Y-87512889D01*
X72191965Y-87502756D01*
X72179556Y-87512889D01*
X70867557Y-87512889D01*
X70888596Y-87459914D01*
X70990245Y-87416846D01*
G37*
X70990245Y-87416846D02*
X71197816Y-87438596D01*
X71208831Y-87440446D01*
X71480754Y-87453143D01*
X71529947Y-87428222D01*
X72433556Y-87428222D01*
X72445178Y-87478557D01*
X72490000Y-87484667D01*
X72559690Y-87453689D01*
X72546445Y-87428222D01*
X72445965Y-87418089D01*
X72433556Y-87428222D01*
X71529947Y-87428222D01*
X71595749Y-87394887D01*
X72805397Y-87394887D01*
X72913832Y-87362951D01*
X73094454Y-87237955D01*
X73214868Y-87106305D01*
X73230159Y-87011671D01*
X73228268Y-87009611D01*
X73133174Y-87020209D01*
X72979029Y-87128962D01*
X72933859Y-87171657D01*
X72805472Y-87328398D01*
X72805397Y-87394887D01*
X71595749Y-87394887D01*
X71617588Y-87383824D01*
X71702339Y-87230667D01*
X72066667Y-87230667D01*
X72131096Y-87312873D01*
X72151334Y-87315334D01*
X72233540Y-87250904D01*
X72236000Y-87230667D01*
X72171571Y-87148460D01*
X72151334Y-87146000D01*
X72069127Y-87210429D01*
X72066667Y-87230667D01*
X71702339Y-87230667D01*
X71713081Y-87211255D01*
X71738781Y-87146000D01*
X71897334Y-87146000D01*
X71928312Y-87215690D01*
X71953778Y-87202445D01*
X71963911Y-87101965D01*
X71953778Y-87089556D01*
X71903444Y-87101178D01*
X71897334Y-87146000D01*
X71738781Y-87146000D01*
X71788800Y-87019000D01*
X72151334Y-87019000D01*
X72193667Y-87061334D01*
X72236000Y-87019000D01*
X72193667Y-86976667D01*
X72151334Y-87019000D01*
X71788800Y-87019000D01*
X71818106Y-86944592D01*
X71821392Y-86934334D01*
X72320667Y-86934334D01*
X72363000Y-86976667D01*
X72405334Y-86934334D01*
X72363000Y-86892000D01*
X72320667Y-86934334D01*
X71821392Y-86934334D01*
X71862084Y-86807334D01*
X72151334Y-86807334D01*
X72182312Y-86877024D01*
X72207778Y-86863778D01*
X72217911Y-86763298D01*
X72207778Y-86750889D01*
X72157444Y-86762511D01*
X72151334Y-86807334D01*
X71862084Y-86807334D01*
X71916361Y-86637938D01*
X71991546Y-86345400D01*
X72027357Y-86121080D01*
X72022563Y-86039756D01*
X72021122Y-85843074D01*
X72069380Y-85701597D01*
X72166141Y-85520798D01*
X72293289Y-85702326D01*
X72370943Y-85890780D01*
X72366138Y-86025354D01*
X72360284Y-86163532D01*
X72392198Y-86394102D01*
X72449603Y-86666503D01*
X72520224Y-86930174D01*
X72591784Y-87134552D01*
X72652008Y-87229078D01*
X72658777Y-87230667D01*
X72787274Y-87160289D01*
X72908671Y-86997325D01*
X72963805Y-86849667D01*
X73336667Y-86849667D01*
X73379000Y-86892000D01*
X73421334Y-86849667D01*
X73379000Y-86807334D01*
X73336667Y-86849667D01*
X72963805Y-86849667D01*
X72977114Y-86814025D01*
X72975719Y-86731273D01*
X72985617Y-86638000D01*
X73167334Y-86638000D01*
X73196220Y-86720466D01*
X73204670Y-86722667D01*
X73276956Y-86663338D01*
X73294334Y-86638000D01*
X73289138Y-86577603D01*
X73519648Y-86577603D01*
X73540249Y-86624918D01*
X73625499Y-86715812D01*
X73674509Y-86697166D01*
X73675334Y-86685330D01*
X73615197Y-86613718D01*
X73577585Y-86587582D01*
X73519648Y-86577603D01*
X73289138Y-86577603D01*
X73287621Y-86559981D01*
X73256997Y-86553334D01*
X73170779Y-86614794D01*
X73167334Y-86638000D01*
X72985617Y-86638000D01*
X72995644Y-86543520D01*
X73114365Y-86371847D01*
X73281038Y-86271099D01*
X73400773Y-86272759D01*
X73660170Y-86418162D01*
X73775822Y-86604449D01*
X73738936Y-86805944D01*
X73627308Y-86934334D01*
X73557352Y-87063931D01*
X73495777Y-87295103D01*
X73475426Y-87421808D01*
X73410256Y-87722464D01*
X73305971Y-87990829D01*
X73184853Y-88180788D01*
X73076867Y-88246667D01*
X73065880Y-88309525D01*
X73131139Y-88463944D01*
X73148515Y-88495201D01*
X73216206Y-88666176D01*
X73223212Y-88798144D01*
X73180360Y-88850964D01*
X73098475Y-88784498D01*
X73078729Y-88753962D01*
X72940158Y-88532796D01*
X72853474Y-88433710D01*
X72787936Y-88430982D01*
X72740149Y-88470652D01*
X72690922Y-88575320D01*
X72736623Y-88623107D01*
X72807233Y-88730489D01*
X72826440Y-88880789D01*
X72790627Y-88992584D01*
X72753738Y-89008667D01*
X72658533Y-88944953D01*
X72540119Y-88797000D01*
X72407606Y-88652472D01*
X72275847Y-88585741D01*
X72188157Y-88604755D01*
X72187855Y-88717462D01*
X72194014Y-88733500D01*
X72262722Y-88987595D01*
X72218712Y-89131367D01*
X72184094Y-89150912D01*
X72090937Y-89105438D01*
X71992773Y-88949604D01*
X71986879Y-88935778D01*
X71878526Y-88770919D01*
X71737242Y-88661874D01*
X71604726Y-88622116D01*
X71522679Y-88665117D01*
X71526915Y-88787172D01*
X71586756Y-89050363D01*
X71553075Y-89195537D01*
X71464294Y-89242257D01*
X71363492Y-89213155D01*
X71297190Y-89055719D01*
X71273734Y-88933882D01*
X71214745Y-88702339D01*
X71115953Y-88594145D01*
X71029440Y-88570048D01*
X70906311Y-88524967D01*
X70842237Y-88403995D01*
X70812263Y-88168791D01*
X70806979Y-87885785D01*
X70826703Y-87641036D01*
X70836769Y-87590414D01*
X70867557Y-87512889D01*
X72179556Y-87512889D01*
X72191178Y-87563223D01*
X72236000Y-87569334D01*
X72305690Y-87538355D01*
X72292445Y-87512889D01*
X72191965Y-87502756D01*
X72179556Y-87512889D01*
X70867557Y-87512889D01*
X70888596Y-87459914D01*
X70990245Y-87416846D01*
D12*
X60270000Y-83896000D02*
X60270000Y-83740000D01*
X60270000Y-81580000D02*
X60270000Y-81424000D01*
X57668870Y-83739837D02*
G75*
G03*
X59750961Y-83740000I1041130J1079837D01*
G01*
X57037665Y-83738608D02*
G75*
G03*
X60270000Y-83895516I1672335J1078609D01*
G01*
X60270000Y-81424484D02*
G75*
G03*
X57037665Y-81581392I-1560000J-1235517D01*
G01*
X59750961Y-81580000D02*
G75*
G03*
X57668870Y-81580163I-1040961J-1080000D01*
G01*
D14*
X89010000Y-86340000D02*
X99170000Y-86340000D01*
X99170000Y-86340000D02*
X99170000Y-100300000D01*
X99170000Y-100300000D02*
X95360000Y-100300000D01*
X89010000Y-100300000D02*
X89010000Y-86340000D01*
X95360000Y-100300000D02*
X89010000Y-100300000D01*
D12*
X78890000Y-105930000D02*
X78890000Y-104870000D01*
X79950000Y-105930000D02*
X78890000Y-105930000D01*
X80950000Y-103810000D02*
X95010000Y-103810000D01*
X80950000Y-105930000D02*
X80950000Y-103810000D01*
X95010000Y-105930000D02*
X95010000Y-103810000D01*
X80950000Y-105930000D02*
X95010000Y-105930000D01*
X62701422Y-93710000D02*
X63218578Y-93710000D01*
X62701422Y-95130000D02*
X63218578Y-95130000D01*
X62691422Y-92460000D02*
X63208578Y-92460000D01*
X62691422Y-91040000D02*
X63208578Y-91040000D01*
X67600000Y-93450000D02*
X67600000Y-96900000D01*
X67600000Y-93450000D02*
X67600000Y-91500000D01*
X77720000Y-93450000D02*
X77720000Y-91500000D01*
X77720000Y-93450000D02*
X77720000Y-95400000D01*
X79660000Y-83020000D02*
X80920000Y-83020000D01*
X86480000Y-86780000D02*
X86480000Y-83020000D01*
X79660000Y-89030000D02*
X79660000Y-83020000D01*
X86480000Y-83020000D02*
X85220000Y-83020000D01*
X79720000Y-91427936D02*
X79720000Y-92632064D01*
X82440000Y-91427936D02*
X82440000Y-92632064D01*
X86450000Y-91457936D02*
X86450000Y-92662064D01*
X83730000Y-91457936D02*
X83730000Y-92662064D01*
X63160000Y-85400000D02*
X63160000Y-82800000D01*
X63160000Y-80900000D02*
X63160000Y-80650000D01*
X63160000Y-80650000D02*
X69460000Y-80650000D01*
X69460000Y-87300000D02*
X69460000Y-87550000D01*
X63160000Y-87550000D02*
X63160000Y-87300000D01*
X69460000Y-80650000D02*
X69460000Y-80900000D01*
X69460000Y-82800000D02*
X69460000Y-85400000D01*
X69460000Y-87550000D02*
X63160000Y-87550000D01*
X80608748Y-97500000D02*
X82831252Y-97500000D01*
X80608748Y-95680000D02*
X82831252Y-95680000D01*
X67010000Y-93191422D02*
X67010000Y-93708578D01*
X65590000Y-93191422D02*
X65590000Y-93708578D01*
X65955000Y-98165000D02*
X62070000Y-98165000D01*
X65955000Y-100435000D02*
X65955000Y-98165000D01*
X62070000Y-100435000D02*
X65955000Y-100435000D01*
X76045000Y-102735000D02*
X79930000Y-102735000D01*
X79930000Y-100465000D02*
X76045000Y-100465000D01*
X76045000Y-100465000D02*
X76045000Y-102735000D01*
X83068578Y-102680000D02*
X82551422Y-102680000D01*
X83068578Y-101260000D02*
X82551422Y-101260000D01*
X88050000Y-99440000D02*
X88050000Y-97540000D01*
X85730000Y-98040000D02*
X85730000Y-99440000D01*
X86901422Y-102550000D02*
X87418578Y-102550000D01*
X86901422Y-101130000D02*
X87418578Y-101130000D01*
X82561422Y-100080000D02*
X83078578Y-100080000D01*
X82561422Y-98660000D02*
X83078578Y-98660000D01*
X73311422Y-98940000D02*
X73828578Y-98940000D01*
X73311422Y-100360000D02*
X73828578Y-100360000D01*
X65342936Y-105555000D02*
X65797064Y-105555000D01*
X65342936Y-104085000D02*
X65797064Y-104085000D01*
D14*
X50650000Y-86290000D02*
X54460000Y-86290000D01*
X54460000Y-86290000D02*
X60810000Y-86290000D01*
X60810000Y-86290000D02*
X60810000Y-100250000D01*
X60810000Y-100250000D02*
X50650000Y-100250000D01*
X50650000Y-100250000D02*
X50650000Y-86290000D01*
D12*
X69337064Y-104085000D02*
X68882936Y-104085000D01*
X69337064Y-105555000D02*
X68882936Y-105555000D01*
D15*
X92820000Y-92177000D03*
X92820000Y-94336000D03*
X92820000Y-90145000D03*
X92820000Y-96495000D03*
X90280000Y-90145000D03*
X90280000Y-96495000D03*
D16*
X96567800Y-93320000D03*
D17*
X95360000Y-100305000D03*
X95360000Y-86335000D03*
D15*
X57000000Y-94413000D03*
X57000000Y-92254000D03*
X57000000Y-96445000D03*
X59540000Y-94413000D03*
X57000000Y-90095000D03*
X59540000Y-96445000D03*
X59540000Y-92254000D03*
X59540000Y-90095000D03*
D17*
X54460000Y-86285000D03*
D16*
X53252200Y-93270000D03*
D17*
X54460000Y-100255000D03*
M02*
