G04 #@! TF.GenerationSoftware,KiCad,Pcbnew,(6.0.1-0)*
G04 #@! TF.CreationDate,2022-03-09T23:30:53+00:00*
G04 #@! TF.ProjectId,sharpkey,73686172-706b-4657-992e-6b696361645f,1.3*
G04 #@! TF.SameCoordinates,Original*
G04 #@! TF.FileFunction,Paste,Top*
G04 #@! TF.FilePolarity,Positive*
%FSLAX46Y46*%
G04 Gerber Fmt 4.6, Leading zero omitted, Abs format (unit mm)*
G04 Created by KiCad (PCBNEW (6.0.1-0)) date 2022-03-09 23:30:53*
%MOMM*%
%LPD*%
G01*
G04 APERTURE LIST*
G04 Aperture macros list*
%AMRoundRect*
0 Rectangle with rounded corners*
0 $1 Rounding radius*
0 $2 $3 $4 $5 $6 $7 $8 $9 X,Y pos of 4 corners*
0 Add a 4 corners polygon primitive as box body*
4,1,4,$2,$3,$4,$5,$6,$7,$8,$9,$2,$3,0*
0 Add four circle primitives for the rounded corners*
1,1,$1+$1,$2,$3*
1,1,$1+$1,$4,$5*
1,1,$1+$1,$6,$7*
1,1,$1+$1,$8,$9*
0 Add four rect primitives between the rounded corners*
20,1,$1+$1,$2,$3,$4,$5,0*
20,1,$1+$1,$4,$5,$6,$7,0*
20,1,$1+$1,$6,$7,$8,$9,0*
20,1,$1+$1,$8,$9,$2,$3,0*%
G04 Aperture macros list end*
%ADD10RoundRect,0.243750X-0.243750X-0.456250X0.243750X-0.456250X0.243750X0.456250X-0.243750X0.456250X0*%
%ADD11RoundRect,0.150000X0.150000X-0.825000X0.150000X0.825000X-0.150000X0.825000X-0.150000X-0.825000X0*%
%ADD12R,1.500000X2.000000*%
%ADD13R,3.800000X2.000000*%
%ADD14RoundRect,0.250001X-1.074999X0.462499X-1.074999X-0.462499X1.074999X-0.462499X1.074999X0.462499X0*%
%ADD15R,1.550000X1.300000*%
%ADD16RoundRect,0.249999X-0.450001X-0.650001X0.450001X-0.650001X0.450001X0.650001X-0.450001X0.650001X0*%
%ADD17RoundRect,0.243750X-0.456250X0.243750X-0.456250X-0.243750X0.456250X-0.243750X0.456250X0.243750X0*%
%ADD18RoundRect,0.250000X0.375000X0.625000X-0.375000X0.625000X-0.375000X-0.625000X0.375000X-0.625000X0*%
%ADD19RoundRect,0.250000X-0.375000X-0.625000X0.375000X-0.625000X0.375000X0.625000X-0.375000X0.625000X0*%
%ADD20RoundRect,0.243750X0.243750X0.456250X-0.243750X0.456250X-0.243750X-0.456250X0.243750X-0.456250X0*%
%ADD21R,0.400000X0.650000*%
%ADD22RoundRect,0.250000X-0.262500X-0.450000X0.262500X-0.450000X0.262500X0.450000X-0.262500X0.450000X0*%
%ADD23RoundRect,0.250000X0.262500X0.450000X-0.262500X0.450000X-0.262500X-0.450000X0.262500X-0.450000X0*%
G04 APERTURE END LIST*
D10*
X62022500Y-94420000D03*
X63897500Y-94420000D03*
X62012500Y-91750000D03*
X63887500Y-91750000D03*
D11*
X68215000Y-95925000D03*
X69485000Y-95925000D03*
X70755000Y-95925000D03*
X72025000Y-95925000D03*
X73295000Y-95925000D03*
X74565000Y-95925000D03*
X75835000Y-95925000D03*
X77105000Y-95925000D03*
X77105000Y-90975000D03*
X75835000Y-90975000D03*
X74565000Y-90975000D03*
X73295000Y-90975000D03*
X72025000Y-90975000D03*
X70755000Y-90975000D03*
X69485000Y-90975000D03*
X68215000Y-90975000D03*
D12*
X80770000Y-88080000D03*
D13*
X83070000Y-81780000D03*
D12*
X83070000Y-88080000D03*
X85370000Y-88080000D03*
D14*
X81080000Y-90542500D03*
X81080000Y-93517500D03*
X85090000Y-90572500D03*
X85090000Y-93547500D03*
D15*
X62335000Y-86350000D03*
X70285000Y-86350000D03*
X62335000Y-81850000D03*
X70285000Y-81850000D03*
D16*
X79720000Y-96590000D03*
X83720000Y-96590000D03*
D17*
X66300000Y-92512500D03*
X66300000Y-94387500D03*
D18*
X65070000Y-99300000D03*
X62270000Y-99300000D03*
D19*
X76930000Y-101600000D03*
X79730000Y-101600000D03*
D20*
X83747500Y-101970000D03*
X81872500Y-101970000D03*
D21*
X87540000Y-97790000D03*
X86890000Y-97790000D03*
X86240000Y-97790000D03*
X86240000Y-99690000D03*
X86890000Y-99690000D03*
X87540000Y-99690000D03*
D10*
X86222500Y-101840000D03*
X88097500Y-101840000D03*
X81882500Y-99370000D03*
X83757500Y-99370000D03*
X72632500Y-99650000D03*
X74507500Y-99650000D03*
D22*
X64657500Y-104820000D03*
X66482500Y-104820000D03*
D23*
X70022500Y-104820000D03*
X68197500Y-104820000D03*
M02*
