%FSLAX45Y45*%
G04 Gerber Fmt 4.5, Leading zero omitted, Abs format (unit mm)*
G04 Created by KiCad (PCBNEW (6.0.1-0)) date 2022-03-09 23:30:37*
%MOMM*%
%LPD*%
G01*
G04 APERTURE LIST*
%TA.AperFunction,Profile*%
%ADD10C,0.050000*%
%TD*%
%ADD11C,0.200000*%
%ADD12C,0.210000*%
G04 APERTURE END LIST*
D10*
X5000000Y-8400000D02*
X5000000Y-10250000D01*
X7850000Y-8000000D02*
X9600000Y-8000000D01*
X5400000Y-10650000D02*
X7150000Y-10650000D01*
X7850000Y-10650000D02*
X9600000Y-10650000D01*
X7150000Y-10350000D02*
X7850000Y-10350000D01*
X7850000Y-10650000D02*
X7850000Y-10350000D01*
X7150000Y-8300000D02*
X7150000Y-8000000D01*
X7850000Y-8300000D02*
X7850000Y-8000000D01*
X7150000Y-8300000D02*
X7850000Y-8300000D01*
X5400000Y-10650000D02*
G75*
G03*
X5000000Y-10250000I-200000J200000D01*
G01*
X10000000Y-10250000D02*
G75*
G03*
X9600000Y-10650000I-200000J-200000D01*
G01*
X9600000Y-8000000D02*
G75*
G03*
X10000000Y-8400000I200000J-200000D01*
G01*
X7150000Y-10650000D02*
X7150000Y-10350000D01*
X5400000Y-8000000D02*
X7150000Y-8000000D01*
X5000000Y-8400000D02*
G75*
G03*
X5400000Y-8000000I200000J200000D01*
G01*
X10000000Y-8400000D02*
X10000000Y-10250000D01*
D11*
D12*
X5815000Y-10165000D02*
X6025000Y-10375000D01*
X6025000Y-10165000D02*
X5815000Y-10375000D01*
X8995000Y-8245000D02*
X9205000Y-8455000D01*
X9205000Y-8245000D02*
X8995000Y-8455000D01*
D11*
X5255119Y-10962976D02*
X5255119Y-10762976D01*
X5302738Y-10762976D01*
X5331310Y-10772500D01*
X5350357Y-10791548D01*
X5359881Y-10810595D01*
X5369405Y-10848691D01*
X5369405Y-10877262D01*
X5359881Y-10915357D01*
X5350357Y-10934405D01*
X5331310Y-10953453D01*
X5302738Y-10962976D01*
X5255119Y-10962976D01*
X5455119Y-10962976D02*
X5455119Y-10829643D01*
X5455119Y-10867738D02*
X5464643Y-10848691D01*
X5474167Y-10839167D01*
X5493214Y-10829643D01*
X5512262Y-10829643D01*
X5578929Y-10962976D02*
X5578929Y-10829643D01*
X5578929Y-10762976D02*
X5569405Y-10772500D01*
X5578929Y-10782024D01*
X5588452Y-10772500D01*
X5578929Y-10762976D01*
X5578929Y-10782024D01*
X5702738Y-10962976D02*
X5683690Y-10953453D01*
X5674167Y-10934405D01*
X5674167Y-10762976D01*
X5807500Y-10962976D02*
X5788452Y-10953453D01*
X5778928Y-10934405D01*
X5778928Y-10762976D01*
X6036071Y-10962976D02*
X6036071Y-10762976D01*
X6102738Y-10905834D01*
X6169405Y-10762976D01*
X6169405Y-10962976D01*
X6350357Y-10962976D02*
X6350357Y-10858214D01*
X6340833Y-10839167D01*
X6321786Y-10829643D01*
X6283690Y-10829643D01*
X6264643Y-10839167D01*
X6350357Y-10953453D02*
X6331309Y-10962976D01*
X6283690Y-10962976D01*
X6264643Y-10953453D01*
X6255119Y-10934405D01*
X6255119Y-10915357D01*
X6264643Y-10896310D01*
X6283690Y-10886786D01*
X6331309Y-10886786D01*
X6350357Y-10877262D01*
X6445595Y-10829643D02*
X6445595Y-11029643D01*
X6445595Y-10839167D02*
X6464643Y-10829643D01*
X6502738Y-10829643D01*
X6521786Y-10839167D01*
X6531309Y-10848691D01*
X6540833Y-10867738D01*
X6540833Y-10924881D01*
X6531309Y-10943929D01*
X6521786Y-10953453D01*
X6502738Y-10962976D01*
X6464643Y-10962976D01*
X6445595Y-10953453D01*
X6626548Y-10943929D02*
X6636071Y-10953453D01*
X6626548Y-10962976D01*
X6617024Y-10953453D01*
X6626548Y-10943929D01*
X6626548Y-10962976D01*
X6626548Y-10839167D02*
X6636071Y-10848691D01*
X6626548Y-10858214D01*
X6617024Y-10848691D01*
X6626548Y-10839167D01*
X6626548Y-10858214D01*
X4797500Y-11192500D02*
X4997500Y-11392500D01*
X4997500Y-11192500D02*
X4797500Y-11392500D01*
X5245595Y-11202024D02*
X5255119Y-11192500D01*
X5274167Y-11182976D01*
X5321786Y-11182976D01*
X5340833Y-11192500D01*
X5350357Y-11202024D01*
X5359881Y-11221072D01*
X5359881Y-11240119D01*
X5350357Y-11268691D01*
X5236071Y-11382976D01*
X5359881Y-11382976D01*
X5445595Y-11363929D02*
X5455119Y-11373452D01*
X5445595Y-11382976D01*
X5436071Y-11373452D01*
X5445595Y-11363929D01*
X5445595Y-11382976D01*
X5645595Y-11382976D02*
X5531310Y-11382976D01*
X5588452Y-11382976D02*
X5588452Y-11182976D01*
X5569405Y-11211548D01*
X5550357Y-11230595D01*
X5531310Y-11240119D01*
X5769405Y-11182976D02*
X5788452Y-11182976D01*
X5807500Y-11192500D01*
X5817024Y-11202024D01*
X5826548Y-11221072D01*
X5836071Y-11259167D01*
X5836071Y-11306786D01*
X5826548Y-11344881D01*
X5817024Y-11363929D01*
X5807500Y-11373452D01*
X5788452Y-11382976D01*
X5769405Y-11382976D01*
X5750357Y-11373452D01*
X5740833Y-11363929D01*
X5731309Y-11344881D01*
X5721786Y-11306786D01*
X5721786Y-11259167D01*
X5731309Y-11221072D01*
X5740833Y-11202024D01*
X5750357Y-11192500D01*
X5769405Y-11182976D01*
X5959881Y-11182976D02*
X5978928Y-11182976D01*
X5997976Y-11192500D01*
X6007500Y-11202024D01*
X6017024Y-11221072D01*
X6026548Y-11259167D01*
X6026548Y-11306786D01*
X6017024Y-11344881D01*
X6007500Y-11363929D01*
X5997976Y-11373452D01*
X5978928Y-11382976D01*
X5959881Y-11382976D01*
X5940833Y-11373452D01*
X5931309Y-11363929D01*
X5921786Y-11344881D01*
X5912262Y-11306786D01*
X5912262Y-11259167D01*
X5921786Y-11221072D01*
X5931309Y-11202024D01*
X5940833Y-11192500D01*
X5959881Y-11182976D01*
X6112262Y-11382976D02*
X6112262Y-11249643D01*
X6112262Y-11268691D02*
X6121786Y-11259167D01*
X6140833Y-11249643D01*
X6169405Y-11249643D01*
X6188452Y-11259167D01*
X6197976Y-11278214D01*
X6197976Y-11382976D01*
X6197976Y-11278214D02*
X6207500Y-11259167D01*
X6226548Y-11249643D01*
X6255119Y-11249643D01*
X6274167Y-11259167D01*
X6283690Y-11278214D01*
X6283690Y-11382976D01*
X6378928Y-11382976D02*
X6378928Y-11249643D01*
X6378928Y-11268691D02*
X6388452Y-11259167D01*
X6407500Y-11249643D01*
X6436071Y-11249643D01*
X6455119Y-11259167D01*
X6464643Y-11278214D01*
X6464643Y-11382976D01*
X6464643Y-11278214D02*
X6474167Y-11259167D01*
X6493214Y-11249643D01*
X6521786Y-11249643D01*
X6540833Y-11259167D01*
X6550357Y-11278214D01*
X6550357Y-11382976D01*
X6940833Y-11173453D02*
X6769405Y-11430595D01*
X7197976Y-11182976D02*
X7217024Y-11182976D01*
X7236071Y-11192500D01*
X7245595Y-11202024D01*
X7255119Y-11221072D01*
X7264643Y-11259167D01*
X7264643Y-11306786D01*
X7255119Y-11344881D01*
X7245595Y-11363929D01*
X7236071Y-11373452D01*
X7217024Y-11382976D01*
X7197976Y-11382976D01*
X7178928Y-11373452D01*
X7169405Y-11363929D01*
X7159881Y-11344881D01*
X7150357Y-11306786D01*
X7150357Y-11259167D01*
X7159881Y-11221072D01*
X7169405Y-11202024D01*
X7178928Y-11192500D01*
X7197976Y-11182976D01*
X7350357Y-11363929D02*
X7359881Y-11373452D01*
X7350357Y-11382976D01*
X7340833Y-11373452D01*
X7350357Y-11363929D01*
X7350357Y-11382976D01*
X7483690Y-11182976D02*
X7502738Y-11182976D01*
X7521786Y-11192500D01*
X7531309Y-11202024D01*
X7540833Y-11221072D01*
X7550357Y-11259167D01*
X7550357Y-11306786D01*
X7540833Y-11344881D01*
X7531309Y-11363929D01*
X7521786Y-11373452D01*
X7502738Y-11382976D01*
X7483690Y-11382976D01*
X7464643Y-11373452D01*
X7455119Y-11363929D01*
X7445595Y-11344881D01*
X7436071Y-11306786D01*
X7436071Y-11259167D01*
X7445595Y-11221072D01*
X7455119Y-11202024D01*
X7464643Y-11192500D01*
X7483690Y-11182976D01*
X7664643Y-11268691D02*
X7645595Y-11259167D01*
X7636071Y-11249643D01*
X7626548Y-11230595D01*
X7626548Y-11221072D01*
X7636071Y-11202024D01*
X7645595Y-11192500D01*
X7664643Y-11182976D01*
X7702738Y-11182976D01*
X7721786Y-11192500D01*
X7731309Y-11202024D01*
X7740833Y-11221072D01*
X7740833Y-11230595D01*
X7731309Y-11249643D01*
X7721786Y-11259167D01*
X7702738Y-11268691D01*
X7664643Y-11268691D01*
X7645595Y-11278214D01*
X7636071Y-11287738D01*
X7626548Y-11306786D01*
X7626548Y-11344881D01*
X7636071Y-11363929D01*
X7645595Y-11373452D01*
X7664643Y-11382976D01*
X7702738Y-11382976D01*
X7721786Y-11373452D01*
X7731309Y-11363929D01*
X7740833Y-11344881D01*
X7740833Y-11306786D01*
X7731309Y-11287738D01*
X7721786Y-11278214D01*
X7702738Y-11268691D01*
X7817024Y-11202024D02*
X7826548Y-11192500D01*
X7845595Y-11182976D01*
X7893214Y-11182976D01*
X7912262Y-11192500D01*
X7921786Y-11202024D01*
X7931309Y-11221072D01*
X7931309Y-11240119D01*
X7921786Y-11268691D01*
X7807500Y-11382976D01*
X7931309Y-11382976D01*
X7997976Y-11182976D02*
X8131309Y-11182976D01*
X8045595Y-11382976D01*
X8197976Y-11182976D02*
X8197976Y-11221072D01*
X8274167Y-11182976D02*
X8274167Y-11221072D01*
X8569405Y-11459167D02*
X8559881Y-11449643D01*
X8540833Y-11421072D01*
X8531310Y-11402024D01*
X8521786Y-11373452D01*
X8512262Y-11325833D01*
X8512262Y-11287738D01*
X8521786Y-11240119D01*
X8531310Y-11211548D01*
X8540833Y-11192500D01*
X8559881Y-11163929D01*
X8569405Y-11154405D01*
X8636071Y-11202024D02*
X8645595Y-11192500D01*
X8664643Y-11182976D01*
X8712262Y-11182976D01*
X8731310Y-11192500D01*
X8740833Y-11202024D01*
X8750357Y-11221072D01*
X8750357Y-11240119D01*
X8740833Y-11268691D01*
X8626548Y-11382976D01*
X8750357Y-11382976D01*
X8988452Y-11382976D02*
X8988452Y-11182976D01*
X9074167Y-11382976D02*
X9074167Y-11278214D01*
X9064643Y-11259167D01*
X9045595Y-11249643D01*
X9017024Y-11249643D01*
X8997976Y-11259167D01*
X8988452Y-11268691D01*
X9197976Y-11382976D02*
X9178929Y-11373452D01*
X9169405Y-11363929D01*
X9159881Y-11344881D01*
X9159881Y-11287738D01*
X9169405Y-11268691D01*
X9178929Y-11259167D01*
X9197976Y-11249643D01*
X9226548Y-11249643D01*
X9245595Y-11259167D01*
X9255119Y-11268691D01*
X9264643Y-11287738D01*
X9264643Y-11344881D01*
X9255119Y-11363929D01*
X9245595Y-11373452D01*
X9226548Y-11382976D01*
X9197976Y-11382976D01*
X9378929Y-11382976D02*
X9359881Y-11373452D01*
X9350357Y-11354405D01*
X9350357Y-11182976D01*
X9531310Y-11373452D02*
X9512262Y-11382976D01*
X9474167Y-11382976D01*
X9455119Y-11373452D01*
X9445595Y-11354405D01*
X9445595Y-11278214D01*
X9455119Y-11259167D01*
X9474167Y-11249643D01*
X9512262Y-11249643D01*
X9531310Y-11259167D01*
X9540833Y-11278214D01*
X9540833Y-11297262D01*
X9445595Y-11316310D01*
X9617024Y-11373452D02*
X9636071Y-11382976D01*
X9674167Y-11382976D01*
X9693214Y-11373452D01*
X9702738Y-11354405D01*
X9702738Y-11344881D01*
X9693214Y-11325833D01*
X9674167Y-11316310D01*
X9645595Y-11316310D01*
X9626548Y-11306786D01*
X9617024Y-11287738D01*
X9617024Y-11278214D01*
X9626548Y-11259167D01*
X9645595Y-11249643D01*
X9674167Y-11249643D01*
X9693214Y-11259167D01*
X9769405Y-11459167D02*
X9778929Y-11449643D01*
X9797976Y-11421072D01*
X9807500Y-11402024D01*
X9817024Y-11373452D01*
X9826548Y-11325833D01*
X9826548Y-11287738D01*
X9817024Y-11240119D01*
X9807500Y-11211548D01*
X9797976Y-11192500D01*
X9778929Y-11163929D01*
X9769405Y-11154405D01*
X10131310Y-11459167D02*
X10121786Y-11449643D01*
X10102738Y-11421072D01*
X10093214Y-11402024D01*
X10083690Y-11373452D01*
X10074167Y-11325833D01*
X10074167Y-11287738D01*
X10083690Y-11240119D01*
X10093214Y-11211548D01*
X10102738Y-11192500D01*
X10121786Y-11163929D01*
X10131310Y-11154405D01*
X10207500Y-11249643D02*
X10207500Y-11382976D01*
X10207500Y-11268691D02*
X10217024Y-11259167D01*
X10236071Y-11249643D01*
X10264643Y-11249643D01*
X10283690Y-11259167D01*
X10293214Y-11278214D01*
X10293214Y-11382976D01*
X10417024Y-11382976D02*
X10397976Y-11373452D01*
X10388452Y-11363929D01*
X10378929Y-11344881D01*
X10378929Y-11287738D01*
X10388452Y-11268691D01*
X10397976Y-11259167D01*
X10417024Y-11249643D01*
X10445595Y-11249643D01*
X10464643Y-11259167D01*
X10474167Y-11268691D01*
X10483690Y-11287738D01*
X10483690Y-11344881D01*
X10474167Y-11363929D01*
X10464643Y-11373452D01*
X10445595Y-11382976D01*
X10417024Y-11382976D01*
X10540833Y-11249643D02*
X10617024Y-11249643D01*
X10569405Y-11182976D02*
X10569405Y-11354405D01*
X10578929Y-11373452D01*
X10597976Y-11382976D01*
X10617024Y-11382976D01*
X10836071Y-11249643D02*
X10836071Y-11449643D01*
X10836071Y-11259167D02*
X10855119Y-11249643D01*
X10893214Y-11249643D01*
X10912262Y-11259167D01*
X10921786Y-11268691D01*
X10931310Y-11287738D01*
X10931310Y-11344881D01*
X10921786Y-11363929D01*
X10912262Y-11373452D01*
X10893214Y-11382976D01*
X10855119Y-11382976D01*
X10836071Y-11373452D01*
X11045595Y-11382976D02*
X11026548Y-11373452D01*
X11017024Y-11354405D01*
X11017024Y-11182976D01*
X11207500Y-11382976D02*
X11207500Y-11278214D01*
X11197976Y-11259167D01*
X11178929Y-11249643D01*
X11140833Y-11249643D01*
X11121786Y-11259167D01*
X11207500Y-11373452D02*
X11188452Y-11382976D01*
X11140833Y-11382976D01*
X11121786Y-11373452D01*
X11112262Y-11354405D01*
X11112262Y-11335357D01*
X11121786Y-11316310D01*
X11140833Y-11306786D01*
X11188452Y-11306786D01*
X11207500Y-11297262D01*
X11274167Y-11249643D02*
X11350357Y-11249643D01*
X11302738Y-11182976D02*
X11302738Y-11354405D01*
X11312262Y-11373452D01*
X11331309Y-11382976D01*
X11350357Y-11382976D01*
X11493214Y-11373452D02*
X11474167Y-11382976D01*
X11436071Y-11382976D01*
X11417024Y-11373452D01*
X11407500Y-11354405D01*
X11407500Y-11278214D01*
X11417024Y-11259167D01*
X11436071Y-11249643D01*
X11474167Y-11249643D01*
X11493214Y-11259167D01*
X11502738Y-11278214D01*
X11502738Y-11297262D01*
X11407500Y-11316310D01*
X11674167Y-11382976D02*
X11674167Y-11182976D01*
X11674167Y-11373452D02*
X11655119Y-11382976D01*
X11617024Y-11382976D01*
X11597976Y-11373452D01*
X11588452Y-11363929D01*
X11578928Y-11344881D01*
X11578928Y-11287738D01*
X11588452Y-11268691D01*
X11597976Y-11259167D01*
X11617024Y-11249643D01*
X11655119Y-11249643D01*
X11674167Y-11259167D01*
X11750357Y-11459167D02*
X11759881Y-11449643D01*
X11778928Y-11421072D01*
X11788452Y-11402024D01*
X11797976Y-11373452D01*
X11807500Y-11325833D01*
X11807500Y-11287738D01*
X11797976Y-11240119D01*
X11788452Y-11211548D01*
X11778928Y-11192500D01*
X11759881Y-11163929D01*
X11750357Y-11154405D01*
M02*
