M48
; DRILL file {KiCad (6.0.1-0)} date Wednesday, 09 March 2022 at 23:30:40
; FORMAT={-:-/ absolute / metric / decimal}
; #@! TF.CreationDate,2022-03-09T23:30:40+00:00
; #@! TF.GenerationSoftware,Kicad,Pcbnew,(6.0.1-0)
; #@! TF.FileFunction,Plated,1,2,PTH
FMAT,2
METRIC
; #@! TA.AperFunction,Plated,PTH,ViaDrill
T1C0.300
; #@! TA.AperFunction,Plated,PTH,ViaDrill
T2C0.500
; #@! TA.AperFunction,Plated,PTH,ComponentDrill
T3C0.800
; #@! TA.AperFunction,Plated,PTH,ComponentDrill
T4C0.900
; #@! TA.AperFunction,Plated,PTH,ComponentDrill
T5C2.000
%
G90
G05
T1
X57.258Y-100.21
X58.093Y-88.966
X59.978Y-100.06
X60.951Y-100.964
X63.114Y-100.459
X63.44Y-87.51
X63.567Y-96.072
X64.643Y-103.573
X64.66Y-94.46
X65.19Y-90.811
X65.596Y-97.336
X65.81Y-96.32
X66.037Y-91.287
X66.19Y-98.71
X66.213Y-82.835
X66.28Y-100.94
X66.95Y-100.83
X67.28Y-97.77
X67.644Y-98.334
X68.236Y-86.666
X68.503Y-92.567
X68.6Y-97.88
X69.0Y-93.876
X69.3Y-85.35
X69.35Y-88.0
X69.518Y-89.186
X70.028Y-105.956
X70.08Y-103.35
X70.679Y-97.529
X71.34Y-100.654
X73.112Y-101.134
X73.31Y-89.7
X73.88Y-88.293
X74.66Y-88.26
X74.67Y-100.98
X74.762Y-86.317
X75.672Y-86.574
X77.49Y-87.749
X77.804Y-96.23
X78.33Y-85.87
X78.662Y-99.99
X79.09Y-91.79
X79.528Y-86.977
X79.595Y-85.279
X79.859Y-98.158
X80.574Y-86.604
X81.094Y-86.106
X81.67Y-83.854
X83.689Y-83.247
X84.411Y-103.561
X85.434Y-99.546
X88.235Y-98.815
T2
X56.912Y-84.519
X57.04Y-86.21
X64.527Y-96.003
X67.59Y-93.956
X73.2Y-85.5
X75.217Y-94.003
X77.07Y-93.175
X77.218Y-88.986
X77.47Y-99.31
X78.476Y-90.72
X78.95Y-89.43
X80.05Y-100.1
X81.53Y-88.04
X82.66Y-102.06
X83.534Y-85.459
X85.37Y-81.77
X86.52Y-96.6
T3
X79.95Y-104.87
X81.95Y-104.87
X83.95Y-104.87
X85.95Y-104.87
X87.95Y-104.87
X89.95Y-104.87
X91.95Y-104.87
X93.95Y-104.87
T4
X57.0Y-90.095
X57.0Y-92.254
X57.0Y-94.413
X57.0Y-96.445
X57.44Y-82.66
X59.54Y-90.095
X59.54Y-92.254
X59.54Y-94.413
X59.54Y-96.445
X59.98Y-82.66
X90.28Y-90.145
X90.28Y-96.495
X92.82Y-90.145
X92.82Y-92.177
X92.82Y-94.336
X92.82Y-96.495
T5
G00X53.252Y-92.92
M15
G01X53.252Y-93.62
M16
G05
G00X54.11Y-86.285
M15
G01X54.81Y-86.285
M16
G05
G00X54.11Y-100.255
M15
G01X54.81Y-100.255
M16
G05
G00X95.71Y-86.335
M15
G01X95.01Y-86.335
M16
G05
G00X95.71Y-100.305
M15
G01X95.01Y-100.305
M16
G05
G00X96.568Y-93.67
M15
G01X96.568Y-92.97
M16
G05
T0
M30
