G04 #@! TF.GenerationSoftware,KiCad,Pcbnew,(6.0.1-0)*
G04 #@! TF.CreationDate,2022-03-09T23:30:52+00:00*
G04 #@! TF.ProjectId,sharpkey,73686172-706b-4657-992e-6b696361645f,1.3*
G04 #@! TF.SameCoordinates,Original*
G04 #@! TF.FileFunction,Copper,L1,Top*
G04 #@! TF.FilePolarity,Positive*
%FSLAX46Y46*%
G04 Gerber Fmt 4.6, Leading zero omitted, Abs format (unit mm)*
G04 Created by KiCad (PCBNEW (6.0.1-0)) date 2022-03-09 23:30:52*
%MOMM*%
%LPD*%
G01*
G04 APERTURE LIST*
G04 Aperture macros list*
%AMRoundRect*
0 Rectangle with rounded corners*
0 $1 Rounding radius*
0 $2 $3 $4 $5 $6 $7 $8 $9 X,Y pos of 4 corners*
0 Add a 4 corners polygon primitive as box body*
4,1,4,$2,$3,$4,$5,$6,$7,$8,$9,$2,$3,0*
0 Add four circle primitives for the rounded corners*
1,1,$1+$1,$2,$3*
1,1,$1+$1,$4,$5*
1,1,$1+$1,$6,$7*
1,1,$1+$1,$8,$9*
0 Add four rect primitives between the rounded corners*
20,1,$1+$1,$2,$3,$4,$5,0*
20,1,$1+$1,$4,$5,$6,$7,0*
20,1,$1+$1,$6,$7,$8,$9,0*
20,1,$1+$1,$8,$9,$2,$3,0*%
G04 Aperture macros list end*
G04 #@! TA.AperFunction,ComponentPad*
%ADD10R,1.800000X1.800000*%
G04 #@! TD*
G04 #@! TA.AperFunction,ComponentPad*
%ADD11C,1.800000*%
G04 #@! TD*
G04 #@! TA.AperFunction,ComponentPad*
%ADD12C,1.500000*%
G04 #@! TD*
G04 #@! TA.AperFunction,ComponentPad*
%ADD13R,2.500000X3.000000*%
G04 #@! TD*
G04 #@! TA.AperFunction,ComponentPad*
%ADD14R,3.000000X2.500000*%
G04 #@! TD*
G04 #@! TA.AperFunction,ComponentPad*
%ADD15R,1.350000X1.350000*%
G04 #@! TD*
G04 #@! TA.AperFunction,ComponentPad*
%ADD16O,1.350000X1.350000*%
G04 #@! TD*
G04 #@! TA.AperFunction,SMDPad,CuDef*
%ADD17RoundRect,0.243750X-0.243750X-0.456250X0.243750X-0.456250X0.243750X0.456250X-0.243750X0.456250X0*%
G04 #@! TD*
G04 #@! TA.AperFunction,SMDPad,CuDef*
%ADD18RoundRect,0.150000X0.150000X-0.825000X0.150000X0.825000X-0.150000X0.825000X-0.150000X-0.825000X0*%
G04 #@! TD*
G04 #@! TA.AperFunction,SMDPad,CuDef*
%ADD19R,1.500000X2.000000*%
G04 #@! TD*
G04 #@! TA.AperFunction,SMDPad,CuDef*
%ADD20R,3.800000X2.000000*%
G04 #@! TD*
G04 #@! TA.AperFunction,SMDPad,CuDef*
%ADD21RoundRect,0.250001X-1.074999X0.462499X-1.074999X-0.462499X1.074999X-0.462499X1.074999X0.462499X0*%
G04 #@! TD*
G04 #@! TA.AperFunction,SMDPad,CuDef*
%ADD22R,1.550000X1.300000*%
G04 #@! TD*
G04 #@! TA.AperFunction,SMDPad,CuDef*
%ADD23RoundRect,0.249999X-0.450001X-0.650001X0.450001X-0.650001X0.450001X0.650001X-0.450001X0.650001X0*%
G04 #@! TD*
G04 #@! TA.AperFunction,SMDPad,CuDef*
%ADD24RoundRect,0.243750X-0.456250X0.243750X-0.456250X-0.243750X0.456250X-0.243750X0.456250X0.243750X0*%
G04 #@! TD*
G04 #@! TA.AperFunction,SMDPad,CuDef*
%ADD25RoundRect,0.250000X0.375000X0.625000X-0.375000X0.625000X-0.375000X-0.625000X0.375000X-0.625000X0*%
G04 #@! TD*
G04 #@! TA.AperFunction,SMDPad,CuDef*
%ADD26RoundRect,0.250000X-0.375000X-0.625000X0.375000X-0.625000X0.375000X0.625000X-0.375000X0.625000X0*%
G04 #@! TD*
G04 #@! TA.AperFunction,SMDPad,CuDef*
%ADD27RoundRect,0.243750X0.243750X0.456250X-0.243750X0.456250X-0.243750X-0.456250X0.243750X-0.456250X0*%
G04 #@! TD*
G04 #@! TA.AperFunction,SMDPad,CuDef*
%ADD28R,0.400000X0.650000*%
G04 #@! TD*
G04 #@! TA.AperFunction,SMDPad,CuDef*
%ADD29RoundRect,0.250000X-0.262500X-0.450000X0.262500X-0.450000X0.262500X0.450000X-0.262500X0.450000X0*%
G04 #@! TD*
G04 #@! TA.AperFunction,SMDPad,CuDef*
%ADD30RoundRect,0.250000X0.262500X0.450000X-0.262500X0.450000X-0.262500X-0.450000X0.262500X-0.450000X0*%
G04 #@! TD*
G04 #@! TA.AperFunction,ViaPad*
%ADD31C,0.800000*%
G04 #@! TD*
G04 #@! TA.AperFunction,ViaPad*
%ADD32C,0.400000*%
G04 #@! TD*
G04 #@! TA.AperFunction,ViaPad*
%ADD33C,0.500000*%
G04 #@! TD*
G04 #@! TA.AperFunction,Conductor*
%ADD34C,0.381000*%
G04 #@! TD*
G04 #@! TA.AperFunction,Conductor*
%ADD35C,0.152400*%
G04 #@! TD*
G04 APERTURE END LIST*
D10*
X59980000Y-82660000D03*
D11*
X57440000Y-82660000D03*
D12*
X92820000Y-92177000D03*
X92820000Y-94336000D03*
X92820000Y-90145000D03*
X92820000Y-96495000D03*
X90280000Y-90145000D03*
X90280000Y-96495000D03*
D13*
X96567800Y-93320000D03*
D14*
X95360000Y-100305000D03*
X95360000Y-86335000D03*
D15*
X79950000Y-104870000D03*
D16*
X81950000Y-104870000D03*
X83950000Y-104870000D03*
X85950000Y-104870000D03*
X87950000Y-104870000D03*
X89950000Y-104870000D03*
X91950000Y-104870000D03*
X93950000Y-104870000D03*
D17*
X62022500Y-94420000D03*
X63897500Y-94420000D03*
X62012500Y-91750000D03*
X63887500Y-91750000D03*
D18*
X68215000Y-95925000D03*
X69485000Y-95925000D03*
X70755000Y-95925000D03*
X72025000Y-95925000D03*
X73295000Y-95925000D03*
X74565000Y-95925000D03*
X75835000Y-95925000D03*
X77105000Y-95925000D03*
X77105000Y-90975000D03*
X75835000Y-90975000D03*
X74565000Y-90975000D03*
X73295000Y-90975000D03*
X72025000Y-90975000D03*
X70755000Y-90975000D03*
X69485000Y-90975000D03*
X68215000Y-90975000D03*
D19*
X80770000Y-88080000D03*
D20*
X83070000Y-81780000D03*
D19*
X83070000Y-88080000D03*
X85370000Y-88080000D03*
D21*
X81080000Y-90542500D03*
X81080000Y-93517500D03*
X85090000Y-90572500D03*
X85090000Y-93547500D03*
D22*
X62335000Y-86350000D03*
X70285000Y-86350000D03*
X62335000Y-81850000D03*
X70285000Y-81850000D03*
D23*
X79720000Y-96590000D03*
X83720000Y-96590000D03*
D24*
X66300000Y-92512500D03*
X66300000Y-94387500D03*
D25*
X65070000Y-99300000D03*
X62270000Y-99300000D03*
D26*
X76930000Y-101600000D03*
X79730000Y-101600000D03*
D27*
X83747500Y-101970000D03*
X81872500Y-101970000D03*
D28*
X87540000Y-97790000D03*
X86890000Y-97790000D03*
X86240000Y-97790000D03*
X86240000Y-99690000D03*
X86890000Y-99690000D03*
X87540000Y-99690000D03*
D17*
X86222500Y-101840000D03*
X88097500Y-101840000D03*
X81882500Y-99370000D03*
X83757500Y-99370000D03*
X72632500Y-99650000D03*
X74507500Y-99650000D03*
D29*
X64657500Y-104820000D03*
X66482500Y-104820000D03*
D12*
X57000000Y-94413000D03*
X57000000Y-92254000D03*
X57000000Y-96445000D03*
X59540000Y-94413000D03*
X57000000Y-90095000D03*
X59540000Y-96445000D03*
X59540000Y-92254000D03*
X59540000Y-90095000D03*
D14*
X54460000Y-86285000D03*
D13*
X53252200Y-93270000D03*
D14*
X54460000Y-100255000D03*
D30*
X70022500Y-104820000D03*
X68197500Y-104820000D03*
D31*
X83534178Y-85458592D03*
X75217243Y-94002757D03*
X77070000Y-93175500D03*
X67590000Y-93955700D03*
X64527207Y-96002793D03*
X78950000Y-89430000D03*
X73200000Y-85500000D03*
X77217614Y-88985700D03*
X82660500Y-102060000D03*
X56912300Y-84518567D03*
X80050000Y-100100000D03*
X86520000Y-96600000D03*
X81530000Y-88040000D03*
D32*
X75672100Y-86574400D03*
X80574071Y-86604071D03*
X81094071Y-86105700D03*
X78330000Y-85870000D03*
X68503454Y-92566545D03*
D31*
X85370000Y-81770000D03*
X78475700Y-90720000D03*
X77470000Y-99309511D03*
X57040000Y-86210000D03*
D32*
X79858629Y-98158089D03*
X71340000Y-100654300D03*
X70080000Y-103350000D03*
X85434500Y-99545700D03*
X74670000Y-100980000D03*
X84410700Y-103560700D03*
X79528100Y-86977300D03*
X69350000Y-88000000D03*
X83689000Y-83246800D03*
X66213200Y-82835400D03*
X66036900Y-91287100D03*
X58092800Y-88965600D03*
X70027600Y-105955800D03*
X63113600Y-100459000D03*
X59978100Y-100060200D03*
X77804500Y-96230000D03*
X66190000Y-98710000D03*
X64660000Y-94460000D03*
X67644300Y-98334300D03*
X70678629Y-97528629D03*
X73310000Y-89700000D03*
X78661800Y-99990000D03*
X66280000Y-100940000D03*
X79090000Y-91790000D03*
X64643000Y-103572900D03*
X69517700Y-89185600D03*
X73880000Y-88292800D03*
X74660000Y-88260000D03*
X68236200Y-86666100D03*
X74762100Y-86316900D03*
X77490000Y-87749300D03*
X69000000Y-93875700D03*
X65810000Y-96320000D03*
X68600000Y-97880000D03*
X65190000Y-90811400D03*
X69300000Y-85350000D03*
X67280000Y-97770000D03*
X88235429Y-98814571D03*
D33*
X81670000Y-83853700D03*
D32*
X66950000Y-100830000D03*
X60950979Y-100963721D03*
X57258500Y-100209600D03*
X73111700Y-101134472D03*
X65595700Y-97335700D03*
X79595000Y-85279500D03*
X63440000Y-87510000D03*
X63567100Y-96072000D03*
D34*
X66300000Y-94387500D02*
X66142500Y-94387500D01*
X81080000Y-93517500D02*
X81180000Y-93617500D01*
X83141408Y-85458592D02*
X80770000Y-87830000D01*
X85000000Y-93617500D02*
X85020000Y-93637500D01*
X66731800Y-93955700D02*
X66300000Y-94387500D01*
X67590000Y-93955700D02*
X66731800Y-93955700D01*
X75217243Y-94002757D02*
X75651460Y-94002757D01*
X77105000Y-95456297D02*
X77105000Y-95925000D01*
X66142500Y-94387500D02*
X64540000Y-95990000D01*
X83534178Y-85458592D02*
X83141408Y-85458592D01*
X80770000Y-87830000D02*
X80770000Y-88080000D01*
X81180000Y-93617500D02*
X85000000Y-93617500D01*
X75651460Y-94002757D02*
X77105000Y-95456297D01*
X91606500Y-95281500D02*
X87028500Y-95281500D01*
X78860000Y-92400000D02*
X83264900Y-92400000D01*
X83264900Y-92400000D02*
X85002400Y-90662500D01*
X67537500Y-92512500D02*
X68215000Y-91835000D01*
X85370000Y-90292500D02*
X85370000Y-88080000D01*
X68215000Y-90975000D02*
X68215000Y-91443703D01*
X69156786Y-92385489D02*
X78845489Y-92385489D01*
X85648500Y-95281500D02*
X84340000Y-96590000D01*
X66300000Y-92512500D02*
X67537500Y-92512500D01*
X68215000Y-91835000D02*
X68215000Y-90975000D01*
X78845489Y-92385489D02*
X78860000Y-92400000D01*
X87028500Y-95281500D02*
X85648500Y-95281500D01*
X87028500Y-92671000D02*
X87028500Y-95281500D01*
X92820000Y-96495000D02*
X91606500Y-95281500D01*
X85002400Y-90662500D02*
X85020000Y-90662500D01*
X84340000Y-96590000D02*
X83720000Y-96590000D01*
X68215000Y-91443703D02*
X69156786Y-92385489D01*
X85020000Y-90662500D02*
X87028500Y-92671000D01*
X85090000Y-90572500D02*
X85370000Y-90292500D01*
X58270100Y-95683100D02*
X58270100Y-96833600D01*
X57000000Y-94413000D02*
X58270100Y-95683100D01*
X58270100Y-96833600D02*
X60736500Y-99300000D01*
X60736500Y-99300000D02*
X62270000Y-99300000D01*
D35*
X75823250Y-86423250D02*
X75672100Y-86574400D01*
X80574071Y-86604071D02*
X80393250Y-86423250D01*
X80393250Y-86423250D02*
X75823250Y-86423250D01*
X78400000Y-85800000D02*
X78330000Y-85870000D01*
X80788371Y-85800000D02*
X78400000Y-85800000D01*
X81094071Y-86105700D02*
X80788371Y-85800000D01*
X80243480Y-95270000D02*
X83073480Y-98100000D01*
X83073480Y-98100000D02*
X85930000Y-98100000D01*
X85930000Y-98100000D02*
X86240000Y-97790000D01*
X78070000Y-95270000D02*
X80243480Y-95270000D01*
X68503454Y-92566545D02*
X68788618Y-92851709D01*
X75651709Y-92851709D02*
X78070000Y-95270000D01*
X68788618Y-92851709D02*
X75651709Y-92851709D01*
X62015500Y-94413000D02*
X62022500Y-94420000D01*
X59540000Y-94413000D02*
X62015500Y-94413000D01*
X60456000Y-92254000D02*
X60960000Y-91750000D01*
X60960000Y-91750000D02*
X62012500Y-91750000D01*
X59540000Y-92254000D02*
X60456000Y-92254000D01*
D34*
X76930000Y-101600000D02*
X75940000Y-102590000D01*
X70239334Y-99300000D02*
X65070000Y-99300000D01*
X66110000Y-102590000D02*
X65070000Y-101550000D01*
X75940000Y-102590000D02*
X66110000Y-102590000D01*
X71772534Y-97766800D02*
X70239334Y-99300000D01*
X71772534Y-97766800D02*
X78543200Y-97766800D01*
X78543200Y-97766800D02*
X79720000Y-96590000D01*
X65070000Y-101550000D02*
X65070000Y-99300000D01*
X81822500Y-99310000D02*
X81882500Y-99370000D01*
D35*
X64270000Y-106030000D02*
X65820000Y-106030000D01*
D34*
X77470000Y-99309511D02*
X77470489Y-99310000D01*
D35*
X63750000Y-105510000D02*
X64270000Y-106030000D01*
X55732420Y-88797580D02*
X55732420Y-96642420D01*
X57040000Y-86210000D02*
X57040000Y-87490000D01*
D34*
X77470489Y-99310000D02*
X80122755Y-99310000D01*
X85370000Y-81770000D02*
X83080000Y-81770000D01*
X80902500Y-90720000D02*
X81080000Y-90542500D01*
X84580000Y-85530000D02*
X84580000Y-83190000D01*
X83070000Y-87040000D02*
X84580000Y-85530000D01*
D35*
X63750000Y-104660000D02*
X63750000Y-105510000D01*
D34*
X80122755Y-99310000D02*
X80132766Y-99299989D01*
X74848000Y-99309500D02*
X74507500Y-99650000D01*
X68197500Y-104820000D02*
X66482500Y-104820000D01*
X80132766Y-99299989D02*
X80787234Y-99299989D01*
X80797245Y-99310000D02*
X81822500Y-99310000D01*
X77469989Y-99309500D02*
X74848000Y-99309500D01*
X84580000Y-83190000D02*
X83170000Y-81780000D01*
D35*
X66482500Y-105367500D02*
X66482500Y-104820000D01*
D34*
X77470000Y-99309511D02*
X77469989Y-99309500D01*
X78475700Y-90720000D02*
X80902500Y-90720000D01*
X81337500Y-90542500D02*
X83070000Y-88810000D01*
D35*
X57040000Y-87490000D02*
X55732420Y-88797580D01*
X55732420Y-96642420D02*
X63750000Y-104660000D01*
D34*
X80787234Y-99299989D02*
X80797245Y-99310000D01*
X83170000Y-81780000D02*
X83070000Y-81780000D01*
D35*
X65820000Y-106030000D02*
X66482500Y-105367500D01*
D34*
X83070000Y-88080000D02*
X83070000Y-87040000D01*
X83080000Y-81770000D02*
X83070000Y-81780000D01*
X81080000Y-90542500D02*
X81337500Y-90542500D01*
X83070000Y-88810000D02*
X83070000Y-88080000D01*
D35*
X79783699Y-98233019D02*
X71965649Y-98233019D01*
X79858629Y-98158089D02*
X79783699Y-98233019D01*
X71340000Y-98858668D02*
X71340000Y-100654300D01*
X71965649Y-98233019D02*
X71340000Y-98858668D01*
X84530700Y-102736800D02*
X82950000Y-104317500D01*
X70269700Y-103160300D02*
X70080000Y-103350000D01*
X82950000Y-105254000D02*
X82332500Y-105871500D01*
X82950000Y-104317500D02*
X82950000Y-105254000D01*
X84530700Y-100449500D02*
X84530700Y-102736800D01*
X82332500Y-105871500D02*
X79210400Y-105871500D01*
X85434500Y-99545700D02*
X84530700Y-100449500D01*
X78998500Y-103591200D02*
X78567600Y-103160300D01*
X79210400Y-105871500D02*
X78998500Y-105659600D01*
X78998500Y-105659600D02*
X78998500Y-103591200D01*
X78567600Y-103160300D02*
X70269700Y-103160300D01*
X83747500Y-101970000D02*
X83747500Y-99380000D01*
X87540000Y-99410000D02*
X87540000Y-99690000D01*
X80440000Y-98380000D02*
X80186211Y-98633789D01*
X83747500Y-99380000D02*
X83757500Y-99370000D01*
X84057500Y-99070000D02*
X87200000Y-99070000D01*
X87200000Y-99070000D02*
X87540000Y-99410000D01*
X73740510Y-98633789D02*
X73640000Y-98734299D01*
X82850000Y-98380000D02*
X80440000Y-98380000D01*
X73870000Y-100980000D02*
X74670000Y-100980000D01*
X83757500Y-99370000D02*
X84057500Y-99070000D01*
X73640000Y-98734299D02*
X73640000Y-100750000D01*
X80186211Y-98633789D02*
X73740510Y-98633789D01*
X83757500Y-99287500D02*
X82850000Y-98380000D01*
X83757500Y-99370000D02*
X83757500Y-99287500D01*
X73640000Y-100750000D02*
X73870000Y-100980000D01*
X79231800Y-87273600D02*
X74651400Y-87273600D01*
X74107900Y-87817100D02*
X69532900Y-87817100D01*
X90403900Y-105821500D02*
X90998500Y-105226900D01*
X84950000Y-105283600D02*
X85487900Y-105821500D01*
X90998500Y-105226900D02*
X90998500Y-104870000D01*
X84950000Y-104100000D02*
X84950000Y-105283600D01*
X69532900Y-87817100D02*
X69350000Y-88000000D01*
X74651400Y-87273600D02*
X74107900Y-87817100D01*
X79528100Y-86977300D02*
X79231800Y-87273600D01*
X84410700Y-103560700D02*
X84950000Y-104100000D01*
X85487900Y-105821500D02*
X90403900Y-105821500D01*
X91950000Y-104870000D02*
X90998500Y-104870000D01*
X83607800Y-83328000D02*
X83689000Y-83246800D01*
X66705800Y-83328000D02*
X83607800Y-83328000D01*
X66213200Y-82835400D02*
X66705800Y-83328000D01*
X70022500Y-104820000D02*
X70027600Y-104825100D01*
X69485000Y-90593300D02*
X68597300Y-89705600D01*
X66036900Y-91287100D02*
X64917100Y-91287100D01*
X68597300Y-89705600D02*
X67618400Y-89705600D01*
X62595600Y-88965600D02*
X58092800Y-88965600D01*
X64917100Y-91287100D02*
X62595600Y-88965600D01*
X70027600Y-104825100D02*
X70027600Y-105955800D01*
X69485000Y-90975000D02*
X69485000Y-90593300D01*
X67618400Y-89705600D02*
X66036900Y-91287100D01*
X70070000Y-98810000D02*
X71662400Y-97217600D01*
X77804500Y-96846400D02*
X77433300Y-97217600D01*
X72025000Y-97217600D02*
X72025000Y-95925000D01*
X63113600Y-100459000D02*
X60376900Y-100459000D01*
X66190000Y-98710000D02*
X66290000Y-98810000D01*
X77433300Y-97217600D02*
X72025000Y-97217600D01*
X77804500Y-96230000D02*
X77804500Y-96846400D01*
X60376900Y-100459000D02*
X59978100Y-100060200D01*
X71662400Y-97217600D02*
X72025000Y-97217600D01*
X66290000Y-98810000D02*
X70070000Y-98810000D01*
X65840000Y-93280000D02*
X73538900Y-93280000D01*
X64660000Y-94460000D02*
X65840000Y-93280000D01*
X75835000Y-95576100D02*
X75835000Y-95925000D01*
X73538900Y-93280000D02*
X75835000Y-95576100D01*
X64620000Y-94420000D02*
X63897500Y-94420000D01*
X64660000Y-94460000D02*
X64620000Y-94420000D01*
X73310000Y-89700000D02*
X73295000Y-89715000D01*
X69817258Y-98390000D02*
X70678629Y-97528629D01*
X67700000Y-98390000D02*
X69817258Y-98390000D01*
X73295000Y-89715000D02*
X73295000Y-90975000D01*
X67644300Y-98334300D02*
X67700000Y-98390000D01*
X77905500Y-91775500D02*
X77105000Y-90975000D01*
X79075500Y-91775500D02*
X77905500Y-91775500D01*
X74506220Y-102123780D02*
X67463780Y-102123780D01*
X76644789Y-99985211D02*
X74506220Y-102123780D01*
X79090000Y-91790000D02*
X79075500Y-91775500D01*
X78661800Y-99990000D02*
X78657011Y-99985211D01*
X78657011Y-99985211D02*
X76644789Y-99985211D01*
X67463780Y-102123780D02*
X66280000Y-100940000D01*
X64657500Y-104820000D02*
X64643000Y-104805500D01*
X64643000Y-103572900D02*
X64120000Y-103049900D01*
X64647690Y-97840000D02*
X66300000Y-97840000D01*
X64120000Y-98367690D02*
X64647690Y-97840000D01*
X66300000Y-97840000D02*
X68215000Y-95925000D01*
X64120000Y-103049900D02*
X64120000Y-98367690D01*
X64643000Y-104805500D02*
X64643000Y-103572900D01*
X70755000Y-90422900D02*
X69517700Y-89185600D01*
X70755000Y-90975000D02*
X70755000Y-90422900D01*
X72025000Y-90147800D02*
X72025000Y-90975000D01*
X73880000Y-88292800D02*
X72025000Y-90147800D01*
X74660000Y-88260000D02*
X74565000Y-88355000D01*
X74762100Y-86316900D02*
X73802400Y-87276600D01*
X74565000Y-88355000D02*
X74565000Y-90975000D01*
X68846700Y-87276600D02*
X68236200Y-86666100D01*
X73802400Y-87276600D02*
X68846700Y-87276600D01*
X77490000Y-87749300D02*
X75835000Y-89404300D01*
X75835000Y-89404300D02*
X75835000Y-90975000D01*
X69000000Y-93875700D02*
X69123780Y-93751920D01*
X72779520Y-93751920D02*
X74565000Y-95537400D01*
X69123780Y-93751920D02*
X72779520Y-93751920D01*
X74565000Y-95537400D02*
X74565000Y-95925000D01*
X65810000Y-96320000D02*
X66961500Y-95168500D01*
X66961500Y-95163200D02*
X67454200Y-94670500D01*
X72381900Y-94670500D02*
X73295000Y-95583600D01*
X67454200Y-94670500D02*
X72381900Y-94670500D01*
X73295000Y-95583600D02*
X73295000Y-95925000D01*
X66961500Y-95168500D02*
X66961500Y-95163200D01*
X65190000Y-90811400D02*
X65190000Y-89010800D01*
X69107058Y-97880000D02*
X70755000Y-96232058D01*
X70755000Y-96232058D02*
X70755000Y-95925000D01*
X68600000Y-97880000D02*
X69107058Y-97880000D01*
X65190000Y-89010800D02*
X68850800Y-85350000D01*
X68850800Y-85350000D02*
X69300000Y-85350000D01*
X67953200Y-97770000D02*
X69485000Y-96238200D01*
X69485000Y-96238200D02*
X69485000Y-95925000D01*
X67280000Y-97770000D02*
X67953200Y-97770000D01*
D34*
X79730000Y-101600000D02*
X79950000Y-101820000D01*
X79950000Y-101820000D02*
X79950000Y-104870000D01*
D35*
X87540000Y-97790000D02*
X87920000Y-97790000D01*
X87920000Y-97790000D02*
X88760000Y-98630000D01*
X88760000Y-101177500D02*
X88097500Y-101840000D01*
X88760000Y-98630000D02*
X88760000Y-101177500D01*
X88097500Y-101840000D02*
X87950000Y-101987500D01*
X87950000Y-101987500D02*
X87950000Y-104870000D01*
X85870000Y-104140000D02*
X85950000Y-104220000D01*
X86240000Y-99690000D02*
X86160000Y-99690000D01*
X85870000Y-104076400D02*
X85870000Y-104140000D01*
X85190000Y-100660000D02*
X85190000Y-103396400D01*
X85190000Y-103396400D02*
X85870000Y-104076400D01*
X85950000Y-104220000D02*
X85950000Y-104870000D01*
X86160000Y-99690000D02*
X85190000Y-100660000D01*
X86890000Y-98500000D02*
X86890000Y-97790000D01*
X88235429Y-98814571D02*
X88121569Y-98700711D01*
X87090711Y-98700711D02*
X86890000Y-98500000D01*
X88121569Y-98700711D02*
X87090711Y-98700711D01*
X86222500Y-101840000D02*
X86890000Y-101172500D01*
X86890000Y-101172500D02*
X86890000Y-99690000D01*
X57580000Y-82660000D02*
X57440000Y-82660000D01*
X81613700Y-83910000D02*
X58830000Y-83910000D01*
X58830000Y-83910000D02*
X57580000Y-82660000D01*
X81670000Y-83853700D02*
X81613700Y-83910000D01*
X63626000Y-98364000D02*
X63626000Y-100654000D01*
X62335000Y-81850000D02*
X62860800Y-81850000D01*
X55380500Y-88508400D02*
X55380500Y-97563100D01*
X73111700Y-101134472D02*
X73096172Y-101150000D01*
X56236600Y-84189400D02*
X56236600Y-87652300D01*
X55867900Y-81954300D02*
X55867900Y-83820700D01*
X63316279Y-100963721D02*
X60950979Y-100963721D01*
X56751900Y-81070300D02*
X55867900Y-81954300D01*
X56236600Y-87652300D02*
X55380500Y-88508400D01*
X55867900Y-83820700D02*
X56236600Y-84189400D01*
X64654300Y-97335700D02*
X63626000Y-98364000D01*
X65595700Y-97335700D02*
X64654300Y-97335700D01*
X73111700Y-101134472D02*
X72632500Y-100655272D01*
X63626000Y-100654000D02*
X63316279Y-100963721D01*
X62860800Y-81850000D02*
X70285000Y-81850000D01*
X73096172Y-101150000D02*
X67270000Y-101150000D01*
X62860800Y-81850000D02*
X62081100Y-81070300D01*
X55380500Y-97563100D02*
X57258500Y-99441100D01*
X62081100Y-81070300D02*
X56751900Y-81070300D01*
X67270000Y-101150000D02*
X66950000Y-100830000D01*
X72632500Y-100655272D02*
X72632500Y-99574300D01*
X57258500Y-99441100D02*
X57258500Y-100209600D01*
X66738180Y-84261920D02*
X78577420Y-84261920D01*
X63440000Y-87510000D02*
X63490100Y-87510000D01*
X78577420Y-84261920D02*
X79595000Y-85279500D01*
X63490100Y-87510000D02*
X66738180Y-84261920D01*
X63567100Y-96072000D02*
X63094700Y-95599600D01*
X63094700Y-92542800D02*
X63887500Y-91750000D01*
X63094700Y-95599600D02*
X63094700Y-92542800D01*
G04 #@! TA.AperFunction,Conductor*
G36*
X71188121Y-80274002D02*
G01*
X71234614Y-80327658D01*
X71246000Y-80380000D01*
X71246000Y-80823980D01*
X71225998Y-80892101D01*
X71172342Y-80938594D01*
X71095420Y-80947559D01*
X71091138Y-80946707D01*
X71091132Y-80946706D01*
X71085067Y-80945500D01*
X70285130Y-80945500D01*
X69484934Y-80945501D01*
X69449182Y-80952612D01*
X69422874Y-80957844D01*
X69422872Y-80957845D01*
X69410699Y-80960266D01*
X69400379Y-80967161D01*
X69400378Y-80967162D01*
X69367165Y-80989355D01*
X69326516Y-81016516D01*
X69270266Y-81100699D01*
X69255500Y-81174933D01*
X69255500Y-81393300D01*
X69235498Y-81461421D01*
X69181842Y-81507914D01*
X69129500Y-81519300D01*
X63490499Y-81519300D01*
X63422378Y-81499298D01*
X63375885Y-81445642D01*
X63364499Y-81393300D01*
X63364499Y-81174934D01*
X63349734Y-81100699D01*
X63293484Y-81016516D01*
X63209301Y-80960266D01*
X63135067Y-80945500D01*
X62476170Y-80945500D01*
X62408049Y-80925498D01*
X62387075Y-80908595D01*
X62329048Y-80850568D01*
X62321622Y-80842464D01*
X62304036Y-80821506D01*
X62304033Y-80821504D01*
X62296949Y-80813061D01*
X62263725Y-80793878D01*
X62254455Y-80787973D01*
X62232050Y-80772285D01*
X62232047Y-80772284D01*
X62223016Y-80765960D01*
X62212367Y-80763106D01*
X62208989Y-80761531D01*
X62205496Y-80760260D01*
X62195951Y-80754749D01*
X62185098Y-80752835D01*
X62185097Y-80752835D01*
X62174000Y-80750878D01*
X62158153Y-80748084D01*
X62147439Y-80745709D01*
X62110367Y-80735776D01*
X62099392Y-80736736D01*
X62099391Y-80736736D01*
X62072132Y-80739121D01*
X62061151Y-80739600D01*
X56771849Y-80739600D01*
X56760868Y-80739121D01*
X56733609Y-80736736D01*
X56733608Y-80736736D01*
X56722633Y-80735776D01*
X56685561Y-80745709D01*
X56674847Y-80748084D01*
X56659000Y-80750878D01*
X56647903Y-80752835D01*
X56647902Y-80752835D01*
X56637049Y-80754749D01*
X56627504Y-80760260D01*
X56624011Y-80761531D01*
X56620633Y-80763106D01*
X56609984Y-80765960D01*
X56600953Y-80772284D01*
X56600950Y-80772285D01*
X56578545Y-80787973D01*
X56569275Y-80793878D01*
X56536051Y-80813061D01*
X56528967Y-80821504D01*
X56528964Y-80821506D01*
X56511378Y-80842464D01*
X56503952Y-80850568D01*
X55648168Y-81706352D01*
X55640064Y-81713778D01*
X55619106Y-81731364D01*
X55619104Y-81731367D01*
X55610661Y-81738451D01*
X55594818Y-81765892D01*
X55591478Y-81771676D01*
X55585573Y-81780945D01*
X55569885Y-81803350D01*
X55569884Y-81803353D01*
X55563560Y-81812384D01*
X55560706Y-81823033D01*
X55559131Y-81826411D01*
X55557860Y-81829904D01*
X55552349Y-81839449D01*
X55550435Y-81850302D01*
X55550435Y-81850303D01*
X55545685Y-81877243D01*
X55543309Y-81887961D01*
X55533376Y-81925033D01*
X55534336Y-81936008D01*
X55534336Y-81936009D01*
X55536721Y-81963268D01*
X55537200Y-81974249D01*
X55537200Y-83800751D01*
X55536721Y-83811732D01*
X55533376Y-83849967D01*
X55543309Y-83887039D01*
X55545684Y-83897753D01*
X55552349Y-83935551D01*
X55557860Y-83945096D01*
X55559131Y-83948589D01*
X55560706Y-83951967D01*
X55563560Y-83962616D01*
X55569884Y-83971647D01*
X55569885Y-83971650D01*
X55585573Y-83994055D01*
X55591478Y-84003324D01*
X55610661Y-84036549D01*
X55619102Y-84043632D01*
X55619103Y-84043633D01*
X55640059Y-84061217D01*
X55648163Y-84068643D01*
X55868996Y-84289477D01*
X55903021Y-84351789D01*
X55905900Y-84378572D01*
X55905900Y-84401000D01*
X55885898Y-84469121D01*
X55832242Y-84515614D01*
X55779900Y-84527000D01*
X54732115Y-84527000D01*
X54716876Y-84531475D01*
X54715671Y-84532865D01*
X54714000Y-84540548D01*
X54714000Y-88024884D01*
X54718475Y-88040123D01*
X54719865Y-88041328D01*
X54727548Y-88042999D01*
X55074031Y-88042999D01*
X55142152Y-88063001D01*
X55188645Y-88116657D01*
X55198749Y-88186931D01*
X55169255Y-88251511D01*
X55163126Y-88258094D01*
X55160768Y-88260452D01*
X55152664Y-88267878D01*
X55131706Y-88285464D01*
X55131704Y-88285467D01*
X55123261Y-88292551D01*
X55105904Y-88322614D01*
X55104078Y-88325776D01*
X55098173Y-88335045D01*
X55082485Y-88357450D01*
X55082484Y-88357453D01*
X55076160Y-88366484D01*
X55073306Y-88377133D01*
X55071731Y-88380511D01*
X55070460Y-88384004D01*
X55064949Y-88393549D01*
X55060037Y-88421409D01*
X55058285Y-88431343D01*
X55055909Y-88442061D01*
X55045976Y-88479133D01*
X55046936Y-88490108D01*
X55046936Y-88490109D01*
X55049321Y-88517368D01*
X55049800Y-88528349D01*
X55049800Y-91293627D01*
X55029798Y-91361748D01*
X54976142Y-91408241D01*
X54905868Y-91418345D01*
X54848235Y-91394454D01*
X54755844Y-91325211D01*
X54740254Y-91316676D01*
X54619806Y-91271522D01*
X54604551Y-91267895D01*
X54553686Y-91262369D01*
X54546872Y-91262000D01*
X53524315Y-91262000D01*
X53509076Y-91266475D01*
X53507871Y-91267865D01*
X53506200Y-91275548D01*
X53506200Y-95259884D01*
X53510675Y-95275123D01*
X53512065Y-95276328D01*
X53519748Y-95277999D01*
X54546869Y-95277999D01*
X54553690Y-95277629D01*
X54604552Y-95272105D01*
X54619804Y-95268479D01*
X54740254Y-95223324D01*
X54755844Y-95214789D01*
X54848235Y-95145546D01*
X54914742Y-95120699D01*
X54984124Y-95135752D01*
X55034354Y-95185927D01*
X55049800Y-95246373D01*
X55049800Y-97543151D01*
X55049321Y-97554132D01*
X55045976Y-97592367D01*
X55055909Y-97629439D01*
X55058284Y-97640153D01*
X55064949Y-97677951D01*
X55070460Y-97687496D01*
X55071731Y-97690989D01*
X55073306Y-97694367D01*
X55076160Y-97705016D01*
X55082484Y-97714047D01*
X55082485Y-97714050D01*
X55098173Y-97736455D01*
X55104078Y-97745724D01*
X55123261Y-97778949D01*
X55131704Y-97786033D01*
X55131706Y-97786036D01*
X55152664Y-97803622D01*
X55160768Y-97811048D01*
X55631625Y-98281905D01*
X55665651Y-98344217D01*
X55660586Y-98415032D01*
X55618039Y-98471868D01*
X55551519Y-98496679D01*
X55542530Y-98497000D01*
X54732115Y-98497000D01*
X54716876Y-98501475D01*
X54715671Y-98502865D01*
X54714000Y-98510548D01*
X54714000Y-99982885D01*
X54718475Y-99998124D01*
X54719865Y-99999329D01*
X54727548Y-100001000D01*
X56449884Y-100001000D01*
X56465123Y-99996525D01*
X56466328Y-99995135D01*
X56467999Y-99987452D01*
X56467999Y-99422469D01*
X56488001Y-99354348D01*
X56541657Y-99307855D01*
X56611931Y-99297751D01*
X56676511Y-99327245D01*
X56683094Y-99333374D01*
X56890895Y-99541175D01*
X56924921Y-99603487D01*
X56927800Y-99630270D01*
X56927800Y-99849726D01*
X56907798Y-99917847D01*
X56896242Y-99933133D01*
X56874719Y-99957503D01*
X56819390Y-100075351D01*
X56818009Y-100084220D01*
X56801824Y-100188168D01*
X56799360Y-100203990D01*
X56800524Y-100212892D01*
X56800524Y-100212895D01*
X56815077Y-100324182D01*
X56816241Y-100333081D01*
X56868674Y-100452245D01*
X56952446Y-100551903D01*
X56959914Y-100556874D01*
X56959915Y-100556875D01*
X57053350Y-100619072D01*
X57053353Y-100619073D01*
X57060820Y-100624044D01*
X57069387Y-100626720D01*
X57069388Y-100626721D01*
X57090671Y-100633370D01*
X57185087Y-100662867D01*
X57194060Y-100663031D01*
X57194063Y-100663032D01*
X57251290Y-100664081D01*
X57315255Y-100665253D01*
X57367417Y-100651032D01*
X57432201Y-100633370D01*
X57432203Y-100633369D01*
X57440860Y-100631009D01*
X57530767Y-100575806D01*
X57544158Y-100567584D01*
X57544159Y-100567584D01*
X57551806Y-100562888D01*
X57562626Y-100550934D01*
X57633144Y-100473027D01*
X57633145Y-100473026D01*
X57639172Y-100466367D01*
X57644676Y-100455008D01*
X57692022Y-100357285D01*
X57692022Y-100357284D01*
X57695937Y-100349204D01*
X57717537Y-100220819D01*
X57717674Y-100209600D01*
X57699218Y-100080725D01*
X57645332Y-99962210D01*
X57639478Y-99955416D01*
X57639476Y-99955413D01*
X57619747Y-99932517D01*
X57590433Y-99867854D01*
X57589200Y-99850269D01*
X57589200Y-99461049D01*
X57589679Y-99450068D01*
X57592064Y-99422809D01*
X57592064Y-99422808D01*
X57593024Y-99411833D01*
X57583091Y-99374761D01*
X57580715Y-99364043D01*
X57575965Y-99337103D01*
X57575965Y-99337102D01*
X57574051Y-99326249D01*
X57568540Y-99316704D01*
X57567269Y-99313211D01*
X57565693Y-99309832D01*
X57562840Y-99299184D01*
X57556518Y-99290155D01*
X57556517Y-99290153D01*
X57551185Y-99282539D01*
X57528497Y-99215265D01*
X57545782Y-99146405D01*
X57597552Y-99097820D01*
X57667370Y-99084937D01*
X57733069Y-99111846D01*
X57743493Y-99121173D01*
X59974410Y-101352090D01*
X60008436Y-101414402D01*
X60003371Y-101485217D01*
X59960824Y-101542053D01*
X59894304Y-101566864D01*
X59832065Y-101555380D01*
X59652852Y-101471811D01*
X59652850Y-101471810D01*
X59647870Y-101469488D01*
X59642562Y-101468066D01*
X59642560Y-101468065D01*
X59432704Y-101411835D01*
X59432703Y-101411835D01*
X59427389Y-101410411D01*
X59328028Y-101401718D01*
X59259680Y-101395738D01*
X59259673Y-101395738D01*
X59256956Y-101395500D01*
X59143044Y-101395500D01*
X59140327Y-101395738D01*
X59140320Y-101395738D01*
X59071972Y-101401718D01*
X58972611Y-101410411D01*
X58967297Y-101411835D01*
X58967296Y-101411835D01*
X58757440Y-101468065D01*
X58757438Y-101468066D01*
X58752130Y-101469488D01*
X58747150Y-101471810D01*
X58747148Y-101471811D01*
X58550246Y-101563628D01*
X58550241Y-101563631D01*
X58545259Y-101565954D01*
X58479413Y-101612060D01*
X58369879Y-101688757D01*
X58358281Y-101696878D01*
X58196878Y-101858281D01*
X58193721Y-101862790D01*
X58193719Y-101862792D01*
X58160491Y-101910247D01*
X58065954Y-102045258D01*
X58063631Y-102050240D01*
X58063628Y-102050245D01*
X57979870Y-102229865D01*
X57969488Y-102252130D01*
X57968066Y-102257438D01*
X57968065Y-102257440D01*
X57918817Y-102441239D01*
X57910411Y-102472611D01*
X57890517Y-102700000D01*
X57910411Y-102927389D01*
X57911835Y-102932703D01*
X57911835Y-102932704D01*
X57962434Y-103121542D01*
X57969488Y-103147870D01*
X57971810Y-103152850D01*
X57971811Y-103152852D01*
X58063628Y-103349754D01*
X58063629Y-103349755D01*
X58065954Y-103354741D01*
X58139257Y-103459428D01*
X58181361Y-103519558D01*
X58196878Y-103541719D01*
X58358281Y-103703122D01*
X58362789Y-103706279D01*
X58362792Y-103706281D01*
X58402522Y-103734100D01*
X58545259Y-103834046D01*
X58550241Y-103836369D01*
X58550246Y-103836372D01*
X58735868Y-103922929D01*
X58752130Y-103930512D01*
X58757438Y-103931934D01*
X58757440Y-103931935D01*
X58967020Y-103988091D01*
X58972611Y-103989589D01*
X59071972Y-103998282D01*
X59140320Y-104004262D01*
X59140327Y-104004262D01*
X59143044Y-104004500D01*
X59256956Y-104004500D01*
X59259673Y-104004262D01*
X59259680Y-104004262D01*
X59328028Y-103998282D01*
X59427389Y-103989589D01*
X59432980Y-103988091D01*
X59642560Y-103931935D01*
X59642562Y-103931934D01*
X59647870Y-103930512D01*
X59664132Y-103922929D01*
X59849754Y-103836372D01*
X59849759Y-103836369D01*
X59854741Y-103834046D01*
X59997478Y-103734100D01*
X60037208Y-103706281D01*
X60037211Y-103706279D01*
X60041719Y-103703122D01*
X60203122Y-103541719D01*
X60218640Y-103519558D01*
X60293013Y-103413342D01*
X60334046Y-103354742D01*
X60336369Y-103349760D01*
X60336372Y-103349755D01*
X60428189Y-103152852D01*
X60428190Y-103152851D01*
X60430512Y-103147870D01*
X60437567Y-103121542D01*
X60488165Y-102932704D01*
X60488165Y-102932703D01*
X60489589Y-102927389D01*
X60509483Y-102700000D01*
X60489589Y-102472611D01*
X60481183Y-102441239D01*
X60431935Y-102257440D01*
X60431934Y-102257438D01*
X60430512Y-102252130D01*
X60419482Y-102228475D01*
X60344620Y-102067935D01*
X60333959Y-101997744D01*
X60362939Y-101932931D01*
X60422358Y-101894074D01*
X60493353Y-101893511D01*
X60547910Y-101925590D01*
X63382395Y-104760075D01*
X63416421Y-104822387D01*
X63419300Y-104849170D01*
X63419300Y-105490051D01*
X63418821Y-105501032D01*
X63416611Y-105526298D01*
X63415476Y-105539267D01*
X63425409Y-105576339D01*
X63427784Y-105587053D01*
X63434449Y-105624851D01*
X63439960Y-105634396D01*
X63441231Y-105637889D01*
X63442806Y-105641267D01*
X63445660Y-105651916D01*
X63451984Y-105660947D01*
X63451985Y-105660950D01*
X63467673Y-105683355D01*
X63473578Y-105692624D01*
X63492761Y-105725849D01*
X63501204Y-105732933D01*
X63501206Y-105732936D01*
X63522164Y-105750522D01*
X63530268Y-105757948D01*
X63803225Y-106030905D01*
X63837251Y-106093217D01*
X63832186Y-106164032D01*
X63789639Y-106220868D01*
X63723119Y-106245679D01*
X63714130Y-106246000D01*
X54769806Y-106246000D01*
X54701685Y-106225998D01*
X54655192Y-106172342D01*
X54645088Y-106102068D01*
X54660123Y-106057988D01*
X54763832Y-105874554D01*
X54763840Y-105874538D01*
X54765517Y-105871572D01*
X54807275Y-105774500D01*
X54896251Y-105567662D01*
X54896254Y-105567653D01*
X54897599Y-105564527D01*
X54907655Y-105531775D01*
X54994706Y-105248266D01*
X54994708Y-105248257D01*
X54995708Y-105245001D01*
X55058696Y-104916741D01*
X55085823Y-104583595D01*
X55080712Y-104394924D01*
X55076865Y-104252885D01*
X55076864Y-104252876D01*
X55076772Y-104249469D01*
X55073854Y-104228050D01*
X55032109Y-103921662D01*
X55032108Y-103921658D01*
X55031648Y-103918280D01*
X54950981Y-103593911D01*
X54863115Y-103354742D01*
X54836895Y-103283372D01*
X54836894Y-103283369D01*
X54835717Y-103280166D01*
X54823833Y-103256203D01*
X54758943Y-103125366D01*
X54687206Y-102980722D01*
X54507191Y-102699090D01*
X54505052Y-102696429D01*
X54505047Y-102696422D01*
X54299925Y-102441239D01*
X54299923Y-102441237D01*
X54297781Y-102438572D01*
X54087304Y-102228095D01*
X54053278Y-102165783D01*
X54058343Y-102094968D01*
X54100890Y-102038132D01*
X54167410Y-102013321D01*
X54176399Y-102013000D01*
X54187885Y-102013000D01*
X54203124Y-102008525D01*
X54204329Y-102007135D01*
X54206000Y-101999452D01*
X54206000Y-101994884D01*
X54714000Y-101994884D01*
X54718475Y-102010123D01*
X54719865Y-102011328D01*
X54727548Y-102012999D01*
X56004669Y-102012999D01*
X56011490Y-102012629D01*
X56062352Y-102007105D01*
X56077604Y-102003479D01*
X56198054Y-101958324D01*
X56213649Y-101949786D01*
X56315724Y-101873285D01*
X56328285Y-101860724D01*
X56404786Y-101758649D01*
X56413324Y-101743054D01*
X56458478Y-101622606D01*
X56462105Y-101607351D01*
X56467631Y-101556486D01*
X56468000Y-101549672D01*
X56468000Y-100527115D01*
X56463525Y-100511876D01*
X56462135Y-100510671D01*
X56454452Y-100509000D01*
X54732115Y-100509000D01*
X54716876Y-100513475D01*
X54715671Y-100514865D01*
X54714000Y-100522548D01*
X54714000Y-101994884D01*
X54206000Y-101994884D01*
X54206000Y-100527115D01*
X54201525Y-100511876D01*
X54200135Y-100510671D01*
X54192452Y-100509000D01*
X52470116Y-100509000D01*
X52454877Y-100513475D01*
X52453672Y-100514865D01*
X52452001Y-100522548D01*
X52452001Y-101306350D01*
X52431999Y-101374471D01*
X52378343Y-101420964D01*
X52308992Y-101431196D01*
X52250534Y-101423231D01*
X52247127Y-101423139D01*
X52247118Y-101423138D01*
X52078566Y-101418573D01*
X51916408Y-101414180D01*
X51583262Y-101441307D01*
X51579908Y-101441951D01*
X51579905Y-101441951D01*
X51268130Y-101501776D01*
X51255002Y-101504295D01*
X51251746Y-101505295D01*
X51251737Y-101505297D01*
X50975467Y-101590125D01*
X50935476Y-101602404D01*
X50932350Y-101603749D01*
X50932341Y-101603752D01*
X50645268Y-101727243D01*
X50628431Y-101734486D01*
X50625467Y-101736162D01*
X50625463Y-101736164D01*
X50442012Y-101839882D01*
X50372868Y-101855996D01*
X50305989Y-101832170D01*
X50262608Y-101775969D01*
X50254000Y-101730198D01*
X50254000Y-99982885D01*
X52452000Y-99982885D01*
X52456475Y-99998124D01*
X52457865Y-99999329D01*
X52465548Y-100001000D01*
X54187885Y-100001000D01*
X54203124Y-99996525D01*
X54204329Y-99995135D01*
X54206000Y-99987452D01*
X54206000Y-98515116D01*
X54201525Y-98499877D01*
X54200135Y-98498672D01*
X54192452Y-98497001D01*
X52915331Y-98497001D01*
X52908510Y-98497371D01*
X52857648Y-98502895D01*
X52842396Y-98506521D01*
X52721946Y-98551676D01*
X52706351Y-98560214D01*
X52604276Y-98636715D01*
X52591715Y-98649276D01*
X52515214Y-98751351D01*
X52506676Y-98766946D01*
X52461522Y-98887394D01*
X52457895Y-98902649D01*
X52452369Y-98953514D01*
X52452000Y-98960328D01*
X52452000Y-99982885D01*
X50254000Y-99982885D01*
X50254000Y-94814669D01*
X51494201Y-94814669D01*
X51494571Y-94821490D01*
X51500095Y-94872352D01*
X51503721Y-94887604D01*
X51548876Y-95008054D01*
X51557414Y-95023649D01*
X51633915Y-95125724D01*
X51646476Y-95138285D01*
X51748551Y-95214786D01*
X51764146Y-95223324D01*
X51884594Y-95268478D01*
X51899849Y-95272105D01*
X51950714Y-95277631D01*
X51957528Y-95278000D01*
X52980085Y-95278000D01*
X52995324Y-95273525D01*
X52996529Y-95272135D01*
X52998200Y-95264452D01*
X52998200Y-93542115D01*
X52993725Y-93526876D01*
X52992335Y-93525671D01*
X52984652Y-93524000D01*
X51512316Y-93524000D01*
X51497077Y-93528475D01*
X51495872Y-93529865D01*
X51494201Y-93537548D01*
X51494201Y-94814669D01*
X50254000Y-94814669D01*
X50254000Y-92997885D01*
X51494200Y-92997885D01*
X51498675Y-93013124D01*
X51500065Y-93014329D01*
X51507748Y-93016000D01*
X52980085Y-93016000D01*
X52995324Y-93011525D01*
X52996529Y-93010135D01*
X52998200Y-93002452D01*
X52998200Y-91280116D01*
X52993725Y-91264877D01*
X52992335Y-91263672D01*
X52984652Y-91262001D01*
X51957531Y-91262001D01*
X51950710Y-91262371D01*
X51899848Y-91267895D01*
X51884596Y-91271521D01*
X51764146Y-91316676D01*
X51748551Y-91325214D01*
X51646476Y-91401715D01*
X51633915Y-91414276D01*
X51557414Y-91516351D01*
X51548876Y-91531946D01*
X51503722Y-91652394D01*
X51500095Y-91667649D01*
X51494569Y-91718514D01*
X51494200Y-91725328D01*
X51494200Y-92997885D01*
X50254000Y-92997885D01*
X50254000Y-87579669D01*
X52452001Y-87579669D01*
X52452371Y-87586490D01*
X52457895Y-87637352D01*
X52461521Y-87652604D01*
X52506676Y-87773054D01*
X52515214Y-87788649D01*
X52591715Y-87890724D01*
X52604276Y-87903285D01*
X52706351Y-87979786D01*
X52721946Y-87988324D01*
X52842394Y-88033478D01*
X52857649Y-88037105D01*
X52908514Y-88042631D01*
X52915328Y-88043000D01*
X54187885Y-88043000D01*
X54203124Y-88038525D01*
X54204329Y-88037135D01*
X54206000Y-88029452D01*
X54206000Y-86557115D01*
X54201525Y-86541876D01*
X54200135Y-86540671D01*
X54192452Y-86539000D01*
X52470116Y-86539000D01*
X52454877Y-86543475D01*
X52453672Y-86544865D01*
X52452001Y-86552548D01*
X52452001Y-87579669D01*
X50254000Y-87579669D01*
X50254000Y-84769804D01*
X50274002Y-84701683D01*
X50327658Y-84655190D01*
X50397932Y-84645086D01*
X50442011Y-84660120D01*
X50628430Y-84765516D01*
X50631566Y-84766865D01*
X50932340Y-84896250D01*
X50932349Y-84896253D01*
X50935475Y-84897598D01*
X50938734Y-84898599D01*
X50938735Y-84898599D01*
X51251736Y-84994705D01*
X51251745Y-84994707D01*
X51255001Y-84995707D01*
X51258352Y-84996350D01*
X51579904Y-85058051D01*
X51579907Y-85058051D01*
X51583261Y-85058695D01*
X51916407Y-85085822D01*
X52078565Y-85081429D01*
X52247117Y-85076864D01*
X52247126Y-85076863D01*
X52250533Y-85076771D01*
X52308991Y-85068806D01*
X52379187Y-85079428D01*
X52432498Y-85126315D01*
X52452000Y-85193652D01*
X52452000Y-86012885D01*
X52456475Y-86028124D01*
X52457865Y-86029329D01*
X52465548Y-86031000D01*
X54187885Y-86031000D01*
X54203124Y-86026525D01*
X54204329Y-86025135D01*
X54206000Y-86017452D01*
X54206000Y-84545116D01*
X54201525Y-84529877D01*
X54200135Y-84528672D01*
X54192452Y-84527001D01*
X54134131Y-84527001D01*
X54066010Y-84506999D01*
X54019517Y-84453343D01*
X54009413Y-84383069D01*
X54038907Y-84318489D01*
X54055191Y-84302795D01*
X54061430Y-84297780D01*
X54297780Y-84061430D01*
X54327050Y-84025017D01*
X54505046Y-83803580D01*
X54505051Y-83803573D01*
X54507190Y-83800912D01*
X54687205Y-83519280D01*
X54783202Y-83325721D01*
X54834198Y-83222897D01*
X54834199Y-83222895D01*
X54835716Y-83219836D01*
X54848435Y-83185217D01*
X54911243Y-83014253D01*
X54950980Y-82906091D01*
X55031647Y-82581722D01*
X55035926Y-82550321D01*
X55076310Y-82253917D01*
X55076310Y-82253916D01*
X55076771Y-82250533D01*
X55077108Y-82238112D01*
X55084404Y-81968743D01*
X55085822Y-81916407D01*
X55058695Y-81583261D01*
X55056387Y-81571230D01*
X54996350Y-81258352D01*
X54995707Y-81255001D01*
X54994707Y-81251745D01*
X54994705Y-81251736D01*
X54898599Y-80938735D01*
X54898599Y-80938734D01*
X54897598Y-80935475D01*
X54896253Y-80932349D01*
X54896250Y-80932340D01*
X54766865Y-80631566D01*
X54765516Y-80628430D01*
X54660120Y-80442012D01*
X54644006Y-80372869D01*
X54667831Y-80305989D01*
X54724033Y-80262608D01*
X54769804Y-80254000D01*
X71120000Y-80254000D01*
X71188121Y-80274002D01*
G37*
G04 #@! TD.AperFunction*
G04 #@! TA.AperFunction,Conductor*
G36*
X95298317Y-80274002D02*
G01*
X95344810Y-80327658D01*
X95354914Y-80397932D01*
X95339880Y-80442011D01*
X95234484Y-80628430D01*
X95233135Y-80631566D01*
X95103750Y-80932340D01*
X95103747Y-80932349D01*
X95102402Y-80935475D01*
X95101401Y-80938734D01*
X95101401Y-80938735D01*
X95005295Y-81251736D01*
X95005293Y-81251745D01*
X95004293Y-81255001D01*
X95003650Y-81258352D01*
X94943614Y-81571230D01*
X94941305Y-81583261D01*
X94914178Y-81916407D01*
X94915596Y-81968743D01*
X94922893Y-82238112D01*
X94923229Y-82250533D01*
X94923690Y-82253916D01*
X94923690Y-82253917D01*
X94964075Y-82550321D01*
X94968353Y-82581722D01*
X95049020Y-82906091D01*
X95088757Y-83014253D01*
X95151566Y-83185217D01*
X95164284Y-83219836D01*
X95165801Y-83222895D01*
X95165802Y-83222897D01*
X95216798Y-83325721D01*
X95312795Y-83519280D01*
X95492810Y-83800912D01*
X95494949Y-83803573D01*
X95494954Y-83803580D01*
X95672950Y-84025017D01*
X95702220Y-84061430D01*
X95938570Y-84297780D01*
X96007011Y-84352794D01*
X96047574Y-84411062D01*
X96050195Y-84482010D01*
X96014043Y-84543113D01*
X95950596Y-84574970D01*
X95928071Y-84577000D01*
X95632115Y-84577000D01*
X95616876Y-84581475D01*
X95615671Y-84582865D01*
X95614000Y-84590548D01*
X95614000Y-86062885D01*
X95618475Y-86078124D01*
X95619865Y-86079329D01*
X95627548Y-86081000D01*
X97349884Y-86081000D01*
X97365123Y-86076525D01*
X97366328Y-86075135D01*
X97367999Y-86067452D01*
X97367999Y-85169128D01*
X97388001Y-85101007D01*
X97441657Y-85054514D01*
X97511009Y-85044282D01*
X97746065Y-85076309D01*
X97746093Y-85076311D01*
X97749467Y-85076771D01*
X97752874Y-85076863D01*
X97752883Y-85076864D01*
X97921435Y-85081429D01*
X98083593Y-85085822D01*
X98416739Y-85058695D01*
X98420093Y-85058051D01*
X98420096Y-85058051D01*
X98741648Y-84996350D01*
X98744999Y-84995707D01*
X98748255Y-84994707D01*
X98748264Y-84994705D01*
X99061265Y-84898599D01*
X99061266Y-84898599D01*
X99064525Y-84897598D01*
X99067651Y-84896253D01*
X99067660Y-84896250D01*
X99368434Y-84766865D01*
X99371570Y-84765516D01*
X99557988Y-84660120D01*
X99627131Y-84644006D01*
X99694011Y-84667831D01*
X99737392Y-84724033D01*
X99746000Y-84769804D01*
X99746000Y-101730196D01*
X99725998Y-101798317D01*
X99672342Y-101844810D01*
X99602068Y-101854914D01*
X99557988Y-101839880D01*
X99456585Y-101782549D01*
X99375941Y-101736955D01*
X99374538Y-101736162D01*
X99371570Y-101734484D01*
X99324717Y-101714329D01*
X99067660Y-101603750D01*
X99067651Y-101603747D01*
X99064525Y-101602402D01*
X99016770Y-101587739D01*
X98748264Y-101505295D01*
X98748255Y-101505293D01*
X98744999Y-101504293D01*
X98635892Y-101483357D01*
X98420096Y-101441949D01*
X98420093Y-101441949D01*
X98416739Y-101441305D01*
X98083593Y-101414178D01*
X97921435Y-101418571D01*
X97752883Y-101423136D01*
X97752874Y-101423137D01*
X97749467Y-101423229D01*
X97746084Y-101423690D01*
X97746083Y-101423690D01*
X97511010Y-101455718D01*
X97440813Y-101445095D01*
X97387502Y-101398207D01*
X97368000Y-101330871D01*
X97368000Y-100577115D01*
X97363525Y-100561876D01*
X97362135Y-100560671D01*
X97354452Y-100559000D01*
X95632115Y-100559000D01*
X95616876Y-100563475D01*
X95615671Y-100564865D01*
X95614000Y-100572548D01*
X95614000Y-102044884D01*
X95618475Y-102060123D01*
X95619865Y-102061328D01*
X95627548Y-102062999D01*
X95773601Y-102062999D01*
X95841722Y-102083001D01*
X95888215Y-102136657D01*
X95898319Y-102206931D01*
X95868825Y-102271511D01*
X95862696Y-102278094D01*
X95702220Y-102438570D01*
X95700078Y-102441235D01*
X95700076Y-102441237D01*
X95494954Y-102696420D01*
X95494953Y-102696422D01*
X95492810Y-102699088D01*
X95312795Y-102980720D01*
X95258692Y-103089809D01*
X95176168Y-103256203D01*
X95164284Y-103280164D01*
X95163107Y-103283367D01*
X95163106Y-103283370D01*
X95138375Y-103350688D01*
X95049020Y-103593909D01*
X94968353Y-103918278D01*
X94967893Y-103921651D01*
X94967890Y-103921669D01*
X94966905Y-103928904D01*
X94937893Y-103993702D01*
X94878453Y-104032528D01*
X94807459Y-104033055D01*
X94756529Y-104004424D01*
X94677490Y-103931361D01*
X94668365Y-103924360D01*
X94494255Y-103814505D01*
X94484008Y-103809284D01*
X94292793Y-103732997D01*
X94281767Y-103729730D01*
X94221770Y-103717797D01*
X94208894Y-103718949D01*
X94204000Y-103734102D01*
X94204000Y-104998000D01*
X94183998Y-105066121D01*
X94130342Y-105112614D01*
X94078000Y-105124000D01*
X93822000Y-105124000D01*
X93753879Y-105103998D01*
X93707386Y-105050342D01*
X93696000Y-104998000D01*
X93696000Y-103731337D01*
X93692194Y-103718375D01*
X93677278Y-103716439D01*
X93648202Y-103721435D01*
X93637082Y-103724415D01*
X93443940Y-103795669D01*
X93433562Y-103800619D01*
X93256639Y-103905877D01*
X93247327Y-103912643D01*
X93092547Y-104048381D01*
X93084630Y-104056724D01*
X92957180Y-104218394D01*
X92950909Y-104228050D01*
X92913829Y-104298528D01*
X92864410Y-104349501D01*
X92795277Y-104365664D01*
X92728381Y-104341885D01*
X92706646Y-104320173D01*
X92706123Y-104320644D01*
X92579805Y-104180353D01*
X92579804Y-104180352D01*
X92575383Y-104175442D01*
X92526115Y-104139646D01*
X92422652Y-104064476D01*
X92422651Y-104064475D01*
X92417310Y-104060595D01*
X92411281Y-104057911D01*
X92411278Y-104057909D01*
X92244849Y-103983811D01*
X92244846Y-103983810D01*
X92238813Y-103981124D01*
X92130415Y-103958083D01*
X92054151Y-103941872D01*
X92054146Y-103941872D01*
X92047694Y-103940500D01*
X91852306Y-103940500D01*
X91845854Y-103941872D01*
X91845849Y-103941872D01*
X91769585Y-103958083D01*
X91661187Y-103981124D01*
X91655154Y-103983810D01*
X91655151Y-103983811D01*
X91488722Y-104057909D01*
X91488719Y-104057911D01*
X91482690Y-104060595D01*
X91477349Y-104064475D01*
X91477348Y-104064476D01*
X91373886Y-104139646D01*
X91324617Y-104175442D01*
X91320196Y-104180352D01*
X91320195Y-104180353D01*
X91271212Y-104234755D01*
X91193877Y-104320644D01*
X91150992Y-104394924D01*
X91104009Y-104476300D01*
X91052627Y-104525293D01*
X90994890Y-104539300D01*
X90940189Y-104539300D01*
X90930072Y-104542982D01*
X90859673Y-104535131D01*
X90804569Y-104490364D01*
X90799233Y-104481914D01*
X90709425Y-104326362D01*
X90709422Y-104326357D01*
X90706123Y-104320644D01*
X90628789Y-104234755D01*
X90579805Y-104180353D01*
X90579804Y-104180352D01*
X90575383Y-104175442D01*
X90526115Y-104139646D01*
X90422652Y-104064476D01*
X90422651Y-104064475D01*
X90417310Y-104060595D01*
X90411281Y-104057911D01*
X90411278Y-104057909D01*
X90244849Y-103983811D01*
X90244846Y-103983810D01*
X90238813Y-103981124D01*
X90130415Y-103958083D01*
X90054151Y-103941872D01*
X90054146Y-103941872D01*
X90047694Y-103940500D01*
X89852306Y-103940500D01*
X89845854Y-103941872D01*
X89845849Y-103941872D01*
X89769585Y-103958083D01*
X89661187Y-103981124D01*
X89655154Y-103983810D01*
X89655151Y-103983811D01*
X89488722Y-104057909D01*
X89488719Y-104057911D01*
X89482690Y-104060595D01*
X89477349Y-104064475D01*
X89477348Y-104064476D01*
X89373886Y-104139646D01*
X89324617Y-104175442D01*
X89320196Y-104180352D01*
X89320195Y-104180353D01*
X89271212Y-104234755D01*
X89193877Y-104320644D01*
X89150991Y-104394924D01*
X89104009Y-104476300D01*
X89096182Y-104489856D01*
X89094141Y-104496138D01*
X89094140Y-104496140D01*
X89069833Y-104570951D01*
X89029760Y-104629557D01*
X88964363Y-104657194D01*
X88894407Y-104645087D01*
X88842100Y-104597082D01*
X88830167Y-104570951D01*
X88805860Y-104496140D01*
X88805859Y-104496138D01*
X88803818Y-104489856D01*
X88795992Y-104476300D01*
X88749009Y-104394924D01*
X88706123Y-104320644D01*
X88628789Y-104234755D01*
X88579805Y-104180353D01*
X88579804Y-104180352D01*
X88575383Y-104175442D01*
X88526115Y-104139646D01*
X88422652Y-104064476D01*
X88422651Y-104064475D01*
X88417310Y-104060595D01*
X88355451Y-104033054D01*
X88301355Y-103987074D01*
X88280700Y-103917947D01*
X88280700Y-102919254D01*
X88300702Y-102851133D01*
X88354358Y-102804640D01*
X88393093Y-102793991D01*
X88407756Y-102792398D01*
X88449342Y-102787881D01*
X88525235Y-102759431D01*
X88574574Y-102740935D01*
X88582982Y-102737783D01*
X88616133Y-102712938D01*
X88690008Y-102657571D01*
X88690009Y-102657570D01*
X88697189Y-102652189D01*
X88702571Y-102645008D01*
X88777399Y-102545166D01*
X88777399Y-102545165D01*
X88782783Y-102537982D01*
X88797021Y-102500002D01*
X88830108Y-102411740D01*
X88830109Y-102411738D01*
X88832881Y-102404342D01*
X88839500Y-102343415D01*
X88839499Y-101617871D01*
X88844844Y-101599669D01*
X93352001Y-101599669D01*
X93352371Y-101606490D01*
X93357895Y-101657352D01*
X93361521Y-101672604D01*
X93406676Y-101793054D01*
X93415214Y-101808649D01*
X93491715Y-101910724D01*
X93504276Y-101923285D01*
X93606351Y-101999786D01*
X93621946Y-102008324D01*
X93742394Y-102053478D01*
X93757649Y-102057105D01*
X93808514Y-102062631D01*
X93815328Y-102063000D01*
X95087885Y-102063000D01*
X95103124Y-102058525D01*
X95104329Y-102057135D01*
X95106000Y-102049452D01*
X95106000Y-100577115D01*
X95101525Y-100561876D01*
X95100135Y-100560671D01*
X95092452Y-100559000D01*
X93370116Y-100559000D01*
X93354877Y-100563475D01*
X93353672Y-100564865D01*
X93352001Y-100572548D01*
X93352001Y-101599669D01*
X88844844Y-101599669D01*
X88859501Y-101549750D01*
X88876404Y-101528776D01*
X88979732Y-101425448D01*
X88987836Y-101418022D01*
X89008793Y-101400437D01*
X89008796Y-101400434D01*
X89017239Y-101393349D01*
X89036426Y-101360117D01*
X89042322Y-101350861D01*
X89064340Y-101319417D01*
X89067194Y-101308765D01*
X89068770Y-101305386D01*
X89070040Y-101301896D01*
X89075551Y-101292351D01*
X89078079Y-101278017D01*
X89082217Y-101254547D01*
X89084596Y-101243818D01*
X89091671Y-101217413D01*
X89091671Y-101217411D01*
X89094523Y-101206767D01*
X89091179Y-101168543D01*
X89090700Y-101157562D01*
X89090700Y-100032885D01*
X93352000Y-100032885D01*
X93356475Y-100048124D01*
X93357865Y-100049329D01*
X93365548Y-100051000D01*
X95087885Y-100051000D01*
X95103124Y-100046525D01*
X95104329Y-100045135D01*
X95106000Y-100037452D01*
X95106000Y-100032885D01*
X95614000Y-100032885D01*
X95618475Y-100048124D01*
X95619865Y-100049329D01*
X95627548Y-100051000D01*
X97349884Y-100051000D01*
X97365123Y-100046525D01*
X97366328Y-100045135D01*
X97367999Y-100037452D01*
X97367999Y-99010331D01*
X97367629Y-99003510D01*
X97362105Y-98952648D01*
X97358479Y-98937396D01*
X97313324Y-98816946D01*
X97304786Y-98801351D01*
X97228285Y-98699276D01*
X97215724Y-98686715D01*
X97113649Y-98610214D01*
X97098054Y-98601676D01*
X96977606Y-98556522D01*
X96962351Y-98552895D01*
X96911486Y-98547369D01*
X96904672Y-98547000D01*
X95632115Y-98547000D01*
X95616876Y-98551475D01*
X95615671Y-98552865D01*
X95614000Y-98560548D01*
X95614000Y-100032885D01*
X95106000Y-100032885D01*
X95106000Y-98565116D01*
X95101525Y-98549877D01*
X95100135Y-98548672D01*
X95092452Y-98547001D01*
X93815331Y-98547001D01*
X93808510Y-98547371D01*
X93757648Y-98552895D01*
X93742396Y-98556521D01*
X93621946Y-98601676D01*
X93606351Y-98610214D01*
X93504276Y-98686715D01*
X93491715Y-98699276D01*
X93415214Y-98801351D01*
X93406676Y-98816946D01*
X93361522Y-98937394D01*
X93357895Y-98952649D01*
X93352369Y-99003514D01*
X93352000Y-99010328D01*
X93352000Y-100032885D01*
X89090700Y-100032885D01*
X89090700Y-98649940D01*
X89091179Y-98638960D01*
X89093563Y-98611710D01*
X89093563Y-98611709D01*
X89094523Y-98600733D01*
X89088181Y-98577063D01*
X89084596Y-98563682D01*
X89082217Y-98552953D01*
X89077465Y-98526003D01*
X89077465Y-98526002D01*
X89075551Y-98515149D01*
X89070040Y-98505604D01*
X89068770Y-98502114D01*
X89067194Y-98498735D01*
X89064340Y-98488083D01*
X89042322Y-98456639D01*
X89036426Y-98447383D01*
X89022751Y-98423698D01*
X89017239Y-98414151D01*
X89008796Y-98407066D01*
X89008793Y-98407063D01*
X88987836Y-98389478D01*
X88979732Y-98382052D01*
X88167948Y-97570268D01*
X88160522Y-97562164D01*
X88142936Y-97541206D01*
X88142933Y-97541204D01*
X88135849Y-97532761D01*
X88102625Y-97513578D01*
X88093355Y-97507673D01*
X88070947Y-97491983D01*
X88070945Y-97491982D01*
X88061916Y-97485660D01*
X88054445Y-97483658D01*
X88002681Y-97438080D01*
X87985638Y-97395383D01*
X87979734Y-97365699D01*
X87969530Y-97350427D01*
X87930377Y-97291832D01*
X87923484Y-97281516D01*
X87839301Y-97225266D01*
X87765067Y-97210500D01*
X87540037Y-97210500D01*
X87314934Y-97210501D01*
X87240699Y-97225266D01*
X87239864Y-97221066D01*
X87192676Y-97226157D01*
X87189320Y-97225172D01*
X87189301Y-97225266D01*
X87121135Y-97211707D01*
X87115067Y-97210500D01*
X86890037Y-97210500D01*
X86664934Y-97210501D01*
X86590699Y-97225266D01*
X86589864Y-97221066D01*
X86542676Y-97226157D01*
X86539320Y-97225172D01*
X86539301Y-97225266D01*
X86471135Y-97211707D01*
X86465067Y-97210500D01*
X86240037Y-97210500D01*
X86014934Y-97210501D01*
X85979182Y-97217612D01*
X85952874Y-97222844D01*
X85952872Y-97222845D01*
X85940699Y-97225266D01*
X85930379Y-97232161D01*
X85930378Y-97232162D01*
X85909640Y-97246019D01*
X85856516Y-97281516D01*
X85800266Y-97365699D01*
X85785500Y-97439933D01*
X85785500Y-97643300D01*
X85765498Y-97711421D01*
X85711842Y-97757914D01*
X85659500Y-97769300D01*
X84655714Y-97769300D01*
X84587593Y-97749298D01*
X84541100Y-97695642D01*
X84530996Y-97625368D01*
X84554888Y-97567735D01*
X84611689Y-97491947D01*
X84611691Y-97491944D01*
X84617071Y-97484765D01*
X84650954Y-97394380D01*
X84665026Y-97356844D01*
X84665026Y-97356842D01*
X84667798Y-97349449D01*
X84671115Y-97318921D01*
X84674131Y-97291154D01*
X84674131Y-97291153D01*
X84674500Y-97287757D01*
X84674500Y-96937015D01*
X84694502Y-96868894D01*
X84711405Y-96847920D01*
X85795920Y-95763405D01*
X85858232Y-95729379D01*
X85885015Y-95726500D01*
X86963080Y-95726500D01*
X86974582Y-95727816D01*
X86974625Y-95727273D01*
X86984014Y-95728012D01*
X86993191Y-95730139D01*
X87002587Y-95729474D01*
X87002590Y-95729474D01*
X87040137Y-95726815D01*
X87049036Y-95726500D01*
X89344653Y-95726500D01*
X89412774Y-95746502D01*
X89459267Y-95800158D01*
X89469371Y-95870432D01*
X89449107Y-95922428D01*
X89447163Y-95924745D01*
X89441551Y-95934953D01*
X89357407Y-96088013D01*
X89352262Y-96097371D01*
X89350398Y-96103246D01*
X89350397Y-96103249D01*
X89321139Y-96195481D01*
X89292697Y-96285142D01*
X89270738Y-96480907D01*
X89271428Y-96489121D01*
X89286501Y-96668622D01*
X89287222Y-96677209D01*
X89303634Y-96734444D01*
X89339310Y-96858859D01*
X89341521Y-96866570D01*
X89365590Y-96913403D01*
X89426814Y-97032532D01*
X89431566Y-97041779D01*
X89435389Y-97046603D01*
X89435392Y-97046607D01*
X89540916Y-97179744D01*
X89553927Y-97196160D01*
X89558620Y-97200154D01*
X89558621Y-97200155D01*
X89678052Y-97301798D01*
X89703945Y-97323835D01*
X89709323Y-97326841D01*
X89709325Y-97326842D01*
X89847453Y-97404039D01*
X89875904Y-97419940D01*
X90063255Y-97480814D01*
X90258862Y-97504139D01*
X90264997Y-97503667D01*
X90264999Y-97503667D01*
X90324801Y-97499065D01*
X90455274Y-97489026D01*
X90645009Y-97436050D01*
X90650513Y-97433270D01*
X90815341Y-97350010D01*
X90815343Y-97350009D01*
X90820842Y-97347231D01*
X90976074Y-97225950D01*
X90980100Y-97221286D01*
X90980103Y-97221283D01*
X91100764Y-97081496D01*
X91100765Y-97081494D01*
X91104793Y-97076828D01*
X91202096Y-96905544D01*
X91264277Y-96718622D01*
X91288966Y-96523183D01*
X91289360Y-96495000D01*
X91270137Y-96298948D01*
X91213200Y-96110363D01*
X91192802Y-96072000D01*
X91123611Y-95941871D01*
X91123609Y-95941868D01*
X91120717Y-95936429D01*
X91116820Y-95931651D01*
X91113413Y-95926523D01*
X91114537Y-95925776D01*
X91089661Y-95866702D01*
X91101857Y-95796761D01*
X91149930Y-95744517D01*
X91214858Y-95726500D01*
X91369985Y-95726500D01*
X91438106Y-95746502D01*
X91459080Y-95763405D01*
X91814197Y-96118522D01*
X91848223Y-96180834D01*
X91845204Y-96245715D01*
X91832697Y-96285142D01*
X91810738Y-96480907D01*
X91811428Y-96489121D01*
X91826501Y-96668622D01*
X91827222Y-96677209D01*
X91843634Y-96734444D01*
X91879310Y-96858859D01*
X91881521Y-96866570D01*
X91905590Y-96913403D01*
X91966814Y-97032532D01*
X91971566Y-97041779D01*
X91975389Y-97046603D01*
X91975392Y-97046607D01*
X92080916Y-97179744D01*
X92093927Y-97196160D01*
X92098620Y-97200154D01*
X92098621Y-97200155D01*
X92218052Y-97301798D01*
X92243945Y-97323835D01*
X92249323Y-97326841D01*
X92249325Y-97326842D01*
X92387453Y-97404039D01*
X92415904Y-97419940D01*
X92603255Y-97480814D01*
X92798862Y-97504139D01*
X92804997Y-97503667D01*
X92804999Y-97503667D01*
X92864801Y-97499065D01*
X92995274Y-97489026D01*
X93185009Y-97436050D01*
X93190513Y-97433270D01*
X93355341Y-97350010D01*
X93355343Y-97350009D01*
X93360842Y-97347231D01*
X93516074Y-97225950D01*
X93520100Y-97221286D01*
X93520103Y-97221283D01*
X93640764Y-97081496D01*
X93640765Y-97081494D01*
X93644793Y-97076828D01*
X93742096Y-96905544D01*
X93804277Y-96718622D01*
X93828966Y-96523183D01*
X93829360Y-96495000D01*
X93810137Y-96298948D01*
X93753200Y-96110363D01*
X93732802Y-96072000D01*
X93663611Y-95941871D01*
X93663609Y-95941868D01*
X93660717Y-95936429D01*
X93536212Y-95783770D01*
X93459097Y-95719975D01*
X93389177Y-95662132D01*
X93389174Y-95662130D01*
X93384427Y-95658203D01*
X93211143Y-95564508D01*
X93141216Y-95542862D01*
X93119469Y-95536130D01*
X93060309Y-95496879D01*
X93031762Y-95431874D01*
X93042891Y-95361755D01*
X93090162Y-95308784D01*
X93122837Y-95294409D01*
X93185009Y-95277050D01*
X93190513Y-95274270D01*
X93355341Y-95191010D01*
X93355343Y-95191009D01*
X93360842Y-95188231D01*
X93516074Y-95066950D01*
X93520100Y-95062286D01*
X93520103Y-95062283D01*
X93640764Y-94922496D01*
X93640765Y-94922494D01*
X93644793Y-94917828D01*
X93674992Y-94864668D01*
X94809801Y-94864668D01*
X94810171Y-94871490D01*
X94815695Y-94922352D01*
X94819321Y-94937604D01*
X94864476Y-95058054D01*
X94873014Y-95073649D01*
X94949515Y-95175724D01*
X94962076Y-95188285D01*
X95064151Y-95264786D01*
X95079746Y-95273324D01*
X95200194Y-95318478D01*
X95215449Y-95322105D01*
X95266314Y-95327631D01*
X95273128Y-95328000D01*
X96295685Y-95328000D01*
X96310924Y-95323525D01*
X96312129Y-95322135D01*
X96313800Y-95314452D01*
X96313800Y-95309884D01*
X96821800Y-95309884D01*
X96826275Y-95325123D01*
X96827665Y-95326328D01*
X96835348Y-95327999D01*
X97862469Y-95327999D01*
X97869290Y-95327629D01*
X97920152Y-95322105D01*
X97935404Y-95318479D01*
X98055854Y-95273324D01*
X98071449Y-95264786D01*
X98173524Y-95188285D01*
X98186085Y-95175724D01*
X98262586Y-95073649D01*
X98271124Y-95058054D01*
X98316278Y-94937606D01*
X98319905Y-94922351D01*
X98325431Y-94871486D01*
X98325800Y-94864668D01*
X98325800Y-93592115D01*
X98321325Y-93576876D01*
X98319935Y-93575671D01*
X98312252Y-93574000D01*
X96839915Y-93574000D01*
X96824676Y-93578475D01*
X96823471Y-93579865D01*
X96821800Y-93587548D01*
X96821800Y-95309884D01*
X96313800Y-95309884D01*
X96313800Y-93592115D01*
X96309325Y-93576876D01*
X96307935Y-93575671D01*
X96300252Y-93574000D01*
X94827916Y-93574000D01*
X94812677Y-93578475D01*
X94811472Y-93579865D01*
X94809801Y-93587548D01*
X94809801Y-94864668D01*
X93674992Y-94864668D01*
X93742096Y-94746544D01*
X93804277Y-94559622D01*
X93828966Y-94364183D01*
X93829360Y-94336000D01*
X93810137Y-94139948D01*
X93753200Y-93951363D01*
X93705269Y-93861218D01*
X93663611Y-93782871D01*
X93663609Y-93782868D01*
X93660717Y-93777429D01*
X93536212Y-93624770D01*
X93464626Y-93565549D01*
X93389177Y-93503132D01*
X93389174Y-93503130D01*
X93384427Y-93499203D01*
X93211143Y-93405508D01*
X93158024Y-93389065D01*
X93119469Y-93377130D01*
X93060309Y-93337879D01*
X93031762Y-93272874D01*
X93042891Y-93202755D01*
X93090162Y-93149784D01*
X93122837Y-93135409D01*
X93185009Y-93118050D01*
X93196612Y-93112189D01*
X93323914Y-93047885D01*
X94809800Y-93047885D01*
X94814275Y-93063124D01*
X94815665Y-93064329D01*
X94823348Y-93066000D01*
X96295685Y-93066000D01*
X96310924Y-93061525D01*
X96312129Y-93060135D01*
X96313800Y-93052452D01*
X96313800Y-93047885D01*
X96821800Y-93047885D01*
X96826275Y-93063124D01*
X96827665Y-93064329D01*
X96835348Y-93066000D01*
X98307684Y-93066000D01*
X98322923Y-93061525D01*
X98324128Y-93060135D01*
X98325799Y-93052452D01*
X98325799Y-91775331D01*
X98325429Y-91768510D01*
X98319905Y-91717648D01*
X98316279Y-91702396D01*
X98271124Y-91581946D01*
X98262586Y-91566351D01*
X98186085Y-91464276D01*
X98173524Y-91451715D01*
X98071449Y-91375214D01*
X98055854Y-91366676D01*
X97935406Y-91321522D01*
X97920151Y-91317895D01*
X97869286Y-91312369D01*
X97862472Y-91312000D01*
X96839915Y-91312000D01*
X96824676Y-91316475D01*
X96823471Y-91317865D01*
X96821800Y-91325548D01*
X96821800Y-93047885D01*
X96313800Y-93047885D01*
X96313800Y-91330116D01*
X96309325Y-91314877D01*
X96307935Y-91313672D01*
X96300252Y-91312001D01*
X95273131Y-91312001D01*
X95266310Y-91312371D01*
X95215448Y-91317895D01*
X95200196Y-91321521D01*
X95079746Y-91366676D01*
X95064151Y-91375214D01*
X94962076Y-91451715D01*
X94949515Y-91464276D01*
X94873014Y-91566351D01*
X94864476Y-91581946D01*
X94819322Y-91702394D01*
X94815695Y-91717649D01*
X94810169Y-91768514D01*
X94809800Y-91775328D01*
X94809800Y-93047885D01*
X93323914Y-93047885D01*
X93355341Y-93032010D01*
X93355343Y-93032009D01*
X93360842Y-93029231D01*
X93516074Y-92907950D01*
X93520100Y-92903286D01*
X93520103Y-92903283D01*
X93640764Y-92763496D01*
X93640765Y-92763494D01*
X93644793Y-92758828D01*
X93742096Y-92587544D01*
X93804277Y-92400622D01*
X93828966Y-92205183D01*
X93829360Y-92177000D01*
X93810137Y-91980948D01*
X93753200Y-91792363D01*
X93713473Y-91717648D01*
X93663611Y-91623871D01*
X93663609Y-91623868D01*
X93660717Y-91618429D01*
X93536212Y-91465770D01*
X93531470Y-91461847D01*
X93531466Y-91461843D01*
X93476068Y-91416014D01*
X93436330Y-91357181D01*
X93434709Y-91286202D01*
X93471718Y-91225615D01*
X93484114Y-91215716D01*
X93497149Y-91206589D01*
X93505523Y-91196112D01*
X93498457Y-91182668D01*
X92832811Y-90517021D01*
X92818868Y-90509408D01*
X92817034Y-90509539D01*
X92810420Y-90513790D01*
X92140820Y-91183391D01*
X92134393Y-91195161D01*
X92143686Y-91207174D01*
X92155549Y-91215480D01*
X92199878Y-91270937D01*
X92207187Y-91341556D01*
X92175157Y-91404917D01*
X92162231Y-91416891D01*
X92131206Y-91441836D01*
X92113788Y-91455840D01*
X91987163Y-91606745D01*
X91981086Y-91617800D01*
X91897139Y-91770500D01*
X91892262Y-91779371D01*
X91890398Y-91785246D01*
X91890397Y-91785249D01*
X91863715Y-91869363D01*
X91832697Y-91967142D01*
X91810738Y-92162907D01*
X91811254Y-92169051D01*
X91825010Y-92332865D01*
X91827222Y-92359209D01*
X91844094Y-92418048D01*
X91879692Y-92542191D01*
X91881521Y-92548570D01*
X91898543Y-92581691D01*
X91959502Y-92700304D01*
X91971566Y-92723779D01*
X91975389Y-92728603D01*
X91975392Y-92728607D01*
X92068248Y-92845761D01*
X92093927Y-92878160D01*
X92098620Y-92882154D01*
X92098621Y-92882155D01*
X92238786Y-93001444D01*
X92243945Y-93005835D01*
X92249323Y-93008841D01*
X92249325Y-93008842D01*
X92381720Y-93082835D01*
X92415904Y-93101940D01*
X92490217Y-93126086D01*
X92522693Y-93136638D01*
X92581299Y-93176712D01*
X92608936Y-93242108D01*
X92596829Y-93312065D01*
X92548823Y-93364371D01*
X92519333Y-93377344D01*
X92441887Y-93400138D01*
X92436427Y-93402992D01*
X92436428Y-93402992D01*
X92272772Y-93488549D01*
X92272768Y-93488552D01*
X92267312Y-93491404D01*
X92262512Y-93495264D01*
X92262511Y-93495264D01*
X92142052Y-93592115D01*
X92113788Y-93614840D01*
X91987163Y-93765745D01*
X91972986Y-93791533D01*
X91904239Y-93916585D01*
X91892262Y-93938371D01*
X91890398Y-93944246D01*
X91890397Y-93944249D01*
X91864101Y-94027145D01*
X91832697Y-94126142D01*
X91810738Y-94321907D01*
X91811254Y-94328051D01*
X91826075Y-94504549D01*
X91827222Y-94518209D01*
X91847541Y-94589070D01*
X91877705Y-94694263D01*
X91877254Y-94765259D01*
X91838493Y-94824740D01*
X91773726Y-94853823D01*
X91714838Y-94847877D01*
X91690827Y-94839445D01*
X91683698Y-94839165D01*
X91676900Y-94837015D01*
X91670357Y-94836500D01*
X91618341Y-94836500D01*
X91613395Y-94836403D01*
X91613133Y-94836393D01*
X91557116Y-94834192D01*
X91550081Y-94836057D01*
X91542035Y-94836500D01*
X87599500Y-94836500D01*
X87531379Y-94816498D01*
X87484886Y-94762842D01*
X87473500Y-94710500D01*
X87473500Y-92704887D01*
X87474373Y-92690077D01*
X87477197Y-92666216D01*
X87478304Y-92656864D01*
X87467893Y-92599859D01*
X87467245Y-92595966D01*
X87461588Y-92558340D01*
X87458632Y-92538674D01*
X87455544Y-92532243D01*
X87454263Y-92525229D01*
X87427556Y-92473815D01*
X87425787Y-92470275D01*
X87404788Y-92426544D01*
X87404787Y-92426543D01*
X87400708Y-92418048D01*
X87395866Y-92412810D01*
X87392579Y-92406482D01*
X87388316Y-92401491D01*
X87351537Y-92364712D01*
X87348108Y-92361146D01*
X87316270Y-92326704D01*
X87309875Y-92319786D01*
X87303581Y-92316130D01*
X87297578Y-92310753D01*
X86541314Y-91554489D01*
X86507288Y-91492177D01*
X86512353Y-91421362D01*
X86529582Y-91389830D01*
X86606689Y-91286945D01*
X86612071Y-91279764D01*
X86636081Y-91215716D01*
X86660026Y-91151842D01*
X86660026Y-91151841D01*
X86662798Y-91144447D01*
X86669500Y-91082755D01*
X86669499Y-90130907D01*
X89270738Y-90130907D01*
X89272217Y-90148522D01*
X89286501Y-90318622D01*
X89287222Y-90327209D01*
X89305868Y-90392234D01*
X89339505Y-90509539D01*
X89341521Y-90516570D01*
X89344336Y-90522047D01*
X89421128Y-90671468D01*
X89431566Y-90691779D01*
X89435389Y-90696603D01*
X89435392Y-90696607D01*
X89533777Y-90820737D01*
X89553927Y-90846160D01*
X89558620Y-90850154D01*
X89558621Y-90850155D01*
X89677119Y-90951004D01*
X89703945Y-90973835D01*
X89709323Y-90976841D01*
X89709325Y-90976842D01*
X89858881Y-91060426D01*
X89875904Y-91069940D01*
X90063255Y-91130814D01*
X90258862Y-91154139D01*
X90264997Y-91153667D01*
X90264999Y-91153667D01*
X90324801Y-91149065D01*
X90455274Y-91139026D01*
X90645009Y-91086050D01*
X90650513Y-91083270D01*
X90815341Y-91000010D01*
X90815343Y-91000009D01*
X90820842Y-90997231D01*
X90976074Y-90875950D01*
X90980100Y-90871286D01*
X90980103Y-90871283D01*
X91100764Y-90731496D01*
X91100765Y-90731494D01*
X91104793Y-90726828D01*
X91202096Y-90555544D01*
X91264277Y-90368622D01*
X91288966Y-90173183D01*
X91289226Y-90154580D01*
X91289284Y-90150475D01*
X91557674Y-90150475D01*
X91575901Y-90358804D01*
X91577804Y-90369599D01*
X91631928Y-90571595D01*
X91635674Y-90581887D01*
X91724054Y-90771417D01*
X91729534Y-90780907D01*
X91758411Y-90822149D01*
X91768887Y-90830523D01*
X91782334Y-90823455D01*
X92447979Y-90157811D01*
X92454356Y-90146132D01*
X93184408Y-90146132D01*
X93184539Y-90147966D01*
X93188790Y-90154580D01*
X93858391Y-90824180D01*
X93870161Y-90830607D01*
X93882176Y-90821311D01*
X93910466Y-90780907D01*
X93915946Y-90771417D01*
X94004326Y-90581887D01*
X94008072Y-90571595D01*
X94062196Y-90369599D01*
X94064099Y-90358804D01*
X94082326Y-90150475D01*
X94082326Y-90139525D01*
X94064099Y-89931196D01*
X94062196Y-89920401D01*
X94008072Y-89718405D01*
X94004326Y-89708113D01*
X93915946Y-89518583D01*
X93910466Y-89509093D01*
X93881589Y-89467851D01*
X93871113Y-89459477D01*
X93857666Y-89466545D01*
X93192021Y-90132189D01*
X93184408Y-90146132D01*
X92454356Y-90146132D01*
X92455592Y-90143868D01*
X92455461Y-90142034D01*
X92451210Y-90135420D01*
X91781609Y-89465820D01*
X91769839Y-89459393D01*
X91757824Y-89468689D01*
X91729534Y-89509093D01*
X91724054Y-89518583D01*
X91635674Y-89708113D01*
X91631928Y-89718405D01*
X91577804Y-89920401D01*
X91575901Y-89931196D01*
X91557674Y-90139525D01*
X91557674Y-90150475D01*
X91289284Y-90150475D01*
X91289311Y-90148522D01*
X91289311Y-90148518D01*
X91289360Y-90145000D01*
X91270137Y-89948948D01*
X91213200Y-89760363D01*
X91191524Y-89719596D01*
X91123611Y-89591871D01*
X91123609Y-89591868D01*
X91120717Y-89586429D01*
X90996212Y-89433770D01*
X90912347Y-89364391D01*
X90849177Y-89312132D01*
X90849174Y-89312130D01*
X90844427Y-89308203D01*
X90671143Y-89214508D01*
X90482960Y-89156256D01*
X90476835Y-89155612D01*
X90476834Y-89155612D01*
X90293176Y-89136309D01*
X90293174Y-89136309D01*
X90287047Y-89135665D01*
X90205977Y-89143043D01*
X90097004Y-89152960D01*
X90097001Y-89152961D01*
X90090865Y-89153519D01*
X90084959Y-89155257D01*
X90084955Y-89155258D01*
X89970667Y-89188895D01*
X89901887Y-89209138D01*
X89896427Y-89211992D01*
X89896428Y-89211992D01*
X89732772Y-89297549D01*
X89732768Y-89297552D01*
X89727312Y-89300404D01*
X89722512Y-89304264D01*
X89722511Y-89304264D01*
X89586937Y-89413268D01*
X89573788Y-89423840D01*
X89447163Y-89574745D01*
X89443064Y-89582202D01*
X89364287Y-89725498D01*
X89352262Y-89747371D01*
X89350398Y-89753246D01*
X89350397Y-89753249D01*
X89325970Y-89830254D01*
X89292697Y-89935142D01*
X89270738Y-90130907D01*
X86669499Y-90130907D01*
X86669499Y-90062246D01*
X86667317Y-90042157D01*
X86663652Y-90008411D01*
X86663651Y-90008407D01*
X86662798Y-90000553D01*
X86612071Y-89865236D01*
X86606691Y-89858057D01*
X86606689Y-89858054D01*
X86536951Y-89765003D01*
X86525404Y-89749596D01*
X86476283Y-89712782D01*
X86416946Y-89668311D01*
X86416943Y-89668309D01*
X86409764Y-89662929D01*
X86345577Y-89638867D01*
X86281842Y-89614974D01*
X86281841Y-89614974D01*
X86274447Y-89612202D01*
X86266597Y-89611349D01*
X86266596Y-89611349D01*
X86216152Y-89605869D01*
X86216151Y-89605869D01*
X86212755Y-89605500D01*
X85941000Y-89605500D01*
X85872879Y-89585498D01*
X85826386Y-89531842D01*
X85815000Y-89479500D01*
X85815000Y-89460499D01*
X85835002Y-89392378D01*
X85888658Y-89345885D01*
X85941000Y-89334499D01*
X86145066Y-89334499D01*
X86180818Y-89327388D01*
X86207126Y-89322156D01*
X86207128Y-89322155D01*
X86219301Y-89319734D01*
X86229621Y-89312839D01*
X86229622Y-89312838D01*
X86293168Y-89270377D01*
X86303484Y-89263484D01*
X86359734Y-89179301D01*
X86374500Y-89105067D01*
X86374500Y-89093887D01*
X92134477Y-89093887D01*
X92141545Y-89107334D01*
X92807189Y-89772979D01*
X92821132Y-89780592D01*
X92822966Y-89780461D01*
X92829580Y-89776210D01*
X93499180Y-89106609D01*
X93505607Y-89094839D01*
X93496313Y-89082825D01*
X93455912Y-89054536D01*
X93446416Y-89049053D01*
X93256887Y-88960674D01*
X93246595Y-88956928D01*
X93044599Y-88902804D01*
X93033804Y-88900901D01*
X92825475Y-88882674D01*
X92814525Y-88882674D01*
X92606196Y-88900901D01*
X92595401Y-88902804D01*
X92393405Y-88956928D01*
X92383113Y-88960674D01*
X92193583Y-89049054D01*
X92184093Y-89054534D01*
X92142851Y-89083411D01*
X92134477Y-89093887D01*
X86374500Y-89093887D01*
X86374499Y-87629668D01*
X93352001Y-87629668D01*
X93352371Y-87636490D01*
X93357895Y-87687352D01*
X93361521Y-87702604D01*
X93406676Y-87823054D01*
X93415214Y-87838649D01*
X93491715Y-87940724D01*
X93504276Y-87953285D01*
X93606351Y-88029786D01*
X93621946Y-88038324D01*
X93742394Y-88083478D01*
X93757649Y-88087105D01*
X93808514Y-88092631D01*
X93815328Y-88093000D01*
X95087885Y-88093000D01*
X95103124Y-88088525D01*
X95104329Y-88087135D01*
X95106000Y-88079452D01*
X95106000Y-88074884D01*
X95614000Y-88074884D01*
X95618475Y-88090123D01*
X95619865Y-88091328D01*
X95627548Y-88092999D01*
X96904669Y-88092999D01*
X96911490Y-88092629D01*
X96962352Y-88087105D01*
X96977604Y-88083479D01*
X97098054Y-88038324D01*
X97113649Y-88029786D01*
X97215724Y-87953285D01*
X97228285Y-87940724D01*
X97304786Y-87838649D01*
X97313324Y-87823054D01*
X97358478Y-87702606D01*
X97362105Y-87687351D01*
X97367631Y-87636486D01*
X97368000Y-87629668D01*
X97368000Y-86607115D01*
X97363525Y-86591876D01*
X97362135Y-86590671D01*
X97354452Y-86589000D01*
X95632115Y-86589000D01*
X95616876Y-86593475D01*
X95615671Y-86594865D01*
X95614000Y-86602548D01*
X95614000Y-88074884D01*
X95106000Y-88074884D01*
X95106000Y-86607115D01*
X95101525Y-86591876D01*
X95100135Y-86590671D01*
X95092452Y-86589000D01*
X93370116Y-86589000D01*
X93354877Y-86593475D01*
X93353672Y-86594865D01*
X93352001Y-86602548D01*
X93352001Y-87629668D01*
X86374499Y-87629668D01*
X86374499Y-87054934D01*
X86359734Y-86980699D01*
X86336799Y-86946374D01*
X86310377Y-86906832D01*
X86303484Y-86896516D01*
X86219301Y-86840266D01*
X86145067Y-86825500D01*
X85370126Y-86825500D01*
X84594934Y-86825501D01*
X84566447Y-86831167D01*
X84532874Y-86837844D01*
X84532872Y-86837845D01*
X84520699Y-86840266D01*
X84510379Y-86847161D01*
X84510378Y-86847162D01*
X84489911Y-86860838D01*
X84436516Y-86896516D01*
X84380266Y-86980699D01*
X84365500Y-87054933D01*
X84365501Y-89105066D01*
X84367658Y-89115911D01*
X84377324Y-89164508D01*
X84380266Y-89179301D01*
X84387161Y-89189620D01*
X84387162Y-89189622D01*
X84406853Y-89219091D01*
X84436516Y-89263484D01*
X84520699Y-89319734D01*
X84594933Y-89334500D01*
X84799000Y-89334500D01*
X84867121Y-89354502D01*
X84913614Y-89408158D01*
X84925000Y-89460500D01*
X84925000Y-89479501D01*
X84904998Y-89547622D01*
X84851342Y-89594115D01*
X84799000Y-89605501D01*
X83967246Y-89605501D01*
X83963852Y-89605870D01*
X83963846Y-89605870D01*
X83913411Y-89611348D01*
X83913407Y-89611349D01*
X83905553Y-89612202D01*
X83770236Y-89662929D01*
X83763057Y-89668309D01*
X83763054Y-89668311D01*
X83703717Y-89712782D01*
X83654596Y-89749596D01*
X83643049Y-89765003D01*
X83573311Y-89858054D01*
X83573309Y-89858057D01*
X83567929Y-89865236D01*
X83517202Y-90000553D01*
X83510500Y-90062245D01*
X83510501Y-91082754D01*
X83510870Y-91086148D01*
X83510870Y-91086154D01*
X83514747Y-91121842D01*
X83517202Y-91144447D01*
X83552355Y-91238220D01*
X83563480Y-91267895D01*
X83567929Y-91279764D01*
X83573311Y-91286945D01*
X83573314Y-91286950D01*
X83582904Y-91299747D01*
X83607750Y-91366254D01*
X83592695Y-91435636D01*
X83571171Y-91464404D01*
X83117480Y-91918095D01*
X83055168Y-91952121D01*
X83028385Y-91955000D01*
X79672134Y-91955000D01*
X79604013Y-91934998D01*
X79557520Y-91881342D01*
X79548252Y-91810909D01*
X79547795Y-91810868D01*
X79547978Y-91808829D01*
X79547881Y-91808092D01*
X79548230Y-91806018D01*
X79548230Y-91806013D01*
X79549037Y-91801219D01*
X79549174Y-91790000D01*
X79530718Y-91661125D01*
X79490969Y-91573703D01*
X79480545Y-91550776D01*
X79480545Y-91550775D01*
X79476832Y-91542610D01*
X79475389Y-91540935D01*
X79456488Y-91476036D01*
X79456749Y-91475154D01*
X79403432Y-91455302D01*
X79397407Y-91450433D01*
X79391850Y-91443983D01*
X79384319Y-91439102D01*
X79384316Y-91439099D01*
X79318952Y-91396732D01*
X79272668Y-91342896D01*
X79262837Y-91272584D01*
X79292581Y-91208118D01*
X79352456Y-91169967D01*
X79387484Y-91165000D01*
X79438825Y-91165000D01*
X79506946Y-91185002D01*
X79549443Y-91234046D01*
X79550467Y-91233485D01*
X79553059Y-91238220D01*
X79553439Y-91238658D01*
X79553878Y-91239715D01*
X79554778Y-91241360D01*
X79557929Y-91249764D01*
X79579711Y-91278828D01*
X79604558Y-91345332D01*
X79602984Y-91352588D01*
X79658052Y-91375488D01*
X79684625Y-91395404D01*
X79753054Y-91446689D01*
X79753057Y-91446691D01*
X79760236Y-91452071D01*
X79793135Y-91464404D01*
X79888158Y-91500026D01*
X79888159Y-91500026D01*
X79895553Y-91502798D01*
X79903403Y-91503651D01*
X79903404Y-91503651D01*
X79953839Y-91509130D01*
X79957245Y-91509500D01*
X81079835Y-91509500D01*
X82202754Y-91509499D01*
X82206148Y-91509130D01*
X82206154Y-91509130D01*
X82256589Y-91503652D01*
X82256593Y-91503651D01*
X82264447Y-91502798D01*
X82399764Y-91452071D01*
X82406943Y-91446691D01*
X82406946Y-91446689D01*
X82501673Y-91375695D01*
X82515404Y-91365404D01*
X82551010Y-91317895D01*
X82596689Y-91256946D01*
X82596691Y-91256942D01*
X82602071Y-91249764D01*
X82635681Y-91160108D01*
X82650026Y-91121842D01*
X82650026Y-91121841D01*
X82652798Y-91114447D01*
X82659500Y-91052755D01*
X82659499Y-90032246D01*
X82656910Y-90008404D01*
X82653651Y-89978404D01*
X82653651Y-89978402D01*
X82652798Y-89970553D01*
X82650026Y-89963158D01*
X82648198Y-89955468D01*
X82649566Y-89955143D01*
X82645002Y-89892768D01*
X82679071Y-89830254D01*
X83137921Y-89371404D01*
X83200233Y-89337378D01*
X83227016Y-89334499D01*
X83845066Y-89334499D01*
X83880818Y-89327388D01*
X83907126Y-89322156D01*
X83907128Y-89322155D01*
X83919301Y-89319734D01*
X83929621Y-89312839D01*
X83929622Y-89312838D01*
X83993168Y-89270377D01*
X84003484Y-89263484D01*
X84059734Y-89179301D01*
X84074500Y-89105067D01*
X84074499Y-87054934D01*
X84059734Y-86980699D01*
X84036799Y-86946374D01*
X84003484Y-86896516D01*
X84004458Y-86895865D01*
X83976504Y-86844673D01*
X83981569Y-86773858D01*
X84010530Y-86728795D01*
X84676440Y-86062885D01*
X93352000Y-86062885D01*
X93356475Y-86078124D01*
X93357865Y-86079329D01*
X93365548Y-86081000D01*
X95087885Y-86081000D01*
X95103124Y-86076525D01*
X95104329Y-86075135D01*
X95106000Y-86067452D01*
X95106000Y-84595116D01*
X95101525Y-84579877D01*
X95100135Y-84578672D01*
X95092452Y-84577001D01*
X93815331Y-84577001D01*
X93808510Y-84577371D01*
X93757648Y-84582895D01*
X93742396Y-84586521D01*
X93621946Y-84631676D01*
X93606351Y-84640214D01*
X93504276Y-84716715D01*
X93491715Y-84729276D01*
X93415214Y-84831351D01*
X93406676Y-84846946D01*
X93361522Y-84967394D01*
X93357895Y-84982649D01*
X93352369Y-85033514D01*
X93352000Y-85040328D01*
X93352000Y-86062885D01*
X84676440Y-86062885D01*
X84870698Y-85868627D01*
X84881787Y-85858772D01*
X84900658Y-85843895D01*
X84908055Y-85838064D01*
X84941031Y-85790351D01*
X84943237Y-85787263D01*
X84977718Y-85740581D01*
X84980082Y-85733850D01*
X84984136Y-85727984D01*
X85001599Y-85672766D01*
X85002847Y-85669025D01*
X85018935Y-85623214D01*
X85018936Y-85623209D01*
X85022055Y-85614327D01*
X85022335Y-85607198D01*
X85024485Y-85600400D01*
X85025000Y-85593857D01*
X85025000Y-85541842D01*
X85025097Y-85536896D01*
X85026131Y-85510578D01*
X85027308Y-85480617D01*
X85025443Y-85473582D01*
X85025000Y-85465536D01*
X85025000Y-83500000D01*
X89690517Y-83500000D01*
X89710411Y-83727389D01*
X89711835Y-83732703D01*
X89711835Y-83732704D01*
X89745558Y-83858560D01*
X89769488Y-83947870D01*
X89771810Y-83952850D01*
X89771811Y-83952852D01*
X89863628Y-84149754D01*
X89863629Y-84149755D01*
X89865954Y-84154741D01*
X89939257Y-84259428D01*
X89982699Y-84321469D01*
X89996878Y-84341719D01*
X90158281Y-84503122D01*
X90162789Y-84506279D01*
X90162792Y-84506281D01*
X90212460Y-84541059D01*
X90345259Y-84634046D01*
X90350241Y-84636369D01*
X90350246Y-84636372D01*
X90547148Y-84728189D01*
X90552130Y-84730512D01*
X90557438Y-84731934D01*
X90557440Y-84731935D01*
X90698771Y-84769804D01*
X90772611Y-84789589D01*
X90871972Y-84798282D01*
X90940320Y-84804262D01*
X90940327Y-84804262D01*
X90943044Y-84804500D01*
X91056956Y-84804500D01*
X91059673Y-84804262D01*
X91059680Y-84804262D01*
X91128028Y-84798282D01*
X91227389Y-84789589D01*
X91301229Y-84769804D01*
X91442560Y-84731935D01*
X91442562Y-84731934D01*
X91447870Y-84730512D01*
X91452852Y-84728189D01*
X91649754Y-84636372D01*
X91649759Y-84636369D01*
X91654741Y-84634046D01*
X91787540Y-84541059D01*
X91837208Y-84506281D01*
X91837211Y-84506279D01*
X91841719Y-84503122D01*
X92003122Y-84341719D01*
X92017302Y-84321469D01*
X92071179Y-84244524D01*
X92134046Y-84154742D01*
X92136369Y-84149760D01*
X92136372Y-84149755D01*
X92228189Y-83952852D01*
X92228190Y-83952851D01*
X92230512Y-83947870D01*
X92254443Y-83858560D01*
X92288165Y-83732704D01*
X92288165Y-83732703D01*
X92289589Y-83727389D01*
X92309483Y-83500000D01*
X92289589Y-83272611D01*
X92283489Y-83249844D01*
X92231935Y-83057440D01*
X92231934Y-83057438D01*
X92230512Y-83052130D01*
X92221816Y-83033482D01*
X92136372Y-82850246D01*
X92136369Y-82850241D01*
X92134046Y-82845259D01*
X92025596Y-82690377D01*
X92006281Y-82662792D01*
X92006279Y-82662789D01*
X92003122Y-82658281D01*
X91841719Y-82496878D01*
X91835396Y-82492450D01*
X91754358Y-82435707D01*
X91654741Y-82365954D01*
X91649759Y-82363631D01*
X91649754Y-82363628D01*
X91452852Y-82271811D01*
X91452850Y-82271810D01*
X91447870Y-82269488D01*
X91442562Y-82268066D01*
X91442560Y-82268065D01*
X91232704Y-82211835D01*
X91232703Y-82211835D01*
X91227389Y-82210411D01*
X91128028Y-82201718D01*
X91059680Y-82195738D01*
X91059673Y-82195738D01*
X91056956Y-82195500D01*
X90943044Y-82195500D01*
X90940327Y-82195738D01*
X90940320Y-82195738D01*
X90871972Y-82201718D01*
X90772611Y-82210411D01*
X90767297Y-82211835D01*
X90767296Y-82211835D01*
X90557440Y-82268065D01*
X90557438Y-82268066D01*
X90552130Y-82269488D01*
X90547150Y-82271810D01*
X90547148Y-82271811D01*
X90350246Y-82363628D01*
X90350241Y-82363631D01*
X90345259Y-82365954D01*
X90245642Y-82435707D01*
X90164605Y-82492450D01*
X90158281Y-82496878D01*
X89996878Y-82658281D01*
X89993721Y-82662790D01*
X89993719Y-82662792D01*
X89953185Y-82720681D01*
X89865954Y-82845258D01*
X89863631Y-82850240D01*
X89863628Y-82850245D01*
X89778184Y-83033482D01*
X89769488Y-83052130D01*
X89768066Y-83057438D01*
X89768065Y-83057440D01*
X89716511Y-83249844D01*
X89710411Y-83272611D01*
X89690517Y-83500000D01*
X85025000Y-83500000D01*
X85025000Y-83223887D01*
X85025873Y-83209077D01*
X85028697Y-83185217D01*
X85029804Y-83175864D01*
X85023556Y-83141654D01*
X85030994Y-83071050D01*
X85077502Y-83014254D01*
X85153484Y-82963484D01*
X85209734Y-82879301D01*
X85224500Y-82805067D01*
X85224500Y-82550321D01*
X85244502Y-82482200D01*
X85298158Y-82435707D01*
X85352478Y-82424337D01*
X85388355Y-82424901D01*
X85431319Y-82425576D01*
X85431322Y-82425576D01*
X85438916Y-82425695D01*
X85593332Y-82390329D01*
X85663742Y-82354917D01*
X85728072Y-82322563D01*
X85728075Y-82322561D01*
X85734855Y-82319151D01*
X85740626Y-82314222D01*
X85740629Y-82314220D01*
X85849536Y-82221204D01*
X85849536Y-82221203D01*
X85855314Y-82216269D01*
X85947755Y-82087624D01*
X86006842Y-81940641D01*
X86029162Y-81783807D01*
X86029307Y-81770000D01*
X86010276Y-81612733D01*
X85954280Y-81464546D01*
X85864553Y-81333992D01*
X85746275Y-81228611D01*
X85606274Y-81154484D01*
X85452633Y-81115892D01*
X85445034Y-81115852D01*
X85445033Y-81115852D01*
X85349838Y-81115353D01*
X85281823Y-81094994D01*
X85235612Y-81041096D01*
X85224499Y-80989355D01*
X85224499Y-80754934D01*
X85209734Y-80680699D01*
X85201351Y-80668152D01*
X85160377Y-80606832D01*
X85153484Y-80596516D01*
X85069301Y-80540266D01*
X84995067Y-80525500D01*
X83070156Y-80525500D01*
X81144934Y-80525501D01*
X81109182Y-80532612D01*
X81082874Y-80537844D01*
X81082872Y-80537845D01*
X81070699Y-80540266D01*
X81060379Y-80547161D01*
X81060378Y-80547162D01*
X80999985Y-80587516D01*
X80986516Y-80596516D01*
X80930266Y-80680699D01*
X80915500Y-80754933D01*
X80915501Y-82805066D01*
X80922190Y-82838695D01*
X80923786Y-82846721D01*
X80917457Y-82917435D01*
X80873902Y-82973501D01*
X80800207Y-82997300D01*
X78880000Y-82997300D01*
X78811879Y-82977298D01*
X78765386Y-82923642D01*
X78754000Y-82871300D01*
X78754000Y-80380000D01*
X78774002Y-80311879D01*
X78827658Y-80265386D01*
X78880000Y-80254000D01*
X95230196Y-80254000D01*
X95298317Y-80274002D01*
G37*
G04 #@! TD.AperFunction*
G04 #@! TA.AperFunction,Conductor*
G36*
X82833011Y-98831144D02*
G01*
X82839594Y-98837274D01*
X82978595Y-98976275D01*
X83012621Y-99038587D01*
X83015500Y-99065370D01*
X83015501Y-99472336D01*
X83015501Y-99873414D01*
X83015870Y-99876808D01*
X83015870Y-99876814D01*
X83021208Y-99925951D01*
X83022119Y-99934342D01*
X83024894Y-99941744D01*
X83024894Y-99941745D01*
X83050002Y-100008722D01*
X83072217Y-100067982D01*
X83157811Y-100182189D01*
X83164992Y-100187571D01*
X83257839Y-100257156D01*
X83272018Y-100267783D01*
X83335029Y-100291404D01*
X83391794Y-100334045D01*
X83416494Y-100400606D01*
X83416800Y-100409386D01*
X83416800Y-100926866D01*
X83396798Y-100994987D01*
X83343142Y-101041480D01*
X83335064Y-101044834D01*
X83262018Y-101072217D01*
X83147811Y-101157811D01*
X83062217Y-101272018D01*
X83059064Y-101280428D01*
X83055969Y-101286082D01*
X83005712Y-101336230D01*
X82936322Y-101351246D01*
X82869828Y-101326363D01*
X82825924Y-101265454D01*
X82803966Y-101199640D01*
X82797790Y-101186457D01*
X82713256Y-101049851D01*
X82704220Y-101038450D01*
X82590521Y-100924949D01*
X82579110Y-100915937D01*
X82442346Y-100831635D01*
X82429168Y-100825491D01*
X82276260Y-100774773D01*
X82262894Y-100771907D01*
X82169399Y-100762328D01*
X82162984Y-100762000D01*
X82144615Y-100762000D01*
X82129376Y-100766475D01*
X82128171Y-100767865D01*
X82126500Y-100775548D01*
X82126500Y-103159884D01*
X82130975Y-103175123D01*
X82132365Y-103176328D01*
X82140048Y-103177999D01*
X82162933Y-103177999D01*
X82169452Y-103177662D01*
X82264170Y-103167834D01*
X82277564Y-103164942D01*
X82430365Y-103113964D01*
X82443543Y-103107790D01*
X82580149Y-103023256D01*
X82591550Y-103014220D01*
X82705051Y-102900521D01*
X82714063Y-102889110D01*
X82798365Y-102752346D01*
X82804509Y-102739169D01*
X82825866Y-102674779D01*
X82866296Y-102616419D01*
X82931860Y-102589182D01*
X83001742Y-102601715D01*
X83055980Y-102653939D01*
X83059065Y-102659575D01*
X83062217Y-102667982D01*
X83067601Y-102675165D01*
X83067601Y-102675166D01*
X83115641Y-102739265D01*
X83147811Y-102782189D01*
X83154992Y-102787571D01*
X83207250Y-102826736D01*
X83262018Y-102867783D01*
X83270426Y-102870935D01*
X83388260Y-102915108D01*
X83388262Y-102915109D01*
X83395658Y-102917881D01*
X83456585Y-102924500D01*
X83571130Y-102924500D01*
X83639251Y-102944502D01*
X83685744Y-102998158D01*
X83695848Y-103068432D01*
X83666354Y-103133012D01*
X83660225Y-103139595D01*
X82730268Y-104069552D01*
X82722164Y-104076978D01*
X82701208Y-104094562D01*
X82701205Y-104094566D01*
X82692761Y-104101651D01*
X82687248Y-104111199D01*
X82686916Y-104111595D01*
X82627807Y-104150921D01*
X82556819Y-104152048D01*
X82516335Y-104132541D01*
X82417310Y-104060595D01*
X82411281Y-104057911D01*
X82411278Y-104057909D01*
X82244849Y-103983811D01*
X82244846Y-103983810D01*
X82238813Y-103981124D01*
X82130415Y-103958083D01*
X82054151Y-103941872D01*
X82054146Y-103941872D01*
X82047694Y-103940500D01*
X81852306Y-103940500D01*
X81845854Y-103941872D01*
X81845849Y-103941872D01*
X81769585Y-103958083D01*
X81661187Y-103981124D01*
X81655154Y-103983810D01*
X81655151Y-103983811D01*
X81488722Y-104057909D01*
X81488719Y-104057911D01*
X81482690Y-104060595D01*
X81477349Y-104064475D01*
X81477348Y-104064476D01*
X81373886Y-104139646D01*
X81324617Y-104175442D01*
X81320196Y-104180352D01*
X81320195Y-104180353D01*
X81271212Y-104234755D01*
X81193877Y-104320644D01*
X81150991Y-104394924D01*
X81114618Y-104457924D01*
X81063235Y-104506917D01*
X80993522Y-104520353D01*
X80927611Y-104493967D01*
X80886429Y-104436134D01*
X80879499Y-104394924D01*
X80879499Y-104169934D01*
X80870609Y-104125236D01*
X80867156Y-104107874D01*
X80867155Y-104107872D01*
X80864734Y-104095699D01*
X80849866Y-104073447D01*
X80815377Y-104021832D01*
X80808484Y-104011516D01*
X80769835Y-103985691D01*
X80734620Y-103962161D01*
X80724301Y-103955266D01*
X80650067Y-103940500D01*
X80521000Y-103940500D01*
X80452879Y-103920498D01*
X80406386Y-103866842D01*
X80395000Y-103814500D01*
X80395000Y-102701196D01*
X80415002Y-102633075D01*
X80445435Y-102600370D01*
X80458223Y-102590786D01*
X80458224Y-102590785D01*
X80465404Y-102585404D01*
X80507246Y-102529574D01*
X80546689Y-102476946D01*
X80546691Y-102476943D01*
X80549696Y-102472933D01*
X80877001Y-102472933D01*
X80877338Y-102479452D01*
X80887166Y-102574170D01*
X80890058Y-102587564D01*
X80941036Y-102740365D01*
X80947210Y-102753543D01*
X81031744Y-102890149D01*
X81040780Y-102901550D01*
X81154479Y-103015051D01*
X81165890Y-103024063D01*
X81302654Y-103108365D01*
X81315832Y-103114509D01*
X81468740Y-103165227D01*
X81482106Y-103168093D01*
X81575601Y-103177672D01*
X81582016Y-103178000D01*
X81600385Y-103178000D01*
X81615624Y-103173525D01*
X81616829Y-103172135D01*
X81618500Y-103164452D01*
X81618500Y-102242115D01*
X81614025Y-102226876D01*
X81612635Y-102225671D01*
X81604952Y-102224000D01*
X80895116Y-102224000D01*
X80879877Y-102228475D01*
X80878672Y-102229865D01*
X80877001Y-102237548D01*
X80877001Y-102472933D01*
X80549696Y-102472933D01*
X80552071Y-102469764D01*
X80598163Y-102346812D01*
X80600026Y-102341843D01*
X80600026Y-102341841D01*
X80602798Y-102334448D01*
X80609500Y-102272756D01*
X80609500Y-101697885D01*
X80877000Y-101697885D01*
X80881475Y-101713124D01*
X80882865Y-101714329D01*
X80890548Y-101716000D01*
X81600385Y-101716000D01*
X81615624Y-101711525D01*
X81616829Y-101710135D01*
X81618500Y-101702452D01*
X81618500Y-100780116D01*
X81614025Y-100764877D01*
X81612635Y-100763672D01*
X81604952Y-100762001D01*
X81582067Y-100762001D01*
X81575548Y-100762338D01*
X81480830Y-100772166D01*
X81467436Y-100775058D01*
X81314635Y-100826036D01*
X81301457Y-100832210D01*
X81164851Y-100916744D01*
X81153450Y-100925780D01*
X81039949Y-101039479D01*
X81030937Y-101050890D01*
X80946635Y-101187654D01*
X80940491Y-101200832D01*
X80889773Y-101353740D01*
X80886907Y-101367106D01*
X80877328Y-101460601D01*
X80877000Y-101467016D01*
X80877000Y-101697885D01*
X80609500Y-101697885D01*
X80609500Y-100927244D01*
X80605448Y-100889942D01*
X80603651Y-100873403D01*
X80603651Y-100873402D01*
X80602798Y-100865552D01*
X80552071Y-100730236D01*
X80546691Y-100723057D01*
X80546689Y-100723054D01*
X80470785Y-100621776D01*
X80465404Y-100614596D01*
X80427889Y-100586480D01*
X80356946Y-100533311D01*
X80356943Y-100533309D01*
X80349764Y-100527929D01*
X80260046Y-100494296D01*
X80221843Y-100479974D01*
X80221841Y-100479974D01*
X80214448Y-100477202D01*
X80206598Y-100476349D01*
X80206597Y-100476349D01*
X80156153Y-100470869D01*
X80156152Y-100470869D01*
X80152756Y-100470500D01*
X79307244Y-100470500D01*
X79303848Y-100470869D01*
X79303847Y-100470869D01*
X79253403Y-100476349D01*
X79253402Y-100476349D01*
X79245552Y-100477202D01*
X79238159Y-100479974D01*
X79238157Y-100479974D01*
X79110236Y-100527929D01*
X79109175Y-100525100D01*
X79054599Y-100537032D01*
X79045835Y-100533774D01*
X79016058Y-100595585D01*
X79008104Y-100602843D01*
X79008126Y-100602865D01*
X79001776Y-100609215D01*
X78994596Y-100614596D01*
X78989215Y-100621776D01*
X78913311Y-100723054D01*
X78913309Y-100723057D01*
X78907929Y-100730236D01*
X78857202Y-100865552D01*
X78856349Y-100873402D01*
X78856349Y-100873403D01*
X78854552Y-100889942D01*
X78850500Y-100927244D01*
X78850500Y-102272756D01*
X78857202Y-102334448D01*
X78859974Y-102341841D01*
X78859974Y-102341843D01*
X78861837Y-102346812D01*
X78907929Y-102469764D01*
X78913309Y-102476943D01*
X78913311Y-102476946D01*
X78952754Y-102529574D01*
X78994596Y-102585404D01*
X79001775Y-102590784D01*
X79001776Y-102590785D01*
X79103054Y-102666689D01*
X79103057Y-102666691D01*
X79110236Y-102672071D01*
X79182305Y-102699088D01*
X79238157Y-102720026D01*
X79238159Y-102720026D01*
X79245552Y-102722798D01*
X79253402Y-102723651D01*
X79253403Y-102723651D01*
X79281718Y-102726727D01*
X79307244Y-102729500D01*
X79379000Y-102729500D01*
X79447121Y-102749502D01*
X79493614Y-102803158D01*
X79505000Y-102855500D01*
X79505000Y-103336846D01*
X79484998Y-103404967D01*
X79431342Y-103451460D01*
X79361068Y-103461564D01*
X79296488Y-103432070D01*
X79269882Y-103399847D01*
X79255739Y-103375351D01*
X79226347Y-103350688D01*
X79218244Y-103343263D01*
X78815543Y-102940563D01*
X78808117Y-102932459D01*
X78790533Y-102911503D01*
X78790532Y-102911502D01*
X78783449Y-102903061D01*
X78750225Y-102883878D01*
X78740955Y-102877973D01*
X78718550Y-102862285D01*
X78718547Y-102862284D01*
X78709516Y-102855960D01*
X78698867Y-102853106D01*
X78695489Y-102851531D01*
X78691996Y-102850260D01*
X78682451Y-102844749D01*
X78671598Y-102842835D01*
X78671597Y-102842835D01*
X78660500Y-102840878D01*
X78644653Y-102838084D01*
X78633939Y-102835709D01*
X78596867Y-102825776D01*
X78585892Y-102826736D01*
X78585891Y-102826736D01*
X78558632Y-102829121D01*
X78547651Y-102829600D01*
X77717792Y-102829600D01*
X77649671Y-102809598D01*
X77603178Y-102755942D01*
X77593074Y-102685668D01*
X77622568Y-102621088D01*
X77642228Y-102602773D01*
X77645435Y-102600370D01*
X77665404Y-102585404D01*
X77707246Y-102529574D01*
X77746689Y-102476946D01*
X77746691Y-102476943D01*
X77752071Y-102469764D01*
X77798163Y-102346812D01*
X77800026Y-102341843D01*
X77800026Y-102341841D01*
X77802798Y-102334448D01*
X77809500Y-102272756D01*
X77809500Y-100927244D01*
X77805448Y-100889942D01*
X77803651Y-100873403D01*
X77803651Y-100873402D01*
X77802798Y-100865552D01*
X77752071Y-100730236D01*
X77746691Y-100723057D01*
X77746689Y-100723054D01*
X77670785Y-100621776D01*
X77665404Y-100614596D01*
X77569522Y-100542736D01*
X77527007Y-100485878D01*
X77521981Y-100415060D01*
X77556041Y-100352766D01*
X77618372Y-100318776D01*
X77645087Y-100315911D01*
X78293018Y-100315911D01*
X78362838Y-100337024D01*
X78456650Y-100399472D01*
X78456653Y-100399473D01*
X78464120Y-100404444D01*
X78472687Y-100407120D01*
X78472688Y-100407121D01*
X78492057Y-100413172D01*
X78588387Y-100443267D01*
X78597360Y-100443431D01*
X78597363Y-100443432D01*
X78654590Y-100444481D01*
X78718555Y-100445653D01*
X78802386Y-100422798D01*
X78835501Y-100413770D01*
X78835503Y-100413769D01*
X78844160Y-100411409D01*
X78856619Y-100403759D01*
X78925136Y-100385161D01*
X78940697Y-100390079D01*
X78940306Y-100384691D01*
X78970040Y-100326789D01*
X79036444Y-100253427D01*
X79036445Y-100253426D01*
X79042472Y-100246767D01*
X79054598Y-100221740D01*
X79095322Y-100137685D01*
X79095322Y-100137684D01*
X79099237Y-100129604D01*
X79120837Y-100001219D01*
X79120905Y-99995610D01*
X79120915Y-99994860D01*
X79120915Y-99994856D01*
X79120974Y-99990000D01*
X79107922Y-99898861D01*
X79118064Y-99828594D01*
X79164587Y-99774964D01*
X79232649Y-99755000D01*
X80088868Y-99755000D01*
X80103678Y-99755873D01*
X80136891Y-99759804D01*
X80146154Y-99758112D01*
X80146160Y-99758112D01*
X80193890Y-99749394D01*
X80197753Y-99748750D01*
X80213470Y-99746388D01*
X80232192Y-99744989D01*
X80671436Y-99744989D01*
X80695042Y-99747220D01*
X80704033Y-99748935D01*
X80712918Y-99752055D01*
X80720047Y-99752335D01*
X80726845Y-99754485D01*
X80733388Y-99755000D01*
X80785404Y-99755000D01*
X80790350Y-99755097D01*
X80846629Y-99757308D01*
X80853664Y-99755443D01*
X80861710Y-99755000D01*
X81014912Y-99755000D01*
X81083033Y-99775002D01*
X81129526Y-99828658D01*
X81140501Y-99873264D01*
X81140501Y-99873414D01*
X81140870Y-99876809D01*
X81140870Y-99876813D01*
X81146208Y-99925951D01*
X81147119Y-99934342D01*
X81149894Y-99941744D01*
X81149894Y-99941745D01*
X81175002Y-100008722D01*
X81197217Y-100067982D01*
X81282811Y-100182189D01*
X81289992Y-100187571D01*
X81382839Y-100257156D01*
X81397018Y-100267783D01*
X81405424Y-100270934D01*
X81405426Y-100270935D01*
X81523260Y-100315108D01*
X81523262Y-100315109D01*
X81530658Y-100317881D01*
X81591585Y-100324500D01*
X81882457Y-100324500D01*
X82173414Y-100324499D01*
X82176808Y-100324130D01*
X82176814Y-100324130D01*
X82226483Y-100318735D01*
X82226486Y-100318734D01*
X82234342Y-100317881D01*
X82304972Y-100291404D01*
X82359574Y-100270935D01*
X82359576Y-100270934D01*
X82367982Y-100267783D01*
X82382162Y-100257156D01*
X82475008Y-100187571D01*
X82482189Y-100182189D01*
X82567783Y-100067982D01*
X82589998Y-100008722D01*
X82615108Y-99941740D01*
X82615109Y-99941738D01*
X82617881Y-99934342D01*
X82624500Y-99873415D01*
X82624499Y-98926369D01*
X82644501Y-98858248D01*
X82698157Y-98811755D01*
X82768431Y-98801651D01*
X82833011Y-98831144D01*
G37*
G04 #@! TD.AperFunction*
G04 #@! TA.AperFunction,Conductor*
G36*
X61222622Y-94763702D02*
G01*
X61269115Y-94817358D01*
X61280501Y-94869700D01*
X61280501Y-94923414D01*
X61280870Y-94926808D01*
X61280870Y-94926814D01*
X61285090Y-94965660D01*
X61287119Y-94984342D01*
X61289894Y-94991744D01*
X61289894Y-94991745D01*
X61332931Y-95106550D01*
X61337217Y-95117982D01*
X61342601Y-95125165D01*
X61342601Y-95125166D01*
X61391949Y-95191010D01*
X61422811Y-95232189D01*
X61429992Y-95237571D01*
X61470607Y-95268010D01*
X61537018Y-95317783D01*
X61545426Y-95320935D01*
X61663260Y-95365108D01*
X61663262Y-95365109D01*
X61670658Y-95367881D01*
X61716036Y-95372811D01*
X61721230Y-95373375D01*
X61731585Y-95374500D01*
X62022457Y-95374500D01*
X62313414Y-95374499D01*
X62316808Y-95374130D01*
X62316814Y-95374130D01*
X62366483Y-95368735D01*
X62366486Y-95368734D01*
X62374342Y-95367881D01*
X62411238Y-95354050D01*
X62499574Y-95320935D01*
X62507982Y-95317783D01*
X62562437Y-95276971D01*
X62628940Y-95252124D01*
X62698323Y-95267176D01*
X62748553Y-95317350D01*
X62764000Y-95377798D01*
X62764000Y-95579651D01*
X62763521Y-95590632D01*
X62760176Y-95628867D01*
X62770109Y-95665939D01*
X62772484Y-95676653D01*
X62779149Y-95714451D01*
X62784660Y-95723996D01*
X62785931Y-95727489D01*
X62787506Y-95730867D01*
X62790360Y-95741516D01*
X62796684Y-95750547D01*
X62796685Y-95750550D01*
X62812373Y-95772955D01*
X62818278Y-95782224D01*
X62837461Y-95815449D01*
X62845904Y-95822533D01*
X62845906Y-95822536D01*
X62866864Y-95840122D01*
X62874968Y-95847548D01*
X63079802Y-96052382D01*
X63113828Y-96114694D01*
X63115642Y-96125135D01*
X63124841Y-96195481D01*
X63177274Y-96314645D01*
X63261046Y-96414303D01*
X63268514Y-96419274D01*
X63268515Y-96419275D01*
X63361950Y-96481472D01*
X63361953Y-96481473D01*
X63369420Y-96486444D01*
X63377987Y-96489120D01*
X63377988Y-96489121D01*
X63399271Y-96495770D01*
X63493687Y-96525267D01*
X63502660Y-96525431D01*
X63502663Y-96525432D01*
X63559890Y-96526481D01*
X63623855Y-96527653D01*
X63676017Y-96513432D01*
X63740801Y-96495770D01*
X63740803Y-96495769D01*
X63749460Y-96493409D01*
X63860406Y-96425288D01*
X63878980Y-96404768D01*
X63941744Y-96335427D01*
X63941745Y-96335426D01*
X63947772Y-96328767D01*
X63952564Y-96318878D01*
X64000622Y-96219685D01*
X64000622Y-96219684D01*
X64004537Y-96211604D01*
X64026137Y-96083219D01*
X64026274Y-96072000D01*
X64007818Y-95943125D01*
X63979867Y-95881651D01*
X63957648Y-95832782D01*
X63957647Y-95832780D01*
X63953932Y-95824610D01*
X63879773Y-95738544D01*
X63874813Y-95732787D01*
X63874812Y-95732786D01*
X63868950Y-95725983D01*
X63759701Y-95655172D01*
X63751099Y-95652600D01*
X63751098Y-95652599D01*
X63646162Y-95621217D01*
X63586628Y-95582536D01*
X63557458Y-95517809D01*
X63567912Y-95447586D01*
X63614672Y-95394163D01*
X63682263Y-95374500D01*
X64163271Y-95374499D01*
X64188414Y-95374499D01*
X64191808Y-95374130D01*
X64191814Y-95374130D01*
X64241483Y-95368735D01*
X64241486Y-95368734D01*
X64249342Y-95367881D01*
X64286238Y-95354050D01*
X64374574Y-95320935D01*
X64382982Y-95317783D01*
X64449394Y-95268010D01*
X64490008Y-95237571D01*
X64497189Y-95232189D01*
X64528051Y-95191010D01*
X64577399Y-95125166D01*
X64577399Y-95125165D01*
X64582783Y-95117982D01*
X64629530Y-94993281D01*
X64672168Y-94936520D01*
X64717476Y-94918299D01*
X64716755Y-94915653D01*
X64833701Y-94883770D01*
X64833703Y-94883769D01*
X64842360Y-94881409D01*
X64850007Y-94876714D01*
X64850011Y-94876712D01*
X64949765Y-94815463D01*
X65018282Y-94796865D01*
X65085977Y-94818262D01*
X65131358Y-94872862D01*
X65135217Y-94882962D01*
X65156036Y-94945365D01*
X65162210Y-94958543D01*
X65246744Y-95095149D01*
X65255780Y-95106550D01*
X65369479Y-95220051D01*
X65380890Y-95229063D01*
X65517654Y-95313365D01*
X65530832Y-95319509D01*
X65683740Y-95370227D01*
X65697106Y-95373093D01*
X65790601Y-95382672D01*
X65797016Y-95383000D01*
X65975130Y-95383000D01*
X66043251Y-95403002D01*
X66089744Y-95456658D01*
X66099848Y-95526932D01*
X66070354Y-95591512D01*
X66064225Y-95598095D01*
X65833609Y-95828711D01*
X65771297Y-95862737D01*
X65761614Y-95864450D01*
X65756659Y-95865129D01*
X65747683Y-95865074D01*
X65622505Y-95900850D01*
X65614918Y-95905637D01*
X65614916Y-95905638D01*
X65573688Y-95931651D01*
X65512400Y-95970321D01*
X65506458Y-95977049D01*
X65506457Y-95977050D01*
X65461680Y-96027751D01*
X65426219Y-96067903D01*
X65422404Y-96076028D01*
X65422403Y-96076030D01*
X65378896Y-96168699D01*
X65370890Y-96185751D01*
X65369509Y-96194620D01*
X65364874Y-96224390D01*
X65350860Y-96314390D01*
X65352024Y-96323292D01*
X65352024Y-96323295D01*
X65365362Y-96425288D01*
X65367741Y-96443481D01*
X65420174Y-96562645D01*
X65503946Y-96662303D01*
X65511414Y-96667274D01*
X65511416Y-96667276D01*
X65515412Y-96669936D01*
X65561032Y-96724335D01*
X65570001Y-96794763D01*
X65539469Y-96858859D01*
X65480213Y-96895970D01*
X65416835Y-96914083D01*
X65416832Y-96914084D01*
X65408205Y-96916550D01*
X65354561Y-96950397D01*
X65298827Y-96985562D01*
X65231592Y-97005000D01*
X64674249Y-97005000D01*
X64663268Y-97004521D01*
X64636009Y-97002136D01*
X64636008Y-97002136D01*
X64625033Y-97001176D01*
X64587961Y-97011109D01*
X64577247Y-97013484D01*
X64561400Y-97016278D01*
X64550303Y-97018235D01*
X64550302Y-97018235D01*
X64539449Y-97020149D01*
X64529904Y-97025660D01*
X64526411Y-97026931D01*
X64523033Y-97028506D01*
X64512384Y-97031360D01*
X64503353Y-97037684D01*
X64503350Y-97037685D01*
X64480945Y-97053373D01*
X64471675Y-97059278D01*
X64438451Y-97078461D01*
X64431367Y-97086904D01*
X64431364Y-97086906D01*
X64413778Y-97107864D01*
X64406352Y-97115968D01*
X63406268Y-98116052D01*
X63398164Y-98123478D01*
X63377206Y-98141064D01*
X63377204Y-98141067D01*
X63368761Y-98148151D01*
X63351988Y-98177202D01*
X63349578Y-98181376D01*
X63343673Y-98190645D01*
X63327985Y-98213050D01*
X63327984Y-98213053D01*
X63321660Y-98222084D01*
X63318806Y-98232733D01*
X63317231Y-98236111D01*
X63315960Y-98239604D01*
X63310449Y-98249149D01*
X63308535Y-98260002D01*
X63308535Y-98260003D01*
X63303785Y-98286943D01*
X63301409Y-98297661D01*
X63291476Y-98334733D01*
X63291705Y-98337347D01*
X63267728Y-98398643D01*
X63210225Y-98440283D01*
X63139337Y-98444224D01*
X63077573Y-98409215D01*
X63067244Y-98397109D01*
X63010785Y-98321776D01*
X63005404Y-98314596D01*
X62968507Y-98286943D01*
X62896946Y-98233311D01*
X62896943Y-98233309D01*
X62889764Y-98227929D01*
X62780905Y-98187120D01*
X62761843Y-98179974D01*
X62761841Y-98179974D01*
X62754448Y-98177202D01*
X62746598Y-98176349D01*
X62746597Y-98176349D01*
X62696153Y-98170869D01*
X62696152Y-98170869D01*
X62692756Y-98170500D01*
X61847244Y-98170500D01*
X61843848Y-98170869D01*
X61843847Y-98170869D01*
X61793403Y-98176349D01*
X61793402Y-98176349D01*
X61785552Y-98177202D01*
X61778159Y-98179974D01*
X61778157Y-98179974D01*
X61759095Y-98187120D01*
X61650236Y-98227929D01*
X61643057Y-98233309D01*
X61643054Y-98233311D01*
X61571493Y-98286943D01*
X61534596Y-98314596D01*
X61529215Y-98321776D01*
X61453311Y-98423054D01*
X61453309Y-98423057D01*
X61447929Y-98430236D01*
X61417822Y-98510548D01*
X61400588Y-98556521D01*
X61397202Y-98565552D01*
X61390500Y-98627244D01*
X61390500Y-98729000D01*
X61370498Y-98797121D01*
X61316842Y-98843614D01*
X61264500Y-98855000D01*
X60973015Y-98855000D01*
X60904894Y-98834998D01*
X60883920Y-98818095D01*
X59703247Y-97637422D01*
X59669221Y-97575110D01*
X59674286Y-97504295D01*
X59716833Y-97447459D01*
X59758457Y-97426969D01*
X59846469Y-97402395D01*
X59905009Y-97386050D01*
X59921199Y-97377872D01*
X60075341Y-97300010D01*
X60075343Y-97300009D01*
X60080842Y-97297231D01*
X60236074Y-97175950D01*
X60240100Y-97171286D01*
X60240103Y-97171283D01*
X60360764Y-97031496D01*
X60360765Y-97031494D01*
X60364793Y-97026828D01*
X60367843Y-97021460D01*
X60392022Y-96978897D01*
X60462096Y-96855544D01*
X60524277Y-96668622D01*
X60548966Y-96473183D01*
X60549156Y-96459604D01*
X60549311Y-96448522D01*
X60549311Y-96448518D01*
X60549360Y-96445000D01*
X60530137Y-96248948D01*
X60473200Y-96060363D01*
X60429355Y-95977903D01*
X60383611Y-95891871D01*
X60383609Y-95891868D01*
X60380717Y-95886429D01*
X60256212Y-95733770D01*
X60169616Y-95662132D01*
X60109177Y-95612132D01*
X60109174Y-95612130D01*
X60104427Y-95608203D01*
X60099002Y-95605270D01*
X60098998Y-95605267D01*
X59977104Y-95539358D01*
X59926695Y-95489364D01*
X59911318Y-95420052D01*
X59935854Y-95353430D01*
X59980223Y-95316057D01*
X60075341Y-95268010D01*
X60075343Y-95268009D01*
X60080842Y-95265231D01*
X60236074Y-95143950D01*
X60240100Y-95139286D01*
X60240103Y-95139283D01*
X60360764Y-94999496D01*
X60360765Y-94999494D01*
X60364793Y-94994828D01*
X60370750Y-94984342D01*
X60459053Y-94828901D01*
X60459054Y-94828899D01*
X60462096Y-94823544D01*
X60463845Y-94818287D01*
X60509687Y-94764354D01*
X60578812Y-94743700D01*
X61154501Y-94743700D01*
X61222622Y-94763702D01*
G37*
G04 #@! TD.AperFunction*
G04 #@! TA.AperFunction,Conductor*
G36*
X85283604Y-91559501D02*
G01*
X85304579Y-91576404D01*
X85840080Y-92111905D01*
X85874106Y-92174217D01*
X85869041Y-92245032D01*
X85826494Y-92301868D01*
X85759974Y-92326679D01*
X85750985Y-92327000D01*
X85362115Y-92327000D01*
X85346876Y-92331475D01*
X85345671Y-92332865D01*
X85344000Y-92340548D01*
X85344000Y-94749885D01*
X85349239Y-94767728D01*
X85384808Y-94823071D01*
X85384810Y-94894068D01*
X85353008Y-94947667D01*
X85342212Y-94958463D01*
X85338646Y-94961892D01*
X85297286Y-95000125D01*
X85293630Y-95006419D01*
X85288253Y-95012422D01*
X84713937Y-95586738D01*
X84651625Y-95620764D01*
X84580810Y-95615699D01*
X84535766Y-95586750D01*
X84530404Y-95579596D01*
X84507841Y-95562686D01*
X84421947Y-95498311D01*
X84421944Y-95498309D01*
X84414765Y-95492929D01*
X84316939Y-95456256D01*
X84286844Y-95444974D01*
X84286842Y-95444974D01*
X84279449Y-95442202D01*
X84271599Y-95441349D01*
X84271598Y-95441349D01*
X84221154Y-95435869D01*
X84221153Y-95435869D01*
X84217757Y-95435500D01*
X83720073Y-95435500D01*
X83222244Y-95435501D01*
X83218850Y-95435870D01*
X83218844Y-95435870D01*
X83168409Y-95441348D01*
X83168405Y-95441349D01*
X83160551Y-95442202D01*
X83025235Y-95492929D01*
X83018056Y-95498309D01*
X83018053Y-95498311D01*
X82932159Y-95562686D01*
X82909596Y-95579596D01*
X82904214Y-95586777D01*
X82828311Y-95688053D01*
X82828309Y-95688056D01*
X82822929Y-95695235D01*
X82793462Y-95773840D01*
X82775207Y-95822536D01*
X82772202Y-95830551D01*
X82771349Y-95838401D01*
X82771349Y-95838402D01*
X82767869Y-95870432D01*
X82765500Y-95892243D01*
X82765501Y-96583427D01*
X82765501Y-97020151D01*
X82745499Y-97088272D01*
X82691843Y-97134765D01*
X82621569Y-97144869D01*
X82556989Y-97115376D01*
X82550406Y-97109246D01*
X80491428Y-95050268D01*
X80484002Y-95042164D01*
X80466416Y-95021206D01*
X80466413Y-95021204D01*
X80459329Y-95012761D01*
X80426105Y-94993578D01*
X80416835Y-94987673D01*
X80387615Y-94967213D01*
X80343286Y-94911756D01*
X80335977Y-94841137D01*
X80368007Y-94777776D01*
X80429209Y-94741791D01*
X80459885Y-94738000D01*
X80807885Y-94738000D01*
X80823124Y-94733525D01*
X80824329Y-94732135D01*
X80826000Y-94724452D01*
X80826000Y-94719885D01*
X81334000Y-94719885D01*
X81338475Y-94735124D01*
X81339865Y-94736329D01*
X81347548Y-94738000D01*
X82202096Y-94738000D01*
X82208611Y-94737663D01*
X82304203Y-94727744D01*
X82317602Y-94724850D01*
X82471783Y-94673412D01*
X82484962Y-94667238D01*
X82622807Y-94581937D01*
X82634208Y-94572901D01*
X82748739Y-94458170D01*
X82757751Y-94446759D01*
X82842818Y-94308755D01*
X82848962Y-94295577D01*
X82900139Y-94141284D01*
X82903005Y-94127919D01*
X82910261Y-94057096D01*
X83257000Y-94057096D01*
X83257337Y-94063611D01*
X83267256Y-94159203D01*
X83270150Y-94172602D01*
X83321588Y-94326783D01*
X83327762Y-94339962D01*
X83413063Y-94477807D01*
X83422099Y-94489208D01*
X83536830Y-94603739D01*
X83548241Y-94612751D01*
X83686245Y-94697818D01*
X83699423Y-94703962D01*
X83853716Y-94755139D01*
X83867081Y-94758005D01*
X83961439Y-94767672D01*
X83967855Y-94768000D01*
X84817885Y-94768000D01*
X84833124Y-94763525D01*
X84834329Y-94762135D01*
X84836000Y-94754452D01*
X84836000Y-93819615D01*
X84831525Y-93804376D01*
X84830135Y-93803171D01*
X84822452Y-93801500D01*
X83275115Y-93801500D01*
X83259876Y-93805975D01*
X83258671Y-93807365D01*
X83257000Y-93815048D01*
X83257000Y-94057096D01*
X82910261Y-94057096D01*
X82912672Y-94033561D01*
X82913000Y-94027145D01*
X82913000Y-93789615D01*
X82908525Y-93774376D01*
X82907135Y-93773171D01*
X82899452Y-93771500D01*
X81352115Y-93771500D01*
X81336876Y-93775975D01*
X81335671Y-93777365D01*
X81334000Y-93785048D01*
X81334000Y-94719885D01*
X80826000Y-94719885D01*
X80826000Y-93789615D01*
X80821525Y-93774376D01*
X80820135Y-93773171D01*
X80812452Y-93771500D01*
X79265115Y-93771500D01*
X79249876Y-93775975D01*
X79248671Y-93777365D01*
X79247000Y-93785048D01*
X79247000Y-94027096D01*
X79247337Y-94033611D01*
X79257256Y-94129203D01*
X79260150Y-94142602D01*
X79311588Y-94296783D01*
X79317762Y-94309962D01*
X79403063Y-94447807D01*
X79412099Y-94459208D01*
X79526830Y-94573739D01*
X79538241Y-94582751D01*
X79676245Y-94667818D01*
X79689420Y-94673961D01*
X79748951Y-94693707D01*
X79807310Y-94734138D01*
X79834547Y-94799702D01*
X79822013Y-94869584D01*
X79773689Y-94921596D01*
X79709283Y-94939300D01*
X78259170Y-94939300D01*
X78191049Y-94919298D01*
X78170075Y-94902395D01*
X76313264Y-93045584D01*
X76279238Y-92983272D01*
X76284303Y-92912457D01*
X76326850Y-92855621D01*
X76393370Y-92830810D01*
X76402359Y-92830489D01*
X78721259Y-92830489D01*
X78763008Y-92837607D01*
X78775674Y-92842055D01*
X78782802Y-92842335D01*
X78789600Y-92844485D01*
X78796143Y-92845000D01*
X78848159Y-92845000D01*
X78853105Y-92845097D01*
X78909384Y-92847308D01*
X78916419Y-92845443D01*
X78924465Y-92845000D01*
X79123787Y-92845000D01*
X79191908Y-92865002D01*
X79238401Y-92918658D01*
X79249131Y-92983844D01*
X79247328Y-93001444D01*
X79247000Y-93007856D01*
X79247000Y-93245385D01*
X79251475Y-93260624D01*
X79252865Y-93261829D01*
X79260548Y-93263500D01*
X82894885Y-93263500D01*
X82910124Y-93259025D01*
X82911329Y-93257635D01*
X82913000Y-93249952D01*
X82913000Y-93007904D01*
X82912663Y-93001389D01*
X82910859Y-92984005D01*
X82923723Y-92914183D01*
X82972294Y-92862401D01*
X83036186Y-92845000D01*
X83136860Y-92845000D01*
X83204981Y-92865002D01*
X83251474Y-92918658D01*
X83262204Y-92983841D01*
X83257328Y-93031436D01*
X83257000Y-93037856D01*
X83257000Y-93275385D01*
X83261475Y-93290624D01*
X83262865Y-93291829D01*
X83270548Y-93293500D01*
X84817885Y-93293500D01*
X84833124Y-93289025D01*
X84834329Y-93287635D01*
X84836000Y-93279952D01*
X84836000Y-92345115D01*
X84831525Y-92329876D01*
X84830135Y-92328671D01*
X84822452Y-92327000D01*
X84271415Y-92327000D01*
X84203294Y-92306998D01*
X84156801Y-92253342D01*
X84146697Y-92183068D01*
X84176191Y-92118488D01*
X84182320Y-92111905D01*
X84717820Y-91576405D01*
X84780132Y-91542379D01*
X84806915Y-91539500D01*
X85011200Y-91539500D01*
X85215484Y-91539499D01*
X85283604Y-91559501D01*
G37*
G04 #@! TD.AperFunction*
G04 #@! TA.AperFunction,Conductor*
G36*
X75530660Y-93202411D02*
G01*
X75551634Y-93219314D01*
X76659708Y-94327388D01*
X76693734Y-94389700D01*
X76688669Y-94460515D01*
X76646122Y-94517351D01*
X76634752Y-94524937D01*
X76555323Y-94571911D01*
X76542896Y-94581551D01*
X76436551Y-94687896D01*
X76426911Y-94700323D01*
X76407867Y-94732525D01*
X76355974Y-94780978D01*
X76286123Y-94793683D01*
X76228631Y-94771582D01*
X76225723Y-94768674D01*
X76216887Y-94764172D01*
X76216886Y-94764171D01*
X76154012Y-94732135D01*
X76111555Y-94710502D01*
X76016834Y-94695500D01*
X75653166Y-94695500D01*
X75606504Y-94702890D01*
X75568243Y-94708950D01*
X75568242Y-94708950D01*
X75558445Y-94710502D01*
X75549605Y-94715006D01*
X75541512Y-94717636D01*
X75470544Y-94719664D01*
X75413479Y-94686898D01*
X74770771Y-94044190D01*
X74124084Y-93397504D01*
X74090059Y-93335192D01*
X74095123Y-93264377D01*
X74137670Y-93207541D01*
X74204190Y-93182730D01*
X74213179Y-93182409D01*
X75462539Y-93182409D01*
X75530660Y-93202411D01*
G37*
G04 #@! TD.AperFunction*
G04 #@! TA.AperFunction,Conductor*
G36*
X68502232Y-93630702D02*
G01*
X68548725Y-93684358D01*
X68558611Y-93756085D01*
X68543299Y-93854429D01*
X68540860Y-93870090D01*
X68542024Y-93878992D01*
X68542024Y-93878995D01*
X68552259Y-93957263D01*
X68557741Y-93999181D01*
X68610174Y-94118345D01*
X68615949Y-94125215D01*
X68615952Y-94125220D01*
X68622260Y-94132724D01*
X68650782Y-94197739D01*
X68639626Y-94267854D01*
X68592335Y-94320807D01*
X68525810Y-94339800D01*
X67633999Y-94339800D01*
X67565878Y-94319798D01*
X67519385Y-94266142D01*
X67507999Y-94213800D01*
X67507999Y-94097067D01*
X67507662Y-94090548D01*
X67497834Y-93995830D01*
X67494942Y-93982436D01*
X67443964Y-93829635D01*
X67437793Y-93816461D01*
X67429465Y-93803004D01*
X67410627Y-93734552D01*
X67431788Y-93666782D01*
X67486228Y-93621211D01*
X67536609Y-93610700D01*
X68434111Y-93610700D01*
X68502232Y-93630702D01*
G37*
G04 #@! TD.AperFunction*
G04 #@! TA.AperFunction,Conductor*
G36*
X56407112Y-83202682D02*
G01*
X56433607Y-83234770D01*
X56435890Y-83239723D01*
X56558350Y-83413000D01*
X56710337Y-83561059D01*
X56715133Y-83564264D01*
X56715136Y-83564266D01*
X56750205Y-83587698D01*
X56886760Y-83678941D01*
X56892063Y-83681219D01*
X56892066Y-83681221D01*
X56984803Y-83721064D01*
X57081711Y-83762699D01*
X57157750Y-83779905D01*
X57283025Y-83808252D01*
X57283030Y-83808253D01*
X57288662Y-83809527D01*
X57294433Y-83809754D01*
X57294435Y-83809754D01*
X57359911Y-83812326D01*
X57500681Y-83817857D01*
X57617547Y-83800912D01*
X57704953Y-83788239D01*
X57704958Y-83788238D01*
X57710667Y-83787410D01*
X57716131Y-83785555D01*
X57716136Y-83785554D01*
X57847317Y-83741024D01*
X57911589Y-83719207D01*
X57994997Y-83672496D01*
X58064203Y-83656663D01*
X58130985Y-83680760D01*
X58145656Y-83693336D01*
X58582052Y-84129732D01*
X58589478Y-84137836D01*
X58607064Y-84158794D01*
X58607067Y-84158796D01*
X58614151Y-84167239D01*
X58645983Y-84185618D01*
X58647376Y-84186422D01*
X58656645Y-84192327D01*
X58679050Y-84208015D01*
X58679053Y-84208016D01*
X58688084Y-84214340D01*
X58698733Y-84217194D01*
X58702111Y-84218769D01*
X58705604Y-84220040D01*
X58715149Y-84225551D01*
X58726002Y-84227465D01*
X58726003Y-84227465D01*
X58737100Y-84229422D01*
X58752947Y-84232216D01*
X58763661Y-84234591D01*
X58800733Y-84244524D01*
X58811708Y-84243564D01*
X58811709Y-84243564D01*
X58838968Y-84241179D01*
X58849949Y-84240700D01*
X65987530Y-84240700D01*
X66055651Y-84260702D01*
X66102144Y-84314358D01*
X66112248Y-84384632D01*
X66082754Y-84449212D01*
X66076625Y-84455795D01*
X63833095Y-86699325D01*
X63770783Y-86733351D01*
X63699968Y-86728286D01*
X63643132Y-86685739D01*
X63625610Y-86638762D01*
X63623104Y-86639498D01*
X63613525Y-86606876D01*
X63612135Y-86605671D01*
X63604452Y-86604000D01*
X62607115Y-86604000D01*
X62591876Y-86608475D01*
X62590671Y-86609865D01*
X62589000Y-86617548D01*
X62589000Y-87489884D01*
X62593475Y-87505123D01*
X62594865Y-87506328D01*
X62602548Y-87507999D01*
X62870736Y-87507999D01*
X62938857Y-87528001D01*
X62985350Y-87581657D01*
X62995672Y-87617659D01*
X62997741Y-87633481D01*
X63050174Y-87752645D01*
X63133946Y-87852303D01*
X63141414Y-87857274D01*
X63141415Y-87857275D01*
X63234850Y-87919472D01*
X63234853Y-87919473D01*
X63242320Y-87924444D01*
X63250887Y-87927120D01*
X63250888Y-87927121D01*
X63272171Y-87933770D01*
X63366587Y-87963267D01*
X63375560Y-87963431D01*
X63375563Y-87963432D01*
X63432790Y-87964481D01*
X63496755Y-87965653D01*
X63548917Y-87951432D01*
X63613701Y-87933770D01*
X63613703Y-87933769D01*
X63622360Y-87931409D01*
X63733306Y-87863288D01*
X63747095Y-87848054D01*
X63814644Y-87773427D01*
X63814645Y-87773426D01*
X63820672Y-87766767D01*
X63846753Y-87712937D01*
X63873522Y-87657685D01*
X63873522Y-87657684D01*
X63877437Y-87649604D01*
X63882743Y-87618067D01*
X63917902Y-87549878D01*
X66838255Y-84629525D01*
X66900567Y-84595499D01*
X66927350Y-84592620D01*
X78388250Y-84592620D01*
X78456371Y-84612622D01*
X78477345Y-84629525D01*
X79102025Y-85254205D01*
X79136051Y-85316517D01*
X79130986Y-85387332D01*
X79088439Y-85444168D01*
X79021919Y-85468979D01*
X79012930Y-85469300D01*
X78582174Y-85469300D01*
X78529675Y-85457757D01*
X78522601Y-85453172D01*
X78397870Y-85415870D01*
X78388894Y-85415815D01*
X78388893Y-85415815D01*
X78335678Y-85415490D01*
X78267683Y-85415074D01*
X78142505Y-85450850D01*
X78134918Y-85455637D01*
X78134916Y-85455638D01*
X78095327Y-85480617D01*
X78032400Y-85520321D01*
X78026458Y-85527049D01*
X78026457Y-85527050D01*
X78017449Y-85537250D01*
X77946219Y-85617903D01*
X77942404Y-85626028D01*
X77942403Y-85626030D01*
X77910607Y-85693754D01*
X77890890Y-85735751D01*
X77889509Y-85744620D01*
X77872694Y-85852614D01*
X77870860Y-85864390D01*
X77872024Y-85873292D01*
X77872024Y-85873295D01*
X77882083Y-85950212D01*
X77871083Y-86020351D01*
X77823909Y-86073409D01*
X77757147Y-86092550D01*
X75843190Y-86092550D01*
X75832210Y-86092071D01*
X75804960Y-86089687D01*
X75804959Y-86089687D01*
X75793983Y-86088727D01*
X75783339Y-86091579D01*
X75783338Y-86091579D01*
X75756932Y-86098654D01*
X75746203Y-86101033D01*
X75719253Y-86105785D01*
X75719252Y-86105785D01*
X75708399Y-86107699D01*
X75700201Y-86112432D01*
X75657842Y-86119768D01*
X75609783Y-86119474D01*
X75484605Y-86155250D01*
X75477015Y-86160039D01*
X75376209Y-86223642D01*
X75307924Y-86243076D01*
X75239972Y-86222506D01*
X75194273Y-86169231D01*
X75152649Y-86077684D01*
X75152647Y-86077681D01*
X75148932Y-86069510D01*
X75063950Y-85970883D01*
X74954701Y-85900072D01*
X74829970Y-85862770D01*
X74820994Y-85862715D01*
X74820993Y-85862715D01*
X74767778Y-85862390D01*
X74699783Y-85861974D01*
X74574605Y-85897750D01*
X74464500Y-85967221D01*
X74378319Y-86064803D01*
X74374504Y-86072928D01*
X74374503Y-86072930D01*
X74337012Y-86152784D01*
X74322990Y-86182651D01*
X74312617Y-86249272D01*
X74309827Y-86267187D01*
X74279582Y-86331419D01*
X74274423Y-86336896D01*
X73984644Y-86626676D01*
X73702325Y-86908995D01*
X73640012Y-86943020D01*
X73613229Y-86945900D01*
X71694000Y-86945900D01*
X71625879Y-86925898D01*
X71579386Y-86872242D01*
X71568000Y-86819900D01*
X71568000Y-86622115D01*
X71563525Y-86606876D01*
X71562135Y-86605671D01*
X71554452Y-86604000D01*
X69020116Y-86604000D01*
X69004877Y-86608475D01*
X69003672Y-86609865D01*
X69002001Y-86617548D01*
X69002001Y-86660031D01*
X68981999Y-86728152D01*
X68928343Y-86774645D01*
X68858069Y-86784749D01*
X68793489Y-86755255D01*
X68786906Y-86749126D01*
X68723635Y-86685855D01*
X68689609Y-86623543D01*
X68688003Y-86614622D01*
X68678193Y-86546118D01*
X68678190Y-86546108D01*
X68676918Y-86537225D01*
X68672553Y-86527624D01*
X68626748Y-86426882D01*
X68626747Y-86426880D01*
X68623032Y-86418710D01*
X68538050Y-86320083D01*
X68535795Y-86318621D01*
X68499313Y-86261434D01*
X68499552Y-86190437D01*
X68531233Y-86137247D01*
X68786905Y-85881575D01*
X68849217Y-85847549D01*
X68920032Y-85852614D01*
X68976868Y-85895161D01*
X69001679Y-85961681D01*
X69002000Y-85970670D01*
X69002000Y-86077885D01*
X69006475Y-86093124D01*
X69007865Y-86094329D01*
X69015548Y-86096000D01*
X70012885Y-86096000D01*
X70028124Y-86091525D01*
X70029329Y-86090135D01*
X70031000Y-86082452D01*
X70031000Y-86077885D01*
X70539000Y-86077885D01*
X70543475Y-86093124D01*
X70544865Y-86094329D01*
X70552548Y-86096000D01*
X71549884Y-86096000D01*
X71565123Y-86091525D01*
X71566328Y-86090135D01*
X71567999Y-86082452D01*
X71567999Y-85655331D01*
X71567629Y-85648510D01*
X71562105Y-85597648D01*
X71558479Y-85582396D01*
X71513324Y-85461946D01*
X71504786Y-85446351D01*
X71428285Y-85344276D01*
X71415724Y-85331715D01*
X71313649Y-85255214D01*
X71298054Y-85246676D01*
X71177606Y-85201522D01*
X71162351Y-85197895D01*
X71111486Y-85192369D01*
X71104672Y-85192000D01*
X70557115Y-85192000D01*
X70541876Y-85196475D01*
X70540671Y-85197865D01*
X70539000Y-85205548D01*
X70539000Y-86077885D01*
X70031000Y-86077885D01*
X70031000Y-85210116D01*
X70026525Y-85194877D01*
X70025135Y-85193672D01*
X70017452Y-85192001D01*
X69808600Y-85192001D01*
X69740479Y-85171999D01*
X69693899Y-85118152D01*
X69690549Y-85110784D01*
X69690547Y-85110781D01*
X69686832Y-85102610D01*
X69628101Y-85034449D01*
X69607713Y-85010787D01*
X69607712Y-85010786D01*
X69601850Y-85003983D01*
X69492601Y-84933172D01*
X69367870Y-84895870D01*
X69358894Y-84895815D01*
X69358893Y-84895815D01*
X69305678Y-84895490D01*
X69237683Y-84895074D01*
X69112505Y-84930850D01*
X69033402Y-84980760D01*
X69003127Y-84999862D01*
X68935892Y-85019300D01*
X68870749Y-85019300D01*
X68859768Y-85018821D01*
X68832509Y-85016436D01*
X68832508Y-85016436D01*
X68821533Y-85015476D01*
X68784461Y-85025409D01*
X68773747Y-85027784D01*
X68757900Y-85030578D01*
X68746803Y-85032535D01*
X68746802Y-85032535D01*
X68735949Y-85034449D01*
X68726404Y-85039960D01*
X68722911Y-85041231D01*
X68719533Y-85042806D01*
X68708884Y-85045660D01*
X68699853Y-85051984D01*
X68699850Y-85051985D01*
X68677445Y-85067673D01*
X68668175Y-85073578D01*
X68634951Y-85092761D01*
X68627867Y-85101204D01*
X68627864Y-85101206D01*
X68610278Y-85122164D01*
X68602852Y-85130268D01*
X64970268Y-88762852D01*
X64962164Y-88770278D01*
X64941206Y-88787864D01*
X64941204Y-88787867D01*
X64932761Y-88794951D01*
X64916437Y-88823225D01*
X64913578Y-88828176D01*
X64907673Y-88837445D01*
X64891985Y-88859850D01*
X64891984Y-88859853D01*
X64885660Y-88868884D01*
X64882806Y-88879533D01*
X64881231Y-88882911D01*
X64879960Y-88886404D01*
X64874449Y-88895949D01*
X64869014Y-88926775D01*
X64867785Y-88933743D01*
X64865409Y-88944461D01*
X64855476Y-88981533D01*
X64856436Y-88992508D01*
X64856436Y-88992509D01*
X64858821Y-89019768D01*
X64859300Y-89030749D01*
X64859300Y-90451526D01*
X64839298Y-90519647D01*
X64827737Y-90534938D01*
X64824968Y-90538073D01*
X64764881Y-90575888D01*
X64693887Y-90575215D01*
X64641436Y-90543756D01*
X62843548Y-88745868D01*
X62836122Y-88737764D01*
X62818536Y-88716806D01*
X62818533Y-88716804D01*
X62811449Y-88708361D01*
X62778225Y-88689178D01*
X62768955Y-88683273D01*
X62746550Y-88667585D01*
X62746547Y-88667584D01*
X62737516Y-88661260D01*
X62726867Y-88658406D01*
X62723489Y-88656831D01*
X62719996Y-88655560D01*
X62710451Y-88650049D01*
X62699598Y-88648135D01*
X62699597Y-88648135D01*
X62687987Y-88646088D01*
X62672653Y-88643384D01*
X62661939Y-88641009D01*
X62624867Y-88631076D01*
X62613892Y-88632036D01*
X62613891Y-88632036D01*
X62586632Y-88634421D01*
X62575651Y-88634900D01*
X58455545Y-88634900D01*
X58387013Y-88614633D01*
X58292933Y-88553654D01*
X58285401Y-88548772D01*
X58160670Y-88511470D01*
X58151694Y-88511415D01*
X58151693Y-88511415D01*
X58098478Y-88511090D01*
X58030483Y-88510674D01*
X57905305Y-88546450D01*
X57897718Y-88551237D01*
X57897716Y-88551238D01*
X57839800Y-88587780D01*
X57795200Y-88615921D01*
X57789258Y-88622649D01*
X57789257Y-88622650D01*
X57766750Y-88648135D01*
X57709019Y-88713503D01*
X57705204Y-88721628D01*
X57705203Y-88721630D01*
X57669742Y-88797161D01*
X57653690Y-88831351D01*
X57652309Y-88840220D01*
X57635779Y-88946382D01*
X57633660Y-88959990D01*
X57634824Y-88968892D01*
X57634824Y-88968896D01*
X57648930Y-89076764D01*
X57637930Y-89146903D01*
X57590756Y-89199960D01*
X57522385Y-89219091D01*
X57464065Y-89203937D01*
X57435424Y-89188451D01*
X57391143Y-89164508D01*
X57202960Y-89106256D01*
X57196835Y-89105612D01*
X57196834Y-89105612D01*
X57013176Y-89086309D01*
X57013174Y-89086309D01*
X57007047Y-89085665D01*
X56925018Y-89093130D01*
X56817004Y-89102960D01*
X56817001Y-89102961D01*
X56810865Y-89103519D01*
X56804959Y-89105257D01*
X56804955Y-89105258D01*
X56676573Y-89143043D01*
X56621887Y-89159138D01*
X56597506Y-89171884D01*
X56452772Y-89247549D01*
X56452768Y-89247552D01*
X56447312Y-89250404D01*
X56442512Y-89254264D01*
X56442511Y-89254264D01*
X56342717Y-89334500D01*
X56293788Y-89373840D01*
X56285639Y-89383551D01*
X56226531Y-89422876D01*
X56155543Y-89424002D01*
X56095216Y-89386570D01*
X56064702Y-89322465D01*
X56063120Y-89302558D01*
X56063120Y-88986750D01*
X56083122Y-88918629D01*
X56100025Y-88897655D01*
X57259732Y-87737948D01*
X57267836Y-87730522D01*
X57288793Y-87712937D01*
X57288796Y-87712934D01*
X57297239Y-87705849D01*
X57307919Y-87687351D01*
X57316426Y-87672617D01*
X57322322Y-87663361D01*
X57344340Y-87631917D01*
X57347194Y-87621265D01*
X57348770Y-87617886D01*
X57350040Y-87614396D01*
X57355551Y-87604851D01*
X57362217Y-87567047D01*
X57364596Y-87556318D01*
X57371671Y-87529912D01*
X57371671Y-87529911D01*
X57374523Y-87519267D01*
X57373538Y-87508000D01*
X57371179Y-87481040D01*
X57370700Y-87470060D01*
X57370700Y-87044669D01*
X61052001Y-87044669D01*
X61052371Y-87051490D01*
X61057895Y-87102352D01*
X61061521Y-87117604D01*
X61106676Y-87238054D01*
X61115214Y-87253649D01*
X61191715Y-87355724D01*
X61204276Y-87368285D01*
X61306351Y-87444786D01*
X61321946Y-87453324D01*
X61442394Y-87498478D01*
X61457649Y-87502105D01*
X61508514Y-87507631D01*
X61515328Y-87508000D01*
X62062885Y-87508000D01*
X62078124Y-87503525D01*
X62079329Y-87502135D01*
X62081000Y-87494452D01*
X62081000Y-86622115D01*
X62076525Y-86606876D01*
X62075135Y-86605671D01*
X62067452Y-86604000D01*
X61070116Y-86604000D01*
X61054877Y-86608475D01*
X61053672Y-86609865D01*
X61052001Y-86617548D01*
X61052001Y-87044669D01*
X57370700Y-87044669D01*
X57370700Y-86846409D01*
X57390702Y-86778288D01*
X57414870Y-86750598D01*
X57519532Y-86661208D01*
X57519535Y-86661205D01*
X57525314Y-86656269D01*
X57617755Y-86527624D01*
X57676842Y-86380641D01*
X57699162Y-86223807D01*
X57699307Y-86210000D01*
X57695998Y-86182651D01*
X57695014Y-86174523D01*
X57683320Y-86077885D01*
X61052000Y-86077885D01*
X61056475Y-86093124D01*
X61057865Y-86094329D01*
X61065548Y-86096000D01*
X62062885Y-86096000D01*
X62078124Y-86091525D01*
X62079329Y-86090135D01*
X62081000Y-86082452D01*
X62081000Y-86077885D01*
X62589000Y-86077885D01*
X62593475Y-86093124D01*
X62594865Y-86094329D01*
X62602548Y-86096000D01*
X63599884Y-86096000D01*
X63615123Y-86091525D01*
X63616328Y-86090135D01*
X63617999Y-86082452D01*
X63617999Y-85655331D01*
X63617629Y-85648510D01*
X63612105Y-85597648D01*
X63608479Y-85582396D01*
X63563324Y-85461946D01*
X63554786Y-85446351D01*
X63478285Y-85344276D01*
X63465724Y-85331715D01*
X63363649Y-85255214D01*
X63348054Y-85246676D01*
X63227606Y-85201522D01*
X63212351Y-85197895D01*
X63161486Y-85192369D01*
X63154672Y-85192000D01*
X62607115Y-85192000D01*
X62591876Y-85196475D01*
X62590671Y-85197865D01*
X62589000Y-85205548D01*
X62589000Y-86077885D01*
X62081000Y-86077885D01*
X62081000Y-85210116D01*
X62076525Y-85194877D01*
X62075135Y-85193672D01*
X62067452Y-85192001D01*
X61515331Y-85192001D01*
X61508510Y-85192371D01*
X61457648Y-85197895D01*
X61442396Y-85201521D01*
X61321946Y-85246676D01*
X61306351Y-85255214D01*
X61204276Y-85331715D01*
X61191715Y-85344276D01*
X61115214Y-85446351D01*
X61106676Y-85461946D01*
X61061522Y-85582394D01*
X61057895Y-85597649D01*
X61052369Y-85648514D01*
X61052000Y-85655328D01*
X61052000Y-86077885D01*
X57683320Y-86077885D01*
X57680276Y-86052733D01*
X57624280Y-85904546D01*
X57595568Y-85862770D01*
X57538855Y-85780251D01*
X57538854Y-85780249D01*
X57534553Y-85773992D01*
X57523837Y-85764444D01*
X57444495Y-85693754D01*
X57416275Y-85668611D01*
X57408889Y-85664700D01*
X57307798Y-85611175D01*
X57276274Y-85594484D01*
X57122633Y-85555892D01*
X57115034Y-85555852D01*
X57115033Y-85555852D01*
X57049181Y-85555507D01*
X56964221Y-85555062D01*
X56956841Y-85556834D01*
X56956839Y-85556834D01*
X56817563Y-85590271D01*
X56817560Y-85590272D01*
X56810184Y-85592043D01*
X56760082Y-85617903D01*
X56751090Y-85622544D01*
X56681383Y-85636013D01*
X56615460Y-85609658D01*
X56574250Y-85551846D01*
X56567300Y-85510578D01*
X56567300Y-84209349D01*
X56567779Y-84198368D01*
X56570164Y-84171109D01*
X56570164Y-84171108D01*
X56571124Y-84160133D01*
X56561191Y-84123061D01*
X56558815Y-84112343D01*
X56554065Y-84085403D01*
X56554065Y-84085402D01*
X56552151Y-84074549D01*
X56546640Y-84065004D01*
X56545369Y-84061511D01*
X56543794Y-84058133D01*
X56540940Y-84047484D01*
X56534616Y-84038453D01*
X56534615Y-84038450D01*
X56518927Y-84016045D01*
X56513021Y-84006775D01*
X56499350Y-83983096D01*
X56499349Y-83983095D01*
X56493839Y-83973551D01*
X56480808Y-83962616D01*
X56464447Y-83948888D01*
X56456344Y-83941463D01*
X56348021Y-83833140D01*
X56235505Y-83720625D01*
X56201480Y-83658313D01*
X56198600Y-83631529D01*
X56198600Y-83297906D01*
X56218602Y-83229785D01*
X56272258Y-83183292D01*
X56342532Y-83173188D01*
X56407112Y-83202682D01*
G37*
G04 #@! TD.AperFunction*
G04 #@! TA.AperFunction,Conductor*
G36*
X79475800Y-87618494D02*
G01*
X79509329Y-87681075D01*
X79512000Y-87706879D01*
X79512000Y-87807885D01*
X79516475Y-87823124D01*
X79517865Y-87824329D01*
X79525548Y-87826000D01*
X80898000Y-87826000D01*
X80966121Y-87846002D01*
X81012614Y-87899658D01*
X81024000Y-87952000D01*
X81024000Y-88208000D01*
X81003998Y-88276121D01*
X80950342Y-88322614D01*
X80898000Y-88334000D01*
X79530116Y-88334000D01*
X79514877Y-88338475D01*
X79513672Y-88339865D01*
X79512001Y-88347548D01*
X79512001Y-89124669D01*
X79512371Y-89131490D01*
X79517895Y-89182352D01*
X79521521Y-89197604D01*
X79566676Y-89318054D01*
X79575214Y-89333649D01*
X79651715Y-89435724D01*
X79664276Y-89448285D01*
X79700909Y-89475740D01*
X79743424Y-89532599D01*
X79748450Y-89603418D01*
X79714390Y-89665711D01*
X79700910Y-89677391D01*
X79644596Y-89719596D01*
X79639215Y-89726776D01*
X79563311Y-89828054D01*
X79563309Y-89828057D01*
X79557929Y-89835236D01*
X79554779Y-89843639D01*
X79526862Y-89918110D01*
X79507202Y-89970553D01*
X79500500Y-90032245D01*
X79500500Y-90149000D01*
X79480498Y-90217121D01*
X79426842Y-90263614D01*
X79374500Y-90275000D01*
X79008149Y-90275000D01*
X78940028Y-90254998D01*
X78924331Y-90243077D01*
X78857651Y-90183668D01*
X78851975Y-90178611D01*
X78711974Y-90104484D01*
X78558333Y-90065892D01*
X78550734Y-90065852D01*
X78550733Y-90065852D01*
X78484881Y-90065507D01*
X78399921Y-90065062D01*
X78392541Y-90066834D01*
X78392539Y-90066834D01*
X78253263Y-90100271D01*
X78253260Y-90100272D01*
X78245884Y-90102043D01*
X78105114Y-90174700D01*
X77985739Y-90278838D01*
X77938902Y-90345480D01*
X77906043Y-90392234D01*
X77894650Y-90408444D01*
X77894443Y-90408974D01*
X77846728Y-90457424D01*
X77777471Y-90473045D01*
X77710763Y-90448743D01*
X77667784Y-90392234D01*
X77659500Y-90347301D01*
X77659500Y-90118166D01*
X77644498Y-90023445D01*
X77586326Y-89909277D01*
X77495723Y-89818674D01*
X77381555Y-89760502D01*
X77286834Y-89745500D01*
X76923166Y-89745500D01*
X76828445Y-89760502D01*
X76714277Y-89818674D01*
X76623674Y-89909277D01*
X76596220Y-89963158D01*
X76582267Y-89990542D01*
X76533518Y-90042157D01*
X76464603Y-90059223D01*
X76397402Y-90036322D01*
X76357733Y-89990542D01*
X76343780Y-89963158D01*
X76316326Y-89909277D01*
X76225723Y-89818674D01*
X76217431Y-89814449D01*
X76174284Y-89758493D01*
X76165700Y-89712782D01*
X76165700Y-89593470D01*
X76185702Y-89525349D01*
X76202605Y-89504375D01*
X77466536Y-88240444D01*
X77528848Y-88206418D01*
X77538335Y-88204799D01*
X77546755Y-88204953D01*
X77612859Y-88186931D01*
X77663701Y-88173070D01*
X77663703Y-88173069D01*
X77672360Y-88170709D01*
X77750138Y-88122953D01*
X77775658Y-88107284D01*
X77775659Y-88107284D01*
X77783306Y-88102588D01*
X77791985Y-88093000D01*
X77864644Y-88012727D01*
X77864645Y-88012726D01*
X77870672Y-88006067D01*
X77876330Y-87994390D01*
X77923522Y-87896985D01*
X77923522Y-87896984D01*
X77927437Y-87888904D01*
X77949037Y-87760519D01*
X77949174Y-87749300D01*
X77948484Y-87744485D01*
X77948168Y-87739630D01*
X77950262Y-87739494D01*
X77959152Y-87677897D01*
X78005674Y-87624266D01*
X78073738Y-87604300D01*
X79211851Y-87604300D01*
X79222832Y-87604779D01*
X79250091Y-87607164D01*
X79250092Y-87607164D01*
X79261067Y-87608124D01*
X79298139Y-87598191D01*
X79308853Y-87595816D01*
X79346651Y-87589151D01*
X79348426Y-87588126D01*
X79413760Y-87583975D01*
X79475800Y-87618494D01*
G37*
G04 #@! TD.AperFunction*
G04 #@! TA.AperFunction,Conductor*
G36*
X84079284Y-83626977D02*
G01*
X84124665Y-83681576D01*
X84135000Y-83731553D01*
X84135000Y-85293485D01*
X84114998Y-85361606D01*
X84098095Y-85382580D01*
X82779302Y-86701373D01*
X82768213Y-86711228D01*
X82741945Y-86731936D01*
X82718297Y-86766153D01*
X82714850Y-86771140D01*
X82659664Y-86815806D01*
X82611197Y-86825501D01*
X82294934Y-86825501D01*
X82266447Y-86831167D01*
X82232874Y-86837844D01*
X82232872Y-86837845D01*
X82220699Y-86840266D01*
X82210379Y-86847161D01*
X82210378Y-86847162D01*
X82153339Y-86885275D01*
X82085587Y-86906490D01*
X82017120Y-86887707D01*
X81972817Y-86841019D01*
X81964788Y-86826354D01*
X81888285Y-86724276D01*
X81875724Y-86711715D01*
X81773649Y-86635214D01*
X81758054Y-86626676D01*
X81637606Y-86581522D01*
X81622351Y-86577895D01*
X81571485Y-86572369D01*
X81562010Y-86571856D01*
X81495070Y-86548201D01*
X81451546Y-86492111D01*
X81445255Y-86421393D01*
X81464361Y-86375583D01*
X81468718Y-86369124D01*
X81474743Y-86362467D01*
X81531508Y-86245304D01*
X81553108Y-86116919D01*
X81553245Y-86105700D01*
X81534789Y-85976825D01*
X81502111Y-85904954D01*
X81484619Y-85866482D01*
X81484618Y-85866480D01*
X81480903Y-85858310D01*
X81419606Y-85787171D01*
X81401784Y-85766487D01*
X81401783Y-85766486D01*
X81395921Y-85759683D01*
X81286672Y-85688872D01*
X81161941Y-85651570D01*
X81152964Y-85651515D01*
X81144085Y-85650188D01*
X81144531Y-85647201D01*
X81091021Y-85631129D01*
X81070700Y-85614649D01*
X81036319Y-85580268D01*
X81028893Y-85572164D01*
X81011307Y-85551206D01*
X81011304Y-85551204D01*
X81004220Y-85542761D01*
X80970996Y-85523578D01*
X80961726Y-85517673D01*
X80939321Y-85501985D01*
X80939318Y-85501984D01*
X80930287Y-85495660D01*
X80919638Y-85492806D01*
X80916260Y-85491231D01*
X80912767Y-85489960D01*
X80903222Y-85484449D01*
X80892369Y-85482535D01*
X80892368Y-85482535D01*
X80874378Y-85479363D01*
X80865424Y-85477784D01*
X80854710Y-85475409D01*
X80817638Y-85465476D01*
X80806663Y-85466436D01*
X80806662Y-85466436D01*
X80779403Y-85468821D01*
X80768422Y-85469300D01*
X80172962Y-85469300D01*
X80104841Y-85449298D01*
X80058348Y-85395642D01*
X80048708Y-85322396D01*
X80053230Y-85295515D01*
X80054037Y-85290719D01*
X80054174Y-85279500D01*
X80035718Y-85150625D01*
X80000687Y-85073578D01*
X79985548Y-85040282D01*
X79985547Y-85040280D01*
X79981832Y-85032110D01*
X79939214Y-84982649D01*
X79902713Y-84940287D01*
X79902712Y-84940286D01*
X79896850Y-84933483D01*
X79787601Y-84862672D01*
X79662870Y-84825370D01*
X79653893Y-84825315D01*
X79645014Y-84823988D01*
X79645460Y-84821001D01*
X79591950Y-84804929D01*
X79571629Y-84788449D01*
X79238975Y-84455795D01*
X79204949Y-84393483D01*
X79210014Y-84322668D01*
X79252561Y-84265832D01*
X79319081Y-84241021D01*
X79328070Y-84240700D01*
X81302751Y-84240700D01*
X81372569Y-84261813D01*
X81397857Y-84278646D01*
X81443101Y-84308763D01*
X81443103Y-84308764D01*
X81450574Y-84313737D01*
X81459138Y-84316413D01*
X81459141Y-84316414D01*
X81491044Y-84326381D01*
X81588510Y-84356832D01*
X81732998Y-84359480D01*
X81752530Y-84354155D01*
X81863763Y-84323830D01*
X81863765Y-84323829D01*
X81872422Y-84321469D01*
X81995572Y-84245854D01*
X82007918Y-84232215D01*
X82038554Y-84198368D01*
X82092551Y-84138714D01*
X82146674Y-84027003D01*
X82151645Y-84016743D01*
X82151645Y-84016742D01*
X82155560Y-84008662D01*
X82179536Y-83866153D01*
X82179688Y-83853700D01*
X82172364Y-83802562D01*
X82182506Y-83732295D01*
X82229028Y-83678665D01*
X82297091Y-83658700D01*
X83463955Y-83658700D01*
X83501526Y-83664433D01*
X83615587Y-83700067D01*
X83624560Y-83700231D01*
X83624563Y-83700232D01*
X83681790Y-83701281D01*
X83745755Y-83702453D01*
X83831996Y-83678941D01*
X83862701Y-83670570D01*
X83862703Y-83670569D01*
X83871360Y-83668209D01*
X83943072Y-83624178D01*
X84011588Y-83605580D01*
X84079284Y-83626977D01*
G37*
G04 #@! TD.AperFunction*
M02*
